<?xml version="1.0" encoding="UTF-8"?>
<svg xmlns="http://www.w3.org/2000/svg" viewBox="0 0 1375.62 1092.7">
  <defs>
    <style type="text/css">
      @font-face {
        font-family: 'Florsn13';
        src: url('/fonts/Florsn/Florsn13.ttf') format('truetype');
        font-weight: normal;
        font-style: normal;
      }
    </style>
    <style>
      .cls-1, .cls-2, .cls-3, .cls-4, .cls-5, .cls-6, .cls-7, .cls-8, .cls-9, .cls-10, .cls-11, .cls-12, .cls-13 {
        fill: none;
      }

      .cls-2 {
        stroke-dasharray: 11.98 11.98;
      }

      .cls-2, .cls-3, .cls-4, .cls-5, .cls-7, .cls-8, .cls-9, .cls-10, .cls-11, .cls-12, .cls-13 {
        stroke-miterlimit: 10;
      }

      .cls-2, .cls-5, .cls-6, .cls-10, .cls-11, .cls-12 {
        stroke: #000;
      }

      .cls-2, .cls-5, .cls-11, .cls-12 {
        stroke-width: 4px;
      }

      .cls-14, .cls-15 {
        fill: #65a30d;
      }

      .cls-3 {
        stroke-dasharray: 12.05 12.05;
      }

      .cls-3, .cls-4 {
        stroke: #38bdf8;
      }

      .cls-3, .cls-4, .cls-7, .cls-8, .cls-9, .cls-13 {
        stroke-width: 6px;
      }

      .cls-16, .cls-17 {
        fill: #c084fc;
      }

      .cls-5 {
        stroke-dasharray: 12.02 12.02;
      }

      .cls-18 {
        fill: #e5e7eb;
        font-size: 80px;
      }

      .cls-18, .cls-17, .cls-15, .cls-19 {
        font-family: Florsn13, monospace;
      }

      .cls-6 {
        stroke-width: .7px;
      }

      .cls-7 {
        stroke-dasharray: 12.05 12.05;
      }

      .cls-7, .cls-13 {
        stroke: #c084fc;
      }

      .cls-17, .cls-15, .cls-19 {
        font-size: 50px;
      }

      .cls-8 {
        stroke-dasharray: 11.87 11.87;
      }

      .cls-8, .cls-9 {
        stroke: #65a30d;
      }

      .cls-10 {
        stroke-width: 10px;
      }

      .cls-20 {
        letter-spacing: -.11em;
      }

      .cls-21, .cls-19 {
        fill: #38bdf8;
      }

      .cls-11 {
        stroke-dasharray: 11.81 11.81;
      }
    </style>
  </defs>
  <g id="Layer_2" data-name="Layer 2">
    <g>
      <line class="cls-12" x1="568.91" y1="868.84" x2="568.91" y2="862.84"/>
      <line class="cls-11" x1="568.91" y1="851.02" x2="568.91" y2="124.46"/>
      <line class="cls-12" x1="568.91" y1="118.55" x2="568.91" y2="112.55"/>
      <path d="M568.91,119.73l-14.41,8.77-.33-.49,9.33-23.5c1.8-8.19,3.6-16.37,5.4-24.56,1.8,8.19,3.6,16.37,5.4,24.56l9.33,23.5-.25.49-14.49-8.77Z"/>
    </g>
    <text class="cls-18" transform="translate(955.7 784.34)"><tspan x="0" y="0">X</tspan></text>
    <text class="cls-18" transform="translate(1114.7 219.84)"><tspan x="0" y="0">Y</tspan></text>
    <text class="cls-18" transform="translate(538.7 70.92)"><tspan x="0" y="0">Z</tspan></text>
    <g>
      <line class="cls-12" x1="229.7" y1="338.95" x2="234.93" y2="341.88"/>
      <line class="cls-2" x1="245.38" y1="347.74" x2="908.8" y2="719.67"/>
      <line class="cls-12" x1="914.02" y1="722.6" x2="919.25" y2="725.53"/>
      <path d="M912.99,722.02l-.6-16.86.59-.04,15.93,19.63c6.26,5.57,12.52,11.15,18.78,16.73-8.02-2.43-16.04-4.87-24.07-7.3l-25.06-3.35-.31-.46,14.73-8.35Z"/>
    </g>
    <g>
      <line class="cls-12" x1="31.23" y1="835.76" x2="36.44" y2="832.79"/>
      <line class="cls-5" x1="46.89" y1="826.86" x2="1086.63" y2="236.82"/>
      <line class="cls-12" x1="1091.86" y1="233.85" x2="1097.07" y2="230.89"/>
      <path d="M1090.83,234.43l-14.74-8.21.27-.53,25.05-3.48c8.01-2.47,16.02-4.95,24.03-7.42-6.23,5.61-12.46,11.21-18.69,16.82l-15.83,19.72-.55.03.47-16.93Z"/>
    </g>
    <g>
      <path class="cls-10" d="M875.13,723.8c-10.55-7.84-17.33-20.07-17.33-33.8,0-23.66,20.13-42.84,44.95-42.84s44.95,19.18,44.95,42.84c0,4.32-.67,8.48-1.92,12.41"/>
      <path d="M934.53,720.28c1.9-10.43,2.79-24.25.96-34.22l11.24,13.67,17.38,3.32c-9.63,3.17-21.34,10.56-29.58,17.23Z"/>
    </g>
    <text class="cls-17" transform="translate(638.7 134.49)"><tspan x="0" y="0">ALPHA</tspan></text>
    <text class="cls-19" transform="translate(974.6 707.84)"><tspan x="0" y="0">BE</tspan><tspan class="cls-20" x="76.5" y="0">T</tspan><tspan x="107.3" y="0">A</tspan></text>
    <text class="cls-15" transform="translate(1138.3 293.84)"><tspan x="0" y="0">GAMMA</tspan></text>
    <ellipse class="cls-1" cx="647.2" cy="551.84" rx="398.17" ry="291"/>
    <g>
      <path class="cls-13" d="M412.07,332.23c1.59-1.21,3.19-2.41,4.8-3.6"/>
      <path class="cls-7" d="M426.69,321.65c62.16-42.57,141.86-68.15,228.76-68.15,198.55,0,359.5,133.49,359.5,298.16,0,9.83-.57,19.56-1.7,29.15"/>
      <path class="cls-13" d="M1012.48,586.8c-.28,1.98-.58,3.96-.91,5.93"/>
      <path class="cls-16" d="M420.68,325.71l-4.14-24.96-.88.11-17.58,33.61c-7.55,10.06-15.09,20.12-22.63,30.18,11.07-5.97,22.14-11.93,33.21-17.89l35.85-12.39.32-.76-24.15-7.9Z"/>
      <path class="cls-16" d="M1013.34,582.08l24.16-7.53.3.83-22.11,30.82c-5.59,11.26-11.18,22.53-16.77,33.79.35-12.57.69-25.14,1.04-37.71l-5.07-37.59.54-.63,17.92,18.01Z"/>
    </g>
    <g>
      <path class="cls-4" d="M556.29,993.95c.51-1.93,1.03-3.86,1.56-5.79"/>
      <path class="cls-3" d="M561.24,976.6c24.83-80.41,76.59-164.04,151.81-235.84,168.3-160.66,390.3-201.28,495.84-90.72,5.5,5.76,10.58,11.82,15.23,18.15"/>
      <path class="cls-4" d="M1227.62,673.1c1.13,1.65,2.24,3.32,3.32,5"/>
      <path class="cls-21" d="M559,983.51l-18.51-17.25-.63.62,6.58,37.35c.16,12.57.32,25.15.49,37.72,5.13-11.48,10.26-22.96,15.39-34.44l20.84-31.69-.21-.8-23.95,8.48Z"/>
      <path class="cls-21" d="M1225.06,669.01l13.39-21.47.77.44,3.35,37.78c3.11,12.18,6.22,24.37,9.33,36.55-7.94-9.75-15.87-19.51-23.81-29.26l-28.36-25.18v-.83s25.33,1.96,25.33,1.96Z"/>
    </g>
    <g>
      <path class="cls-9" d="M660.91,612.47c-1.27,1.54-2.55,3.08-3.85,4.6"/>
      <path class="cls-8" d="M649.2,625.96c-51.33,56.13-122.65,96.71-205.57,110.7-188.38,31.79-365.27-85.72-395.09-262.47-2.07-12.26-3.38-24.49-3.95-36.63"/>
      <path class="cls-9" d="M44.36,431.63c-.06-2-.09-4-.11-6"/>
      <path class="cls-14" d="M654.02,620.78l9.73,23.36.83-.31,9.44-36.73c5.05-11.52,10.1-23.03,15.15-34.55-9.42,8.34-18.83,16.67-28.25,25l-32.07,20.24-.14.81,25.31,2.17Z"/>
      <path class="cls-14" d="M44.36,436.42l-22.33,11.9-.45-.76,15.98-34.4c3.4-12.11,6.79-24.22,10.19-36.32,2,12.42,4,24.83,6,37.25l11.97,35.99-.41.72-20.95-14.36Z"/>
    </g>
    <g>
      <path class="cls-10" d="M534.86,114.57c-8.69,9.86-12.78,23.23-9.92,36.67,4.92,23.14,28.6,37.72,52.88,32.55,24.28-5.16,39.98-28.11,35.06-51.25-.9-4.22-2.42-8.16-4.46-11.74"/>
      <path d="M593.7,105.65c9.45,4.8,22.44,9.6,32.52,10.7l-16.32,6.86-8.15,15.71c-.29-10.14-4.02-23.47-8.06-33.27Z"/>
    </g>
    <g>
      <path class="cls-10" d="M1108.39,258.12c-2.18,12.96-9.98,24.57-22.22,30.82-21.07,10.76-47.31,1.57-58.6-20.54-11.29-22.11-3.37-48.76,17.7-59.52,3.84-1.96,7.86-3.26,11.92-3.94"/>
      <path d="M1078.24,206.82c-10.15,3.05-22.86,8.55-30.91,14.72l7.06-16.23-4.95-16.99c7.21,7.14,19.12,14.2,28.8,18.5Z"/>
    </g>
  </g>
  <g id="Layer_1" data-name="Layer 1">
    <path class="cls-6" d="M772.7,210.84l-1,1h-9l-1,1h-5l-1,1h-3l-1,1h-3l-1,1h-2l-1,1h-3l-1,1h-2l-1,1h-1l-1,1h-2l-1,1h-2l-1,1h-1l-1,1h-1l-1,1h-1l-1,1h-1l-1,1h-1l-1,1h-1l-2,2h-1l-1,1h-1l-1,1h-1l-1,1h-1l-1,1h-1l-2,2h-1l-1,1h-1l-1,1h-1l-1,1h-1l-1,1h-1l-2,2h-1l-1,1h-1l-1,1h-1l-1,1h-1l-2,2h-1l-1,1h-1l-1,1h-1l-1,1h-1l-2,2h-1l-1,1h-1l-1,1h-1l-1,1h-1l-1,1h-1l-1,1h-1l-2,2h-1l-1,1h-1l-1,1h-1l-1,1h-1l-2,2h-1l-1,1h-1l-1,1h-1l-1,1h-1l-2,2h-1l-1,1h-1l-1,1h-1l-1,1h-1l-2,2h-1l-1,1h-1l-1,1h-1l-1,1h-1l-1,1h-1l-1,1h-1l-2,2h-1l-1,1h-1l-1,1h-1l-1,1h-1l-2,2h-1l-1,1h-1l-1,1h-1l-1,1h-1l-2,2h-1l-1,1h-1l-1,1h-1l-1,1h-1l-1,1h-1l-2,2h-1l-1,1h-1l-1,1h-1l-1,1h-1l-1,1h-1l-2,2h-1l-1,1h-1l-1,1h-1l-1,1h-1l-1,1h-1l-2,2h-1l-1,1h-1l-1,1h-1l-1,1h-1l-2,2h-1l-1,1h-1l-1,1h-1l-1,1h-1l-2,2h-1l-1,1h-1l-1,1h-1l-1,1h-1l-1,1h-1l-1,1h-1l-2,2h-1l-1,1h-1l-1,1h-1l-1,1h-1l-2,2h-1l-1,1h-1l-1,1h-1l-1,1h-1l-2,2h-1l-1,1h-1l-1,1h-1l-1,1h-1l-2,2h-1l-1,1h-1l-1,1h-1l-1,1h-1l-1,1h-1l-1,1h-1l-2,2h-1l-1,1h-1l-1,1h-1l-1,1h-1l-2,2h-1l-1,1h-1l-1,1h-1l-1,1h-1l-2,2h-1l-1,1h-1l-1,1h-1l-1,1h-1l-2,2h-2l-2,2h-1l-1,1h-1l-1,1h-1l-1,1h-1l-2,2h-1l-1,1h-1l-1,1h-1l-1,1h-1l-2,2h-1l-1,1h-1l-1,1h-1l-1,1h-1l-2,2h-1l-1,1h-1l-1,1h-1l-1,1h-1l-1,1h-1l-1,1h-1l-2,2h-1l-1,1h-1l-1,1h-1l-1,1h-1l-2,2h-1l-1,1h-1l-1,1h-1l-1,1h-1l-2,2h-1l-1,1h-1l-1,1h-1l-1,1h-1l-2,2h-1l-1,1h-1l-1,1h-1l-1,1h-1l-1,1h-1l-1,1h-1l-2,2h-1l-1,1h-1l-1,1h-1l-1,1h-1l-2,2h-1l-1,1h-1l-1,1h-1l-1,1h-1l-1,1h-1l-2,2h-1l-1,1h-1l-1,1h-1l-2,2h-1l-1,1h-1l-1,1h-1l-1,1h-1l-1,1h-1l-1,1h-1l-2,2h-1l-1,1h-1l-1,1h-1l-1,1h-1l-1,1h-1l-2,2h-1l-1,1h-1l-1,1h-1l-1,1h-1l-2,2h-1l-1,1h-1l-1,1h-1l-1,1h-1l-2,2h-1l-1,1h-1l-1,1h-1l-1,1h-1l-1,1h-1l-1,1h-1l-2,2h-1l-1,1h-1l-1,1h-1l-1,1h-1l-2,2h-1l-1,1h-1l-1,1h-1l-1,1h-1l-2,2h-1l-1,1h-1l-1,1h-1l-1,1h-1l-1,1h-1l-2,2h-1l-1,1h-1l-1,1h-1l-1,1h-1l-1,1h-1l-2,2h-1l-1,1h-1l-1,1h-1l-1,1h-1l-2,2h-1l-1,1h-1l-1,1h-1l-1,1h-1l-2,2h-1l-1,1h-1l-1,1h-1l-1,1h-1l-1,1h-1l-1,1h-1l-2,2h-1l-1,1h-1l-1,1h-1l-1,1h-1l-2,2h-1l-1,1h-1l-1,1h-1l-1,1h-1l-2,2h-1l-1,1h-1l-1,1h-1l-1,1h-1l-2,2h-1l-1,1h-1l-1,1h-1l-1,1h-1l-1,1h-1l-1,1h-1l-2,2h-1l-1,1h-1l-1,1h-1l-1,1h-1l-2,2h-1l-1,1h-1l-1,1h-1l-1,1h-1l-2,2h-1l-1,1h-1l-1,1h-1l-1,1h-1l-1,1h-1l-2,2h-1l-1,1h-1l-1,1h-1l-1,1h-1l-1,1h-1l-2,2h-1l-1,1h-1l-1,1h-1l-1,1h-1l-2,2h-1l-1,1h-1l-1,1h-1l-1,1h-1l-2,2h-1l-1,1h-1l-1,1h-1l-1,1h-1l-2,2h-1l-1,1h-1l-1,1h-1l-1,1h-1l-1,1h-1l-1,1h-1l-2,2h-1l-1,1h-1l-1,1h-1l-1,1h-1l-2,2h-1l-1,1h-1l-1,1h-1l-1,1h-1l-1,1h-1l-2,2h-1l-1,1h-1l-1,1h-1l-1,1h-1l-2,2h-1l-1,1h-1l-1,1h-1l-1,1h-1l-1,1h-1l-2,2h-1l-1,1h-1l-1,1h-1l-1,1h-1l-1,1h-1l-2,2h-1l-1,1h-1l-1,1h-1l-1,1h-1l-2,2h-1l-1,1h-1l-1,1h-1l-1,1h-1l-2,2h-1l-1,1h-1l-2,2h-1l-3,3h-1l-7,7v1l-2,2v1l-2,2v1l-1,1v2l-1,1v3l-1,1v19l-1,1v23l1,1v3l1,1v2l1,1v2l1,1v1l2,2v1l2,2v1l6,6h1l4,4h1l2,2h1l1,1h1l2,2h1l1,1h1l1,1h1l2,2h1l1,1h1l1,1h1l2,2h1l1,1h1l2,2h1l1,1h1l1,1h1l2,2h1l1,1h1l1,1h1l2,2h1l1,1h1l2,2h1l1,1h1l1,1h1l2,2h1l1,1h1l1,1h1l1,1h1l2,2h1l1,1h1l2,2h1l1,1h1l1,1h1l2,2h1l1,1h1l2,2h1l1,1h1l1,1h1l2,2h1l1,1h1l1,1h1l2,2h1l1,1h1l1,1h1l2,2h1l1,1h1l1,1h1l2,2h1l1,1h1l2,2h1l1,1h1l2,2h1l1,1h1l1,1h1l2,2h1l1,1h1l1,1h1l2,2h1l1,1h1l1,1h1l2,2h1l1,1h1l1,1h1l2,2h1l1,1h1l1,1h1l2,2h1l1,1h1l2,2h1l1,1h1l2,2h1l1,1h1l1,1h1l1,1h1l2,2h1l1,1h1l2,2h1l1,1h1l1,1h1l2,2h1l1,1h1l1,1h1l2,2h1l1,1h1l1,1h1l2,2h1l1,1h1l2,2h1l1,1h1l1,1h1l2,2h1l1,1h1l1,1h1l2,2h1l1,1h1l1,1h1l2,2h1l1,1h1l1,1h1l2,2h1l1,1h1l2,2h1l1,1h1l1,1h1l2,2h1l1,1h1l2,2h1l1,1h1l1,1h1l2,2h1l1,1h1l1,1h1l2,2h1l1,1h1l1,1h1l2,2h1l1,1h1l1,1h1l1,1h1l1,1h1l1,1h1l1,1h2l1,1h2l1,1h1l1,1h2l1,1h2l1,1h2l1,1h3l1,1h3l1,1h4l1,1h6l1,1h33l1-1h6l1-1h5l1-1h2l1-1h3l1-1h2l1-1h2l1-1h2l1-1h2l1-1h1l1-1h2l1-1h1l1-1h1l1-1h1l1-1h1l1-1h1l2-2h1l1-1h1l1-1h1l1-1h1l1-1h1l2-2h1l1-1h1l1-1h1l1-1h1l2-2h1l1-1h1l1-1h1l1-1h1l1-1h1l1-1h1l2-2h1l1-1h1l1-1h1l1-1h1l2-2h1l1-1h1l1-1h1l1-1h1l2-2h1l1-1h1l1-1h1l1-1h1l1-1h1l2-2h1l1-1h1l1-1h1l1-1h1l1-1h1l2-2h1l1-1h1l1-1h1l1-1h1l2-2h1l1-1h1l1-1h1l1-1h1l2-2h1l1-1h1l1-1h1l1-1h1l1-1h1l1-1h1l2-2h1l1-1h1l1-1h1l1-1h1l2-2h1l1-1h1l1-1h1l1-1h1l2-2h1l1-1h1l1-1h1l1-1h1l2-2h1l1-1h1l1-1h1l1-1h1l1-1h1l1-1h1l2-2h1l1-1h1l1-1h1l1-1h1l2-2h1l1-1h1l1-1h1l1-1h1l2-2h1l1-1h1l1-1h1l1-1h1l1-1h1l2-2h1l1-1h1l1-1h1l1-1h1l1-1h1l2-2h1l1-1h1l1-1h1l1-1h1l1-1h1l2-2h1l1-1h1l1-1h1l2-2h1l1-1h1l1-1h1l1-1h1l1-1h1l2-2h1l1-1h1l1-1h1l1-1h1l1-1h1l2-2h1l1-1h1l1-1h1l1-1h1l1-1h1l2-2h1l1-1h1l1-1h1l1-1h1l2-2h1l1-1h1l1-1h1l1-1h1l2-2h1l1-1h1l1-1h1l1-1h1l1-1h1l1-1h1l2-2h1l1-1h1l1-1h1l1-1h1l2-2h1l1-1h1l1-1h1l1-1h1l2-2h1l1-1h1l1-1h1l1-1h1l1-1h1l2-2h1l1-1h1l1-1h1l1-1h1l1-1h1l2-2h1l1-1h1l1-1h1l1-1h1l2-2h1l1-1h1l1-1h1l1-1h1l2-2h1l1-1h1l1-1h1l1-1h1l1-1h1l2-2h1l1-1h1l1-1h1l1-1h1l1-1h1l2-2h1l1-1h1l1-1h1l1-1h1l2-2h1l1-1h1l1-1h1l1-1h1l2-2h1l1-1h1l1-1h1l1-1h1l1-1h1l1-1h1l2-2h1l1-1h1l1-1h1l1-1h1l2-2h1l1-1h1l1-1h1l1-1h1l2-2h1l1-1h1l1-1h1l1-1h1l2-2h1l1-1h1l1-1h1l1-1h1l1-1h1l1-1h1l2-2h1l1-1h1l1-1h1l1-1h1l2-2h1l1-1h1l1-1h1l1-1h1l2-2h1l1-1h1l1-1h1l1-1h1l1-1h1l2-2h1l1-1h1l1-1h1l1-1h1l1-1h1l2-2h1l2-2h2l1-1h1l2-2h1l1-1h1l1-1h1l1-1h1l1-1h1l2-2h1l1-1h1l1-1h1l1-1h1l2-2h1l1-1h1l1-1h1l1-1h1l1-1h1l1-1h1l2-2h1l1-1h1l1-1h1l1-1h1l2-2h1l1-1h1l1-1h1l1-1h1l2-2h1l1-1h1l1-1h1l1-1h1l1-1h1l2-2h1l1-1h1l1-1h1l1-1h1l1-1h1l2-2h1l1-1h1l1-1h1l1-1h1l2-2h1l1-1h1l1-1h1l1-1h1l2-2h1l1-1h1l1-1h1l1-1h1l1-1h1l2-2h1l1-1h1l1-1h1l1-1h1l1-1h1l2-2h1l1-1h1l1-1h1l1-1h1l2-2h1l1-1h1l1-1h1l1-1h1l2-2h1l1-1h1l1-1h1l1-1h1l1-1h1l2-2h1l1-1h1l1-1h1l1-1h1l1-1h1l2-2h1l1-1h1l1-1h1l1-1h1l2-2h1l1-1h1l1-1h1l1-1h1l1-1h1l2-2h1l1-1h1l1-1h1l1-1h1l2-2h1l1-1h1l1-1h1l1-1h1l1-1h1l2-2h1l1-1h1l1-1h1l1-1h1l2-2h1l1-1h1l1-1h1l3-3h1l10-10v-1l2-2v-1l1-1v-2l1-1v-2l1-1v-2l1-1v-20l1-1v-21l-1-1v-3l-1-1v-2l-1-1v-2l-1-1v-1l-1-1v-1l-2-2v-1l-10-10h-1l-2-2h-1l-2-2h-1l-1-1h-1l-2-2h-1l-1-1h-1l-1-1h-1l-2-2h-1l-1-1h-1l-1-1h-1l-2-2h-1l-1-1h-1l-2-2h-1l-1-1h-1l-1-1h-1l-2-2h-1l-1-1h-1l-1-1h-1l-2-2h-1l-1-1h-1l-1-1h-1l-2-2h-1l-1-1h-1l-1-1h-1l-2-2h-1l-1-1h-1l-2-2h-1l-1-1h-1l-1-1h-1l-2-2h-1l-1-1h-1l-2-2h-1l-1-1h-1l-1-1h-1l-2-2h-1l-1-1h-1l-1-1h-1l-2-2h-1l-1-1h-1l-1-1h-1l-2-2h-1l-1-1h-1l-1-1h-1l-2-2h-1l-1-1h-1l-2-2h-1l-1-1h-1l-1-1h-1l-2-2h-1l-1-1h-1l-2-2h-1l-1-1h-1l-1-1h-1l-2-2h-1l-1-1h-1l-1-1h-1l-2-2h-1l-1-1h-1l-1-1h-1l-2-2h-1l-1-1h-1l-1-1h-1l-2-2h-1l-1-1h-1l-1-1h-1l-2-2h-1l-1-1h-1l-2-2h-1l-1-1h-1l-1-1h-1l-2-2h-1l-1-1h-1l-1-1h-1l-2-2h-1l-1-1h-1l-1-1h-1l-2-2h-1l-1-1h-1l-2-2h-1l-1-1h-1l-1-1h-1l-2-2h-1l-1-1h-1l-1-1h-1l-2-2h-1l-1-1h-1l-2-2h-1l-1-1h-1l-1-1h-1l-2-2h-1l-1-1h-1l-1-1h-1l-2-2h-1l-1-1h-1l-1-1h-1l-2-2h-1l-1-1h-1l-1-1h-1l-2-2h-1l-1-1h-1l-1-1h-1l-2-2h-1l-2-2h-1l-1-1h-1l-1-1h-1l-2-2h-1l-1-1h-1l-1-1h-1l-2-2h-1l-1-1h-1l-1-1h-1l-2-2h-1l-1-1h-1l-1-1h-1l-2-2h-1l-1-1h-1l-1-1h-1l-1-1h-1l-1-1h-1l-1-1h-2l-1-1h-1l-1-1h-2l-1-1h-2l-1-1h-1l-1-1h-3l-1-1h-2l-1-1h-3l-1-1h-3l-1-1h-5l-1-1h-9l-1-1h-21Z"/>
    <path class="cls-6" d="M771.7,211.84l1-1h21l1,1h9l1,1h5l1,1h3l1,1h3l1,1h2l1,1h3l1,1h1l1,1h1l1,1h3l1,1h1l1,1h1l1,1h1l1,1h1l1,1h1l1,1h1l1,1h1l2,2h1l1,1h1l1,1h1l2,2h1l1,1h1l1,1h1l2,2h1l1,1h1l1,1h1l2,2h1l1,1h1l1,1h1l2,2h1l2,2h1l1,1h1l1,1h1l2,2h1l1,1h1l1,1h1l2,2h1l1,1h1l1,1h1l2,2h1l1,1h1l1,1h1l2,2h1l1,1h1l1,1h1l2,2h1l1,1h1l2,2h1l1,1h1l1,1h1l2,2h1l1,1h1l1,1h1l2,2h1l1,1h1l2,2h1l1,1h1l1,1h1l2,2h1l1,1h1l1,1h1l2,2h1l1,1h1l1,1h1l2,2h1l1,1h1l2,2h1l1,1h1l1,1h1l2,2h1l1,1h1l1,1h1l2,2h1l1,1h1l1,1h1l2,2h1l1,1h1l1,1h1l2,2h1l1,1h1l1,1h1l2,2h1l1,1h1l2,2h1l1,1h1l1,1h1l2,2h1l1,1h1l2,2h1l1,1h1l1,1h1l2,2h1l1,1h1l1,1h1l2,2h1l1,1h1l1,1h1l2,2h1l1,1h1l1,1h1l2,2h1l1,1h1l2,2h1l1,1h1l1,1h1l2,2h1l1,1h1l2,2h1l1,1h1l1,1h1l2,2h1l1,1h1l1,1h1l2,2h1l1,1h1l1,1h1l2,2h1l1,1h1l1,1h1l2,2h1l1,1h1l2,2h1l1,1h1l1,1h1l2,2h1l1,1h1l1,1h1l2,2h1l1,1h1l2,2h1l2,2h1l11,11v1l2,2v1l1,1v1l1,1v1l1,1v2l1,1v3l1,1v21l-1,1v20l-1,1v2l-1,1v2l-1,1v1l-1,1v1l-2,2v1l-12,12h-1l-2,2h-1l-1,1h-1l-2,2h-1l-1,1h-1l-1,1h-1l-1,1h-1l-2,2h-1l-1,1h-1l-1,1h-1l-1,1h-1l-1,1h-1l-1,1h-1l-2,2h-1l-1,1h-1l-1,1h-1l-1,1h-1l-2,2h-1l-1,1h-1l-1,1h-1l-1,1h-1l-2,2h-1l-1,1h-1l-1,1h-1l-1,1h-1l-1,1h-1l-2,2h-1l-1,1h-1l-1,1h-1l-1,1h-1l-1,1h-1l-2,2h-1l-1,1h-1l-1,1h-1l-1,1h-1l-2,2h-1l-1,1h-1l-1,1h-1l-1,1h-1l-1,1h-1l-2,2h-1l-1,1h-1l-1,1h-1l-1,1h-1l-2,2h-1l-1,1h-1l-1,1h-1l-1,1h-1l-1,1h-1l-2,2h-1l-1,1h-1l-1,1h-1l-1,1h-1l-1,1h-1l-2,2h-1l-1,1h-1l-1,1h-1l-1,1h-1l-2,2h-1l-1,1h-1l-1,1h-1l-1,1h-1l-2,2h-1l-1,1h-1l-1,1h-1l-1,1h-1l-1,1h-1l-2,2h-1l-1,1h-1l-1,1h-1l-1,1h-1l-1,1h-1l-2,2h-1l-1,1h-1l-1,1h-1l-1,1h-1l-1-1,1-1-1,1,1,1-2,2h-1l-1,1h-1l-1,1h-1l-1,1h-1l-2,2h-1l-1,1h-1l-1,1h-1l-1,1h-1l-1,1h-1l-1,1h-1l-1-1,1,1-2,2h-1l-1,1h-1l-1,1h-1l-1,1h-1l-1-1,1,1-2,2h-1l-1,1h-1l-1,1h-1l-1,1h-1l-1-1,1-1-1,1,1,1-1,1h-1l-2,2h-1l-1,1h-1l-1,1h-1l-1,1h-1l-2,2h-1l-1,1h-1l-1,1h-1l-1,1h-1l-2,2h-1l-1,1h-1l-1,1h-1l-1,1h-1l-1,1h-1l-2,2h-1l-1,1h-1l-1,1h-1l-1,1h-1l-1,1h-1l-2,2h-1l-1,1h-1l-1,1h-1l-1,1h-1l-2,2h-1l-1,1h-1l-1,1h-1l-1,1h-1l-1,1h-1l-2,2h-1l-1,1h-1l-1,1h-1l-1,1h-1l-1,1h-1l-2,2h-1l-1,1h-1l-1,1h-1l-1,1h-1l-2,2h-1l-1,1h-1l-1,1h-1l-1,1h-1l-2,2h-1l-1,1h-1l-1,1h-1l-1,1h-1l-1,1h-1l-2,2h-1l-1,1h-1l-1,1h-1l-1,1h-1l-1,1h-1l-2,2h-1l-1,1h-1l-1,1h-1l-1,1h-1l-2,2h-1l-1,1h-1l-1,1h-1l-1,1h-1l-1,1h-1l-2,2h-1l-1,1h-1l-1,1h-1l-1,1h-1l-2,2h-1l-1,1h-1l-1,1h-1l-1,1h-1l-1,1h-1l-2,2h-1l-1,1h-1l-1,1h-1l-1,1h-1l-2,2h-1l-1,1h-1l-1,1h-1l-1,1h-1l-1,1h-1l-2,2h-1l-1,1h-1l-1,1h-1l-1,1h-1l-1,1h-1l-2,2h-1l-1,1h-1l-1,1h-1l-1,1h-1l-2,2h-1l-1,1h-1l-1,1h-1l-1,1h-1l-2,2h-1l-1,1h-1l-1,1h-1l-2,2h-2l-2,2h-1l-1,1h-1l-1,1h-1l-1,1h-1l-1,1h-1l-2,2h-1l-1,1h-1l-1,1h-1l-1,1h-1l-2,2h-1l-1,1h-1l-1,1h-1l-1,1h-1l-1,1h-1l-2,2h-1l-1,1h-1l-1,1h-1l-1,1h-1l-2,2h-1l-1,1h-1l-1,1h-1l-1,1h-1l-1,1h-1l-2,2h-1l-1,1h-1l-1,1h-1l-1,1h-1l-2,2h-1l-1,1h-1l-1,1h-1l-1,1h-1l-1,1h-1l-2,2h-1l-1,1h-1l-1,1h-1l-1,1h-1l-2,2h-1l-1,1h-1l-1,1h-1l-1,1h-1l-1,1h-1l-2,2h-1l-1,1h-1l-1,1h-1l-1,1h-1l-1,1h-1l-2,2h-1l-1,1h-1l-1,1h-1l-1,1h-1l-2,2h-1l-1,1h-1l-1,1h-1l-1,1h-1l-1,1h-1l-2,2h-1l-1,1h-1l-1,1h-1l-1,1h-1l-1,1h-1l-2,2h-1l-1,1h-1l-1,1h-1l-1,1h-1l-2,2h-1l-1,1h-1l-1,1h-1l-1,1h-1l-2,2h-1l-1,1h-1l-1,1h-1l-1,1h-1l-1,1h-1l-2,2h-1l-1,1h-1l-1,1h-1l-1,1h-1l-1,1h-1l-2,2h-1l-1,1h-1l-1,1h-1l-1,1h-1l-2,2h-1l-1,1h-1l-1,1h-1l-1,1h-1l-1,1h-1l-2,2h-1l-1,1h-1l-1,1h-1l-1,1h-1l-2,2h-1l-1,1h-1l-1,1h-1l-1,1h-1l-1,1h-1l-2,2h-1l-1,1h-1l-1,1h-1l-1,1h-1l-2,2h-1l-1,1h-1l-1,1h-1l-1,1h-1l-1,1h-1l-2,2h-1l-1,1h-1l-1,1h-1l-1,1h-1l-1,1h-1l-2,2h-1l-1,1h-1l-1,1h-1l-1,1h-1l-2,2h-1l-1,1h-1l-1,1h-1l-1,1h-1l-2,2h-2l-1,1h-1l-1,1h-1l-1,1h-2l-1,1h-2l-1,1h-2l-1,1h-2l-1,1h-3l-1,1h-2l-1,1h-5l-1,1h-6l-1,1h-33l-1-1h-6l-1-1h-4l-1-1h-3l-1-1h-3l-1-1h-2l-1-1h-2l-1-1h-2l-1-1h-1l-1-1h-2l-1-1h-2l-2-2h-1l-1-1h-1l-1-1h-1l-1-1h-1l-1-1h-1l-2-2h-1l-1-1h-1l-1-1h-1l-2-2h-1l-1-1h-1l-1-1h-1l-2-2h-1l-1-1h-1l-1-1h-1l-2-2h-1l-1-1h-1l-2-2h-1l-1-1h-1l-1-1h-1l-2-2h-1l-1-1h-1l-1-1h-1l-2-2h-1l-1-1h-1l-2-2h-1l-1-1h-1l-1-1h-1l-2-2h-1l-1-1h-1l-1-1h-1l-2-2h-1l-1-1h-1l-1-1h-1l-2-2h-1l-1-1h-1l-1-1h-1l-2-2h-1l-1-1h-1l-2-2h-1l-1-1h-1l-1-1h-1l-2-2h-1l-1-1h-1l-1-1h-1l-2-2h-1l-1-1h-1l-1-1h-1l-2-2h-1l-1-1h-1l-1-1h-1l-2-2h-1l-1-1h-1l-2-2h-1l-1-1h-1l-1-1h-1l-2-2h-1l-1-1h-1l-1-1h-1l-2-2h-1l-1-1h-1l-2-2h-1l-1-1h-1l-1-1h-1l-2-2h-1l-1-1h-1l-1-1h-1l-2-2h-1l-1-1h-1l-1-1h-1l-2-2h-1l-1-1h-1l-2-2h-1l-1-1h-1l-1-1h-1l-2-2h-1l-1-1h-1l-1-1h-1l-2-2h-1l-1-1h-1l-2-2h-1l-1-1h-1l-1-1h-1l-2-2h-1l-1-1h-1l-1-1h-1l-2-2h-1l-1-1h-1l-1-1h-1l-2-2h-1l-1-1h-1l-1-1h-1l-2-2h-1l-1-1h-1l-2-2h-1l-1-1h-1l-1-1h-1l-2-2h-2l-2-2h-1l-2-2h-1l-1-1h-1l-1-1h-1l-2-2h-1l-1-1h-1l-2-2h-1l-1-1h-1l-1-1h-1l-1-1h-1l-2-2h-1l-1-1h-1l-2-2h-1l-1-1h-1l-2-2h-1l-1-1h-1l-1-1h-1l-2-2h-1l-1-1h-1l-2-2h-1l-3-3h-1l-8-8v-1l-2-2v-1l-2-2v-1l-1-1v-1l-1-1v-2l-1-1v-3l-1-1v-23l1-1v-19l1-1v-3l1-1v-1l1-1v-1l2-2v-1l2-2v-1l8-8h1l3-3h1l2-2h1l1-1h1l2-2h1l1-1h1l1-1h1l1-1h1l2-2h1l1-1h1l1-1h1l1-1h1l2-2h1l1-1h1l1-1h1l1-1h1l1-1h1l2-2h1l1-1h1l1-1h1l1-1h1l2-2h1l1-1h1l1-1h1l1-1h1l1-1h1l2-2h1l1-1h1l1-1h1l1-1h1l1-1h1l2-2h1l1-1h1l1-1h1l1-1h1l2-2h1l1-1h1l1-1h1l1-1h1l1-1h1l2-2h1l2-2h2l1-1h1l1-1h1l2-2h1l1-1h1l1-1h1l1-1h1l2-2h1l1-1h1l1-1h1l1-1h1l2-2h1l1-1h1l1-1h1l1-1h1l1-1h1l2-2h1l1-1h1l1-1h1l1-1h1l1-1h1l2-2h1l1-1h1l1-1h1l1-1h1l2-2h1l1-1h1l1-1h1l1-1h1l2-2h1l1-1h1l1-1h1l1-1h1l1-1h1l1-1h1l2-2h1l1-1h1l1-1h1l1-1h1l2-2h1l1-1h1l1-1h1l1-1h1l2-2h1l1-1h1l1-1h1l1-1h1l2-2h1l1-1h1l1-1h1l1-1h1l1-1h1l1-1h1l2-2h1l2-2h2l1-1h1l2-2h1l1-1h1l1-1h1l1-1h1l2-2h1l1-1h1l1-1h1l1-1h1l1-1h1l2-2h1l1-1h1l1-1h1l1-1h1l1-1h1l2-2h1l1-1h1l1-1h1l1-1h1l2-2h1l1-1h1l1-1h1l1-1h1l2-2h1l1-1h1l1-1h1l1-1h1l1-1h1l1-1h1l2-2h1l1-1h1l1-1h1l1-1h1l2-2h1l1-1h1l1-1h1l1-1h1l2-2h1l1-1h1l1-1h1l1-1h1l1-1h1l2-2h1l1-1h1l1-1h1l1-1h1l1-1h1l1-1h1l2-2h1l1-1h1l1-1h1l2-2h1l1-1h1l1-1h1l1-1h1l1-1h1l2-2h1l1-1h1l1-1h1l2-2h1l1-1h1l1-1h1l1-1h1l1-1h1l1-1h1l1-1h1l2-2h1l1-1h1l1-1h1l1-1h1l2-2h1l1-1h1l1-1h1l1-1h1l2-2h1l1-1h1l1-1h1l1-1h1l2-2h1l1-1h1l1-1h1l1-1h1l1-1h1l1-1h1l2-2h1l1-1h1l1-1h1l1-1h1l2-2h1l1-1h1l1-1h1l1-1h1l2-2h1l1-1h1l1-1h1l1-1h1l2-2h2l2-2h1l1-1h1l1-1h1l1-1h1l2-2h1l1-1h1l1-1h1l1-1h1l2-2h1l1-1h1l1-1h1l1-1h1l2-2h1l1-1h1l1-1h1l1-1h1l1-1h1l1-1h1l2-2h1l1-1h1l1-1h1l1-1h1l2-2h1l1-1h1l1-1h1l1-1h1l2-2h1l1-1h1l1-1h1l1-1h1l2-2h1l1-1h1l1-1h1l1-1h1l1-1h1l1-1h1l2-2h1l1-1h1l1-1h1l1-1h1l2-2h1l1-1h1l1-1h1l1-1h1l2-2h1l1-1h1l1-1h1l1-1h1l1-1h1l2-2h1l1-1h1l1-1h1l1-1h1l1-1h1l2-2h1l1-1h1l1-1h1l1-1h1l1-1h1l2-2h1l1-1h1l1-1h1l1-1h1l2-2h1l1-1h1l1-1h1l1-1h1l2-2h1l1-1h1l1-1h1l1-1h1l1-1h1l1-1h1l2-2h1l1-1h1l1-1h1l1-1h1l2-2h1l1-1h1l1-1h1l1-1h1l2-2h1l1-1h1l1-1h1l1-1h1l2-2h1l1-1h1l1-1h1l1-1h1l1-1h1l1-1h1l2-2h1l1-1h1l1-1h1l1-1h1l2-2h1l1-1h1l1-1h1l1-1h1l2-2h1l1-1h1l1-1h1l1-1h1l1-1h1l2-2h1l1-1h1l1-1h1l1-1h1l1-1h1l2-2h1l1-1h1l1-1h1l1-1h1l1-1h1l2-2h2l1-1h2l1-1h1l1-1h2l1-1h3l1-1h2l1-1h3l1-1h3l1-1h5l1-1h9Z"/>
    <path class="cls-6" d="M281.7,809.84l-1,1h-1v6l1,1v2l2,2h2l1,1h1l1-1h1l1-1v-5l-1-1v-1l-1-1v-1l-1-1h-1l-1-1h-3Z"/>
    <path class="cls-6" d="M281.7,809.84h3l3,3v1l2,2v4l-3,3h-1l-1-1h-1l-3-3v-1l-1-1v-5l2-2Z"/>
    <path class="cls-6" d="M267.7,802.84l-1,1v6l1,1v1l3,3h5v-1l1-1v-5l-1-1v-1l-3-3h-5Z"/>
    <path class="cls-6" d="M268.7,802.84h3l5,5v4l-1,1v1l-1,1h-3l-5-5v-5l2-2Z"/>
    <path class="cls-6" d="M254.7,794.84l-1,1v6l1,1v2l2,2h2l1,1h1l1-1h1l1-1v-6l-2-2v-1l-1-1h-1l-1-1h-4Z"/>
    <path class="cls-6" d="M255.7,794.84h2l1,1h1l2,2v1l2,2v4l-3,3h-1l-1-1h-1l-3-3v-1l-1-1v-5l2-2Z"/>
    <path class="cls-6" d="M224.7,774.84l-2,2v2l-1,1v3l1,1v3l1,1v1l5,5h7l1-1v-2l1-1v-4l-1-1v-2l-1-1v-1l-1-1v-1l-3-3h-2l-1-1h-4Z"/>
    <path class="cls-6" d="M225.7,774.84h3l1,1h1l4,4v1l1,1v1l1,1v1l1,1v4l-1,1v1l-2,2h-5l-6-6v-1l-1-1v-2l-1-1v-3l1-1v-1l3-3Z"/>
    <path class="cls-6" d="M169.7,741.84l-1,1h-1l-1,1v2l-1,1v4l1,1v2l1,1v2l6,6h1l1,1h1l2,2h1l1,1h1l1,1h1l1,1h1l2,2h1l1,1h1l2,2h1l1,1h1l1,1h1l2,2h1l1,1h1l2,2h1l1,1h1l1,1h2l1,1h1l1-1h2l1-1v-2l1-1v-5l-1-1v-3l-1-1v-1l-4-4h-1l-2-2h-1l-1-1h-1l-2-2h-1l-1-1h-1l-1-1h-1l-2-2h-1l-1-1h-1l-1-1h-1l-2-2h-1l-1-1h-1l-1-1h-1l-2-2h-1l-1-1h-1l-1-1h-1l-2-2h-2l-1-1h-3Z"/>
    <path class="cls-6" d="M169.7,741.84h3l1,1h1l2,2h1l1,1h1l1,1h1l2,2h1l1,1h1l1,1h1l2,2h1l1,1h1l1,1h1l2,2h1l1,1h1l1,1h1l2,2h1l1,1h1l2,2h1l5,5v1l1,1v2l1,1v5l-1,1v1l-2,2h-1l-1,1h-1l-1-1h-1l-1-1h-1l-1-1h-1l-2-2h-1l-1-1h-1l-2-2h-1l-1-1h-1l-1-1h-1l-2-2h-1l-1-1h-1l-2-2h-1l-1-1h-1l-1-1h-1l-1-1h-1l-2-2h-1l-1-1h-1l-7-7v-1l-1-1v-2l-1-1v-4l1-1v-1l3-3Z"/>
    <path class="cls-6" d="M170.7,747.84v4l1,1v2l3,3h1l1,1h1l1,1h1l2,2h1l1,1h1l2,2h1l1,1h1l1,1h1l2,2h1l1,1h1l2,2h1l1,1h1l2,2h1l1,1h1l1,1h1l1,1h3v-5l-1-1v-1l-1-1v-1h-1l-2-2h-1l-1-1h-1l-2-2h-1l-1-1h-1l-1-1h-1l-2-2h-1l-1-1h-1l-1-1h-1l-2-2h-1l-1-1h-1l-1-1h-1l-2-2h-1l-1-1h-1l-1-1h-1l-2-2h-4Z"/>
    <path class="cls-6" d="M170.7,748.84l1-1h2l2,2h1l1,1h1l1,1h1l2,2h1l1,1h1l1,1h1l2,2h1l1,1h1l1,1h1l2,2h1l1,1h1l1,1h1l2,2h1l1,1h1l2,2h1l1,1v1l2,2v4l-1,1h-1l-1-1h-1l-1-1h-1l-1-1h-1l-2-2h-1l-1-1h-1l-2-2h-1l-1-1h-1l-1-1h-1l-2-2h-1l-1-1h-1l-2-2h-1l-1-1h-1l-2-2h-1l-1-1h-1l-1-1h-1l-4-4v-1l-1-1v-3Z"/>
    <path class="cls-6" d="M150.7,730.84l-1,1h-2l-1,1v3l-1,1v2l1,1v3l2,2v1l4,4h2l1,1h1l1-1h2l2-2v-6l-1-1v-2l-1-1v-1l-1-1v-1l-2-2h-1l-1-1h-2l-1-1h-1Z"/>
    <path class="cls-6" d="M149.7,731.84l1-1h1l1,1h1l1,1h1l3,3v1l1,1v1l1,1v1l1,1v5l-3,3h-1l-1,1h-1l-1-1h-1l-5-5v-1l-2-2v-2l-1-1v-2l1-1v-2l2-2h1Z"/>
    <path class="cls-6" d="M123.7,717.84l-1,1h-2v2l-1,1,1,1v3l1,1v1l3,3h4l2-2v-4l-1-1v-2l-3-3h-1l-1-1h-1Z"/>
    <path class="cls-6" d="M122.7,718.84l1-1h1l1,1h1l2,2v1l1,1v1l1,1v3l-3,3h-2l-4-4v-1l-1-1v-2l-1-1,1-1v-1l1-1h1Z"/>
    <path class="cls-6" d="M630.7,716.84l-1,1h-2l-1,1h-1l-1,1h-1l-2,2h-1l-1,1h-1l-1,1h-1l-1,1h-1l-2,2h-1l-1,1h-1l-1,1h-1l-1,1h-1l-2,2h-1l-1,1h-1l-1,1h-1l-1,1h-1l-1,1h-1l-2,2h-1l-1,1h-1l-1,1h-1l-1,1h-1l-1,1h-1l-2,2h-1l-1,1h-1l-1,1h-1l-1,1h-1l-2,2h-1l-1,1h-1l-1,1h-1l-1,1h-1l-2,2h-1l-1,1h-1l-1,1h-1l-1,1h-1l-1,1h-1l-2,2h-1l-4,4v1l-1,1v1l-1,1v3l-1,1v3l1,1v2l2,2h6l1-1h1l1-1h1l1-1h1l1-1h1l1-1h1l2-2h1l1-1h1l1-1h1l1-1h1l2-2h1l1-1h1l1-1h1l1-1h1l2-2h1l1-1h1l1-1h1l1-1h1l1-1h1l2-2h1l1-1h1l1-1h1l1-1h1l1-1h1l2-2h1l1-1h1l1-1h1l1-1h1l2-2h1l1-1h1l1-1h1l1-1h1l1-1h1l2-2h1l1-1h1l1-1h1l5-5v-1l1-1v-1l1-1v-3l1-1v-3l-1-1v-2l-2-2h-5Z"/>
    <path class="cls-6" d="M631.7,719.84l1-1,3,3v4l-1,1v2l-7,7h-1l-1,1h-1l-1,1h-1l-2,2h-1l-1,1h-1l-1,1h-1l-1,1h-1l-2,2h-1l-1,1h-1l-1,1h-1l-1,1h-1l-1,1h-1l-2,2h-1l-1,1h-1l-1,1h-1l-1,1h-1l-1,1h-1l-2,2h-1l-1,1h-1l-1,1h-1l-1,1h-1l-2,2h-1l-1,1h-1l-1,1h-1l-1,1h-1l-2,2h-1l-1,1h-1l-1,1h-1l-1,1h-1l-2,2h-1l-1,1h-1l-2,2h-1l-1-1,3-3v-3l1-1v-1l-1-1v-1l-1-1h-2,1l3,3v1l-1,1v2l-1,1v1l-2,2,1,1-2,2h-1l-1,1h-3l-2-2v-1l1-1,2,2h1l1-1h1-1l-1,1h-1l-2-2v-2,2l-1,1v1l2,2h3l1,1-1,1h-4l-3-3v-1l-1-1v-3l1-1v-2l1-1v-1l1-1v-1l5-5h1l1,1-2,2v1h1l-1-1,2-2h2l1-1h1l1-1h1l1-1h1l1-1h1l2-2h1l1-1h1l1-1h1l1-1h1l2-2h1l1-1h1l1-1h1l1-1h1l1-1h1l2-2h1l1-1h1l1-1h1l1-1h1l1-1h1l2-2h1l1-1h1l1-1h1l1-1h1l2-2h1l1-1h1l1-1h1l1-1h1l2-2h1l1-1h1l1-1h1l1-1h1l1-1h1l2-2h1l1-1h1l1-1h1Z"/>
    <path class="cls-6" d="M629.7,717.84l1-1h4l3,3v1l1,1v3l-1,1v3l-2,2v1l-6,6h-1l-1,1h-1l-1,1h-1l-2,2h-1l-1,1h-1l-1,1h-1l-1,1h-1l-1,1h-1l-2,2h-1l-1,1h-1l-1,1h-1l-1,1h-1l-2,2h-1l-1,1h-1l-1,1h-1l-1,1h-1l-1,1h-1l-2,2h-1l-1,1h-1l-1,1h-1l-1,1h-1l-2,2h-1l-1,1h-1l-1,1h-1l-1,1h-1l-1,1h-1l-2,2h-1l-1,1h-1l-1,1h-1l-1,1h-1l-2,2h-1l-1,1h-1l-1,1h-1l-1,1h-1l-1-1,2-2h1l1-1h1l1-1h1l2-2h1l1-1h1l1-1h1l1-1h1l2-2h1l1-1h1l1-1h1l1-1h1l1-1h1l2-2h1l1-1h1l1-1h1l1-1h1l2-2h1l1-1h1l1-1h1l1-1h1l1-1h1l2-2h1l1-1h1l1-1h1l1-1h1l2-2h1l1-1h1l1-1h1l1-1h1l1-1h1l2-2h1l1-1h1l1-1h1l5-5v-1l1-1v-2l1-1v-4l-1-1v-1h-1l-1-1-1,1h-2l-1,1h-1l-1,1h-1l-2,2h-1l-1,1h-1l-1,1h-1l-1,1h-1l-2,2h-1l-1,1h-1l-1,1h-1l-1,1h-1l-1,1h-1l-2,2h-1l-1,1h-1l-1,1h-1l-1,1h-1l-2,2h-1l-1,1h-1l-1,1h-1l-1,1h-1l-1,1h-1l-2,2h-1l-1,1h-1l-1,1h-1l-1,1h-1l-2,2h-1l-1,1h-1l-1,1h-1l-1,1h-1l-1,1h-1l-2,2h-1l-1,1h-1l-1,1h-1l-1,1h-1l-1,1h-1l-1-1,2-2h1l1-1h1l1-1h1l1-1h1l2-2h1l1-1h1l1-1h1l1-1h1l1-1h1l2-2h1l1-1h1l1-1h1l1-1h1l2-2h1l1-1h1l1-1h1l1-1h1l1-1h1l2-2h1l1-1h1l1-1h1l1-1h1l2-2h1l1-1h1l1-1h1l1-1h1l1-1h1l2-2h1l1-1h1l1-1h1l1-1h1l2-2h1l1-1h1l1-1h1Z"/>
    <path class="cls-6" d="M108.7,710.84l-1,1v2l-1,1,1,1v3l2,2v1h1l1,1h5v-1l1-1v-4l-1-1v-1l-1-1v-1l-2-2h-5Z"/>
    <path class="cls-6" d="M109.7,710.84h3l4,4v1l1,1v4l-2,2h-3l-1-1h-1l-2-2v-1l-1-1v-2l-1-1,1-1v-1l2-2Z"/>
    <path class="cls-6" d="M96.7,702.84l-1,1h-1v2l-1,1v1l1,1v2l1,1v1l2,2h1l1,1h3l2-2v-4l-1-1v-2l-3-3h-1l-1-1h-2Z"/>
    <path class="cls-6" d="M96.7,702.84h2l2,2h1l1,1v1l1,1v1l1,1v3l-3,3h-2l-4-4v-1l-1-1v-1l-1-1v-1l1-1v-1l2-2Z"/>
    <path class="cls-6" d="M82.7,695.84l-1,1v1l-1,1v1l1,1v3l1,1v1l1,1h1l1,1h4l1-1v-1l1-1v-3l-1-1v-1l-1-1v-1l-2-2h-5Z"/>
    <path class="cls-6" d="M83.7,695.84h3l4,4v1l1,1v3l-3,3h-2l-1-1h-1l-2-2v-1l-1-1v-2l-1-1v-1l3-3Z"/>
    <path class="cls-6" d="M69.7,687.84l-1,1v2l-1,1,1,1v3l1,1v1l2,2h1l1,1h3l2-2v-4l-1-1v-2l-3-3h-1l-1-1h-3Z"/>
    <path class="cls-6" d="M70.7,687.84h2l1,1h1l1,1v1l2,2v1l1,1v3l-3,3h-2l-4-4v-1l-1-1v-2l-1-1,1-1v-1l2-2Z"/>
    <path class="cls-6" d="M895.7,596.84l-1,1h-2l-1,1h-1l-1,1h-1l-1,1h-1l-2,2h-1l-1,1h-1l-1,1h-1l-1,1h-1l-2,2h-1l-1,1h-1l-1,1h-1l-1,1h-1l-1,1h-1l-1,1h-1l-2,2h-1l-1,1h-1l-1,1h-1l-1,1h-1l-2,2h-1l-1,1h-1l-1,1h-1l-1,1h-1l-1,1h-1l-2,2h-1l-1,1h-1l-1,1h-1l-1,1h-1l-2,2h-1l-1,1h-1l-1,1h-1l-1,1h-1l-1,1h-1l-2,2h-1l-1,1h-1l-1,1h-1l-1,1h-1l-1,1h-1l-2,2h-1l-1,1h-1l-1,1h-1l-1,1h-1l-2,2h-1l-1,1h-1l-1,1h-1l-1,1h-1l-2,2h-1l-1,1h-1l-1,1h-1l-1,1h-1l-1,1h-1l-2,2h-1l-1,1h-1l-1,1h-1l-1,1h-1l-1,1h-1l-2,2h-1l-1,1h-1l-1,1h-1l-1,1h-1l-2,2h-1l-1,1h-1l-1,1h-1l-1,1h-1l-2,2h-1l-1,1h-1l-1,1h-1l-1,1h-1l-1,1h-1l-2,2h-1l-1,1h-1l-1,1h-1l-1,1h-1l-1,1h-1l-2,2h-1l-1,1h-1l-1,1h-1l-1,1h-1l-2,2h-1l-1,1h-1l-1,1h-1l-1,1h-1l-1,1h-1l-2,2h-1l-1,1h-1l-1,1h-1l-1,1h-1l-1,1h-1l-2,2h-1l-1,1h-1l-1,1h-1l-1,1h-1l-2,2h-1l-1,1h-1l-1,1h-1l-1,1h-1l-2,2h-1l-1,1h-1l-1,1h-1l-1,1h-1l-1,1h-1l-2,2h-1l-1,1h-1l-1,1h-1l-1,1h-1l-1,1h-1l-2,2h-1l-1,1h-1l-1,1h-1l-1,1h-1l-2,2h-1l-1,1h-1l-1,1h-1l-1,1h-1l-2,2h-1l-1,1h-1l-1,1h-1l-1,1h-1l-1,1h-1l-2,2h-1l-1,1h-1l-1,1h-1l-1,1h-1l-1,1h-1l-2,2h-1l-1,1h-1l-1,1h-1l-1,1h-1l-2,2h-1l-1,1h-1l-1,1h-1l-1,1h-1l-1,1h-1l-2,2h-1l-1,1h-1l-1,1h-1l-1,1h-1l-1,1h-1l-2,2h-1l-1,1h-1l-1,1h-1l-1,1h-1l-2,2h-1l-1,1h-1l-1,1h-1l-1,1h-1l-2,2h-1l-1,1h-1l-1,1h-1l-1,1h-1l-1,1h-1l-2,2h-1l-1,1h-1l-1,1h-1l-1,1h-1l-2,2h-1l-1,1h-1l-1,1h-1l-1,1h-1l-1,1h-1l-1,1h-1l-2,2h-1l-1,1h-1l-1,1h-1l-1,1h-1l-2,2h-1l-1,1h-1l-1,1h-1l-1,1h-1l-2,2h-1l-1,1h-1l-1,1h-1l-1,1h-1l-1,1h-1l-2,2h-1l-1,1h-1l-1,1h-1l-1,1h-1l-1,1h-1l-2,2h-1l-1,1h-1l-1,1h-1l-1,1h-1l-2,2h-1l-1,1h-1l-1,1h-1l-1,1h-1l-2,2h-1l-1,1h-1l-1,1h-1l-1,1h-1l-1,1h-1l-1,1h-1l-2,2h-1l-1,1h-1l-1,1h-1l-1,1h-1l-2,2h-1l-1,1h-1l-1,1h-1l-1,1h-1l-2,2h-1l-1,1h-1l-1,1h-1l-1,1h-1l-1,1h-1l-2,2h-1l-1,1h-1l-1,1h-1l-1,1h-1l-1,1h-1l-1,1h-1l-2,2h-2l-1,1h-2l-1,1h-2l-1,1h-2l-1,1h-3l-1,1h-4l-1,1h-5l-1,1h-5l-1,1h-32l-1-1h-5l-1-1h-5l-1-1h-4l-1-1h-3l-1-1h-2l-1-1h-3l-1-1h-1l-1-1h-2l-1-1h-1l-1-1h-2l-2-2h-2l-2-2h-1l-1-1h-1l-1-1h-1l-2-2h-1l-1-1h-1l-1-1h-1l-2-2h-1l-1-1h-1l-2-2h-1l-1-1h-1l-1-1h-1l-2-2h-1l-1-1h-1l-1-1h-1l-2-2h-1l-1-1h-1l-2-2h-1l-1-1h-1l-1-1h-1l-2-2h-1l-1-1h-1l-1-1h-1l-2-2h-1l-1-1h-1l-2-2h-1l-1-1h-1l-1-1h-1l-2-2h-1l-1-1h-1l-1-1h-1l-2-2h-1l-1-1h-1l-1-1h-1l-2-2h-1l-1-1h-1l-1-1h-1l-2-2h-1l-1-1h-1l-1-1h-1l-2-2h-1l-1-1h-1l-2-2h-1l-1-1h-1l-1-1h-1l-2-2h-1l-1-1h-1l-2-2h-1l-1-1h-1l-1-1h-1l-2-2h-1l-1-1h-1l-1-1h-1l-2-2h-1l-1-1h-1l-1-1h-1l-2-2h-1l-1-1h-1l-1-1h-1l-2-2h-1l-1-1h-1l-2-2h-1l-1-1h-1l-1-1h-1l-2-2h-1l-1-1h-1l-2-2h-1l-1-1h-1l-1-1h-1l-1-1h-1l-2-2h-1l-1-1h-1l-2-2h-1l-1-1h-1l-1-1h-1l-2-2h-1l-1-1h-1l-1-1h-1l-2-2h-1l-1-1h-1l-2-2h-1l-1-1h-1l-1-1h-1l-2-2h-1l-1-1h-1l-1-1h-1l-2-2h-1l-1-1h-1l-1-1h-1l-2-2h-1l-1-1h-1l-1-1h-1l-2-2h-1l-1-1h-1l-1-1h-1l-2-2h-1l-1-1h-1l-2-2h-1l-1-1h-1l-1-1h-1l-2-2h-1l-1-1h-1l-2-2h-1l-1-1h-1l-1-1h-1l-1-1h-1l-2-2h-1l-1-1h-1l-2-2h-1l-1-1h-1l-1-1h-1l-2-2h-1l-1-1h-1l-2-2h-1l-1-1h-1l-2-2h-1l-3-3h-1l-8-8v-1l-3-3v-1l-1-1v-1l-1-1v-1l-1-1v-2l-1-1v-24,24l1,1v2l1,1v2l1,1v1l2,2v1l2,2v1l7,7h1l3,3h1l2,2h1l1,1h1l2,2h1l1,1h1l1,1h1l2,2h1l1,1h1l2,2h1l1,1h1l2,2h2l2,2h1l1,1h1l2,2h1l1,1h1l2,2h1l1,1h1l1,1h1l1,1h1l2,2h1l1,1h1l2,2h1l1,1h1l1,1h1l2,2h1l1,1h1l2,2h1l1,1h1l1,1h1l2,2h1l1,1h1l1,1h1l2,2h1l1,1h1l1,1h1l2,2h1l1,1h1l1,1h1l2,2h1l1,1h1l2,2h1l1,1h1l1,1h1l2,2h1l1,1h1l1,1h1l2,2h1l1,1h1l1,1h1l2,2h1l1,1h1l2,2h1l1,1h1l1,1h1l2,2h1l1,1h1l1,1h1l2,2h1l1,1h1l2,2h1l1,1h1l1,1h1l2,2h1l1,1h1l1,1h1l2,2h1l1,1h1l1,1h1l2,2h1l1,1h1l2,2h1l1,1h1l1,1h1l2,2h1l1,1h1l1,1h1l2,2h1l1,1h1l1,1h1l2,2h1l1,1h1l2,2h1l1,1h1l1,1h1l2,2h1l1,1h1l1,1h1l2,2h1l1,1h1l1,1h1l2,2h1l1,1h1l1,1h1l2,2h1l1,1h1l2,2h1l1,1h1l1,1h1l2,2h1l1,1h1l1,1h1l2,2h1l1,1h1l2,2h1l1,1h1l1,1h1l2,2h1l1,1h1l1,1h1l2,2h1l1,1h1l1,1h1l2,2h1l1,1h1l1,1h1l1,1h1l1,1h1l1,1h1l1,1h2l1,1h2l1,1h1l1,1h3l1,1h2l1,1h3l1,1h4l1,1h5l1,1h5l1,1h32l1-1h5l1-1h5l1-1h4l1-1h3l1-1h2l1-1h2l1-1h2l1-1h2l1-1h1l1-1h1l1-1h1l1-1h1l1-1h1l1-1h1l2-2h1l1-1h1l1-1h1l1-1h1l1-1h1l2-2h1l1-1h1l1-1h1l1-1h1l1-1h1l2-2h1l1-1h1l1-1h1l1-1h1l2-2h1l1-1h1l1-1h1l1-1h1l1-1h1l2-2h1l1-1h1l1-1h1l1-1h1l1-1h1l2-2h1l1-1h1l1-1h1l1-1h1l2-2h1l1-1h1l1-1h1l1-1h1l2-2h1l1-1h1l1-1h1l1-1h1l1-1h1l2-2h1l1-1h1l1-1h1l1-1h1l1-1h1l2-2h1l1-1h1l1-1h1l1-1h1l2-2h1l1-1h1l1-1h1l1-1h1l1-1h1l2-2h1l1-1h1l1-1h1l1-1h1l2-2h1l1-1h1l2-2h2l1-1h1l2-2h1l1-1h1l1-1h1l1-1h1l1-1h1l2-2h1l1-1h1l1-1h1l1-1h1l2-2h1l1-1h1l1-1h1l1-1h1l1-1h1l2-2h1l1-1h1l1-1h1l1-1h1l1-1h1l2-2h1l1-1h1l1-1h1l1-1h1l2-2h1l1-1h1l1-1h1l1-1h1l1-1h1l2-2h1l1-1h1l1-1h1l1-1h1l2-2h1l1-1h1l1-1h1l1-1h1l1-1h1l2-2h1l1-1h1l1-1h1l1-1h1l2-2h1l1-1h1l1-1h1l1-1h1l1-1h1l2-2h1l1-1h1l1-1h1l1-1h1l2-2h1l1-1h1l1-1h1l1-1h1l1-1h1l2-2h1l1-1h1l1-1h1l1-1h1l2-2h1l1-1h1l1-1h1l1-1h1l1-1h1l2-2h1l1-1h1l1-1h1l1-1h1l2-2h1l1-1h1l1-1h1l1-1h1l1-1h1l2-2h1l1-1h1l1-1h1l1-1h1l2-2h1l1-1h1l1-1h1l1-1h1l1-1h1l2-2h1l1-1h1l1-1h1l1-1h1l1-1h1l2-2h1l1-1h1l1-1h1l1-1h1l2-2h1l1-1h1l1-1h1l1-1h1l1-1h1l2-2h1l1-1h1l1-1h1l1-1h1l2-2h1l1-1h1l1-1h1l1-1h1l1-1h1l2-2h1l1-1h1l1-1h1l1-1h1l2-2h1l1-1h1l1-1h1l1-1h1l1-1h1l2-2h1l1-1h1l1-1h1l1-1h1l2-2h1l1-1h1l1-1h1l1-1h1l1-1h1l2-2h1l1-1h1l1-1h1l1-1h1l1-1h1l2-2h1l1-1h1l1-1h1l1-1h1l2-2h1l1-1h1l1-1h1l1-1h1l1-1h1l2-2h1l1-1h1l1-1h1l1-1h1l1-1h1l2-2h1l1-1h1l1-1h1l1-1h1l1-1Z"/>
    <path class="cls-6" d="M950.7,548.84l-1,1h-1l-1,1h-1l-1,1h-1l-1,1h-1l-2,2h-1l-1,1h-1l-1,1h-1l-1,1h-1l-1,1h-1l-2,2h-1l-1,1h-1l-1,1h-1l-1,1h-1l-1,1h-1l-2,2h-1l-1,1h-1l-1,1h-1l-1,1h-1l-2,2h-1l-1,1h-1l-1,1h-1l-1,1h-1l-1,1h-1l-2,2h-1l-2,2v1l-2,2v2l-1,1v6l1,1h3l1-1h1l1-1h1l1-1h1l1-1h1l2-2h1l1-1h1l1-1h1l1-1h1l1,1-1-1,2-2h1l1-1h1l1-1h1l1-1h1l1-1h1l1-1h1l1,1-1-1,2-2h1l1-1h1l1-1h1l1,1-1-1,2-2h1l1-1h1l1-1h1l1-1h1l2-2h1l1-1h1l1-1h1l1-1h1l1,1-1,1,1-1-1-1,2-2v-1l1-1v-2l1-1v-6l-1-1h-4Z"/>
    <path class="cls-6" d="M950.7,549.84l1-1h2l2,2v5l-1,1v1l-1,1v1l-3,3h-1l-1,1h-1l-1,1h-1l-1,1h-1l-2,2h-1l-1,1h-1l-1,1h-1l-1,1h-1l-2,2h-1l-1,1h-1l-1,1h-1l-2,2h-1l-1,1h-1l-1,1h-1l-1,1h-1l-1,1h-1l-1,1h-1l-2,2h-1l-1,1h-1l-1,1h-1l-1,1h-1l-2,2h-1l-1,1h-1l-1,1h-1l-1,1h-1l-1,1h-1l-2-2v-5l1-1v-1l2-2v-1l3-3h1l2-2h1l1-1h1l1-1h1l1-1h1l1-1h1l2-2h1l1-1h1l1-1h1l2-2h1l1-1h1l1-1h1l1-1h1l1-1h1l2-2h1l1-1h1l1-1h1l1-1h1l1-1h1l1-1h1l2-2h1l1-1h1l1-1h1l1-1h1Z"/>
    <path class="cls-6" d="M947.7,542.84l-1,1h-2l-1,1h-1l-1,1h-1l-1,1h-1l-2,2h-1l-1,1h-1l-1,1h-1l-1,1h-1l-1,1h-1l-2,2h-1l-1,1h-1l-1,1h-1l-1,1h-1l-2,2h-1l-1,1h-1l-1,1h-1l-1,1h-1l-2,2h-1l-1,1h-1l-1,1h-1l-1,1h-1l-1,1h-1l-1,1h-1l-2,2h-1l-1,1h-1l-3,3v1l-1,1v1l-1,1v2l-1,1v8l2,2h1l2,2h1l1,1h1l-1-1h-1l-2-2h-1l-3-3v-7l1-1v-1l1-1v-1l1-1v-1l4-4h1l1-1h1l2-2h1l1-1h1l1-1h1l1-1h1l1-1h1l2-2h1l1-1h1l1-1h1l1-1h1l2-2h1l1-1h1l1-1h1l1-1h1l1-1h1l2-2h1l1-1h1l1-1h1l1-1h1l1-1h1l2-2h1l1-1h1l1-1h1l1-1h1l1-1h2l2,2h1l1,1h1l3,3v1l1,1v4l-1,1v2l-1,1v1l-1,1v1l-1,1,1,1-1,1,1-1v-2l1-1v-2l1-1v-2l1-1v-4l-1-1v-2l-2-2h-1l-1-1h-1l-1-1h-1l-1-1h-2Z"/>
    <path class="cls-6" d="M1028.7,505.84l-1,1h-1l-1,1h-1l-1,1h-1l-2,2h-1l-1,1h-1l-1,1h-1l-1,1h-1l-1,1h-1l-2,2h-1l-1,1h-1l-1,1h-1l-1,1h-1l-2,2h-1l-1,1h-1l-1,1h-1l-1,1h-1l-1,1h-1l-2,2h-1l-1,1h-1l-1,1h-1l-1,1h-1l-2,2h-1l-1,1h-1l-5,5v2l-1,1v2l-1,1v2l1,1v1l1,1h3l1-1h2l1-1h1l1-1h1l2-2h1l1-1h1l1-1h1l1-1h1l2-2h1l1-1h1l1-1h1l1-1h1l2-2h1l1-1h1l1-1h1l1-1h1l2-2h1l1-1h1l1-1h1l1-1h1l2-2h1l1-1h1l1-1h1l1-1h1l1-1h1l2-2v-1l1-1v-1l1-1v-2l1-1v-4l-1-1v-1h-5Z"/>
    <path class="cls-6" d="M1028.7,506.84l1-1h3l2,2v4l-1,1v2l-2,2v1l-3,3h-1l-1,1h-1l-1,1h-1l-1,1h-1l-1,1h-1l-2,2h-1l-1,1h-1l-1,1h-1l-1,1h-1l-2,2h-1l-1,1h-1l-1,1h-1l-1,1h-1l-2,2h-1l-1,1h-1l-1,1h-1l-1,1h-1l-2,2h-1l-1,1h-1l-1,1h-1l-1,1h-1l-2,2h-1l-1,1h-1l-1,1h-1l-1,1h-2l-3-3v-2l1-1v-2l1-1v-1l6-6h1l1-1h1l2-2h1l1-1h1l1-1h1l1-1h1l2-2h1l1-1h1l1-1h1l1-1h1l2-2h1l1-1h1l1-1h1l1-1h1l1-1h1l2-2h1l1-1h1l1-1h1l1-1h1l1-1h1l2-2h1l1-1h1l1-1h1Z"/>
    <path class="cls-6" d="M1087.7,465.84l-1,1h-2l-1,1h-1l-1,1h-1l-2,2h-1l-1,1h-1l-1,1h-1l-1,1h-1l-2,2h-1l-1,1h-1l-1,1h-1l-1,1h-1l-1,1h-1l-3,3v2l-1,1v11l1,1h1l1,1h1l1-1h2l2-2h1l1-1h1l1-1h1l1-1h1l2-2h1l1-1h1l1-1h1l1-1h1l2-2h1l1-1h1l1-1h1v-1l2-2v-1l2-2v-1l1-1v-2l1-1v-2l-1-1v-1l-2-2h-2l-1-1h-1Z"/>
    <path class="cls-6" d="M1086.7,466.84l1-1h1l1,1h1l4,4v2l-1,1v1l-1,1v1l-2,2v1l-2,2v1l-1,1h-1l-2,2h-2l-2,2h-1l-1,1h-1l-1,1h-1l-1,1h-1l-2,2h-1l-1,1h-1l-1,1h-1l-1,1h-1l-2,2h-1l-1,1h-1l-3-3v-10l1-1v-1l4-4h1l1-1h1l1-1h1l1-1h1l1-1h1l2-2h1l1-1h1l1-1h1l1-1h1l2-2h1l1-1h1l1-1h1Z"/>
    <path class="cls-6" d="M1088.7,470.84l-1,1h-1l-1,1h-1l-1,1h-1l-2,2h-1l-1,1h-1l-1,1h-1l-1,1h-1l-1,1h-1l-2,2h-1l-1,1h-1l-1,1h-1l-2,2v1l-1,1v3h3l1-1h1l1-1h1l1-1h1l2-2h1l1-1h1l1-1h1l1-1h1l2-2h1l1-1h1l1-1h1l2-2h1l1-1v-1l1-1v-3h-3Z"/>
    <path class="cls-6" d="M1088.7,471.84l1-1h1l1,1v1l-1,1v1l-2,2h-1l-2,2h-1l-1,1h-1l-1,1h-1l-2,2h-1l-1,1h-1l-1,1h-1l-1,1h-1l-2,2h-1l-1,1h-1l-1,1h-1l-1,1h-1l-1-1v-2l4-4h1l1-1h1l1-1h1l2-2h1l1-1h1l1-1h1l1-1h1l1-1h1l2-2h1l1-1h1l1-1h1Z"/>
    <path class="cls-6" d="M1130.7,429.84v1l-2,2v1l-9,9h-1l-3,3h-1l-2,2h-1l-1,1h-1l-1,1h-1l-1,1h-1l-2,2h-1l-1,1h-1l-1,1h-1l-1,1h-1l-2,2h-1l-1,1h-1l-1,1h-1l-1,1h-1l-2,2h-1l-1,1h-1l-1,1h-1l-1,1h-1l-1,1h-1l-2,2h-1l-1,1h-1l-1,1h-1l-1,1h-1l-1,1h-1l-2,2h-1l-1,1h-1l-1,1h-1l-1,1h-1l-2,2h-1l-1,1h-1l-1,1h-1l-1,1h-1l-2,2h-1l-1,1h-1l-1,1h-1l-1,1h-1l-1,1h-1l-2,2h-1l-1,1h-1l-1,1h-1l-1,1h-1l-1,1h-1l-2,2h-1l-1,1h-1l-1,1h-1l-1,1h-1l-2,2h-1l-1,1h-1l-1,1h-1l-1,1h-1l-1,1h-1l-2,2h-1l-1,1h-1l-1,1h-1l-1,1h-1l-1,1h-1l-2,2h-1l-1,1h-1l-1,1h-1l-1,1h-1l-1,1h-1l-2,2h-1l-1,1h-1l-1,1h-1l-1,1h-1l-2,2h-1l-1,1h-1l-1,1h-1l-2,2h-1l-1,1h-1l-1,1h-1l-1,1h-1l-1,1h-1l-1,1h-1l-2,2h-1l-1,1h-1l-1,1h-1l-1,1h-1l-1,1h-1l-2,2h-1l-1,1h-1l-1,1h-1l-2,2h-1l-1,1h-1l-1,1h-1l-1,1h-1l-1,1h-1l-1,1h-1l-2,2h-1l-1,1h-1l-1,1h-1l-1,1h-1l-2,2h-1l-1,1h-1l-1,1h-1l-1,1h-1l-1,1h-1l-2,2h-1l-1,1h-1l-1,1h-1l-1,1h-1l-1,1h-1l-2,2h-1l-1,1h-1l-1,1h-1l-1,1h-1l-2,2h-1l-1,1h-1l-1,1h-1l-1,1h-1l-1,1h-1l-2,2h-1l-1,1h-1l-1,1h-1l-1,1h-1l-2,2h-1l-1,1h-1l-1,1h-1l-1,1h-1l-1,1h-1l-2,2h-1l-1,1h-1l-1,1h-1l-1,1h-1l-2,2h-1l-1,1h-1l-1,1h-1l-1,1h-1l-1,1h-1l-2,2h-1l-1,1h-1l-1,1h-1l-1,1h-1l-2,2h-1l-1,1h-1l-1,1h-1l-1,1h-1l-1,1h-1l-2,2h-1l-1,1h-1l-1,1h-1l-1,1h-1l-2,2h-1l-1,1h-1l-1,1h-1l-1,1h-1l-1,1h-1l-2,2h-1l-1,1h-1l-1,1h-1l-1,1h-1l-2,2h-1l-1,1h-1l-1,1h-1l-1,1h-1l-1,1h-1l-2,2h-1l-1,1h-1l-1,1h-1l-1,1h-1l-1,1h-1l-2,2h-1l-1,1h-1l-1,1h-1l-1,1h-1l-1,1h-1l-2,2h-1l-1,1h-1l-1,1h-1l-1,1h-1l-2,2h-1l-1,1h-1l-1,1h-1l-1,1h-1l-2,2h-1l-1,1h-1l-1,1h-1l-1,1h-1l-1,1h-1l-2,2h-1l-1,1h-1l-1,1h-1l-1,1h-1l-1,1h-1l-2,2h-1l-1,1h-1l-1,1h-1l-2,2h-1l-1,1h-1l-1,1h-1l-1,1h-1l-1,1h-1l-1,1h-1l-2,2h-1l-1,1h-1l-1,1h-1l-2,2h-1l-1,1h-1l-1,1h-1l-1,1h-1l-1,1h-1l-2,2h-1l-1,1h-1l-1,1h-1l-1,1h-1l-1,1h-1l-2,2h-1l-1,1h-1l-1,1h-1l-1,1h-1l-1,1h-1l-2,2h-1l-1,1h-1l-1,1h-1l-1,1h-1l-2,2h-1l-1,1h-1l-1,1h-1l-1,1h-1l-1,1h-1l-2,2h-1l-1,1h-1l-1,1h-1l-1,1h-1l-1,1h-1l-2,2h-1l-1,1h-1l-1,1h-1l-1,1h-1l-2,2h-1l-1,1h-1l-1,1h-1l-1,1h-1l-1,1h-1l-2,2h-1l-1,1h-1l-1,1h-1l-1,1h-1l-2,2h-1l-1,1h-1l-1,1h-1l-1,1h-1l-1,1h-1l-2,2h-1l-1,1h-1l-1,1h-1l-1,1h-1l-2,2h-1l-1,1h-1l-1,1h-1l-1,1h-1l-1,1h-1l-2,2h-1l-1,1h-1l-1,1h-1l-1,1h-1l-2,2h-1l-1,1h-1l-1,1h-1l-1,1h-1l-1,1h-1l-2,2h-1l-1,1h-1l-1,1h-1l-1,1h-1l-1,1h-1l-2,2h-1l-1,1h-1l-1,1h-1l-1,1h-1l-2,2h-1l-1,1h-1l-1,1h-1l-1,1h-1l-2,2h-1l-1,1h-1l-1,1h-1l-1,1h-1l-1,1h-1l-2,2h-1l-1,1h-1l-1,1h-1l-1,1h-1l-2,2h-1l-1,1h-1l-1,1h-1l-1,1h-1l-1,1h-1l-2,2h-1l-1,1h-1l-1,1h-1l-1,1h-1l-1,1h-1l-2,2h-1l-1,1h-1l-1,1h-1l-1,1h-1l-2,2h-1l-1,1h-1l-1,1h-1l-1,1h-1l-1,1h-1l-2,2h-1l-1,1h-1l-1,1h-1l-1,1h-1l-1,1h-1l-2,2h-1l-1,1h-1l-1,1h-1l-1,1h-1l-1,1h-2l-1,1h-2l-1,1h-2l-1-1,1-1h1l1-1h2l1-1h1l1-1h2l1-1h1l1-1h1l1-1h1l2-2h1l1-1h1l1-1h1l1-1h1l1-1h1l1-1-1,1h-1l-1,1h-1l-1,1h-1l-1,1h-1l-1-1,2-2h1l1-1h1l1-1h1l1-1h1l1-1-1,1h-1l-1,1h-1l-1,1h-1l-1,1h-1l-1-1,1,1-1,1h-1l-2,2h-1l-1,1h-1l-1,1h-1l-1-1h-1l-1-1,1-1h1-1l-1,1h-1l-1,1h-1,1l1,1-1,1h-1,1l1,1-1,1h-1l-1,1h-2l-1-1,1-1h1-1l-1-1,1-1h1-1l-1,1h-1l-1,1h-3l-1,1h-2l-1,1h-3l-1,1h-3l-1,1h-4l-1,1h-8l-1,1h-25l-1-1h-8l-1-1h-4l-1-1h-4l-1-1h-2l-1-1h-3l-1-1h-2l-1-1h-2l-1-1h-1l-1-1h-1,1l1,1h1l1,1-1,1h-1l-1,1h-2l-1-1,1-1h1-1l-1-1h-1l-1-1,1-1h1-1l-1-1h-1l-1-1h-1l-1,1,1-1h1l1,1-1,1,1,1-1,1h-1l-1-1h-1l-1-1h-1l-2-2h-1l-1-1h-1l-1-1h-1l-2-2h-1l-1-1h-1l-1-1h-1l-2-2h-1l-1-1h-1l-1-1,1,1h1l1,1h1l2,2h1l1,1h1l1,1h1l2,2h1l1,1h1l2,2h1l1,1h1l1,1h1l1,1h1l1,1h1l1,1h1l1,1-1,1h-2l-1-1h-1l-1-1h-1l-1-1,1,1h1l1,1-1,1h-2l-1-1h-1l-2-2h-1l-1-1h-1l-1-1h-1l-2-2h-1l-1-1h-1l-1-1h-1l-2-2h-1l-1-1h-1l-1-1h-1l-2-2h-1l-1-1h-1l-2-2h-1l-1-1h-1l-1-1h-1l-2-2h-1l-1-1h-1l-1-1h-1l-2-2h-1l-1-1h-1l-1-1h-1l-2-2h-1l-1-1h-1l-2-2h-1l-1-1h-1l-1-1h-1l-2-2h-1l-1-1h-1l-1-1h-1l-2-2h-1l-1-1h-1l-1-1h-1l-2-2h-1l-1-1h-1l-2-2h-1l-1-1h-1l-1-1h-1l-2-2h-1l-1-1h-1l-1-1h-1l-2-2h-1l-1-1h-1l-1-1h-1l-2-2h-1l-1-1h-1l-2-2h-1l-1-1h-1l-1-1h-1l-2-2h-1l-1-1h-1l-1-1h-1l-2-2h-1l-1-1h-1l-2-2h-1l-1-1h-1l-1-1h-1l-2-2h-1l-1-1h-1l-1-1h-1l-2-2h-1l-1-1h-1l-1-1h-1l-2-2h-1l-1-1h-1l-1-1h-1l-2-2h-1l-1-1h-1l-2-2h-1l-1-1h-1l-1-1h-1l-2-2h-1l-1-1h-1l-1-1h-1l-2-2h-1l-1-1h-1l-1-1h-1l-2-2h-1l-1-1h-1l-2-2h-1l-1-1h-1l-1-1h-1l-2-2h-1l-1-1h-1l-1-1h-1l-2-2h-1l-1-1h-1l-2-2h-1l-1-1h-1l-1-1h-1l-2-2h-1l-1-1h-1l-1-1h-1l-2-2h-1l-1-1h-1l-1-1h-1l-2-2h-1l-1-1h-1l-2-2h-1l-1-1h-1l-1-1h-1l-2-2h-1l-1-1h-1l-1-1h-1l-2-2h-1l-1-1h-1l-1-1h-1l-2-2h-1l-1-1h-1l-2-2h-1l-1-1h-1l-1-1h-1l-2-2h-1l-1-1h-1l-1-1h-1l-2-2h-1l-2-2h-1l-3-3h-1l-9-9v-1l-2-2v-1l-1-1v1l1,1v1l2,2v1l8,8h1l3,3h1l2,2h1l2,2h1l1,1h1l1,1h1l2,2h1l1,1h1l1,1h1l2,2h1l1,1h1l1,1h1l2,2h1l1,1h1l1,1h1l2,2h1l1,1h1l2,2h1l1,1h1l1,1h1l2,2h1l1,1h1l2,2h1l1,1h1l1,1h1l2,2h1l1,1h1l1,1h1l2,2h1l1,1h1l1,1h1l2,2h1l1,1h1l1,1h1l2,2h1l1,1h1l2,2h1l1,1h1l1,1h1l2,2h1l1,1h1l2,2h1l1,1h1l1,1h1l2,2h1l1,1h1l1,1h1l2,2h1l1,1h1l1,1h1l2,2h1l1,1h1l1,1h1l2,2h1l1,1h1l1,1h1l2,2h1l1,1h1l2,2h1l1,1h1l1,1h1l2,2h1l1,1h1l1,1h1l2,2h1l1,1h1l1,1h1l2,2h1l1,1h1l2,2h1l1,1h1l1,1h1l1,1h1l2,2h1l2,2h1l1,1h1l1,1h1l2,2h1l1,1h1l1,1h1l2,2h1l1,1h1l1,1h1l2,2h1l1,1h1l1,1h1l2,2h1l1,1h1l2,2h1l1,1h1l1,1h1l2,2h1l1,1h1l1,1h1l2,2h1l1,1h1l2,2h1l1,1h1l1,1h1l2,2h1l1,1h1l1,1h1l2,2h1l1,1h1l1,1h1l2,2h1l1,1h1l1,1h1l2,2h1l1,1h1l2,2h1l1,1h1l1,1h1l2,2h1l1,1h1l1,1h1l2,2h1l1,1h2l1,1h1l1,1h2l1,1h1l1,1h2l1,1h2l1,1h2l1,1h3l1,1h4l1,1h4l1,1h5l1,1h8l1,1h21l1-1h8l1-1h5l1-1h4l1-1h4l1-1h2l1-1h2l1-1h2l1-1h2l1-1h2l1-1h1l1-1h2l1-1h1l1-1h1l2-2h1l1-1h1l1-1h1l1-1h1l2-2h1l1-1h1l1-1h1l1-1h1l1-1h1l2-2h1l1-1h1l1-1h1l1-1h1l1-1h1l2-2h1l1-1h1l1-1h1l1-1h1l1-1h1l2-2h1l1-1h1l1-1h1l1-1h1l2-2h1l1-1h1l1-1h1l1-1h1l1-1h1l2-2h1l1-1h1l1-1h1l1-1h1l1-1h1l2-2h1l1-1h1l1-1h1l1-1h1l2-2h1l1-1h1l1-1h1l1-1h1l2-2h1l1-1h1l1-1h1l1-1h1l1-1h1l2-2h1l1-1h1l1-1h1l1-1h1l1-1h1l2-2h1l1-1h1l1-1h1l1-1h1l2-2h1l1-1h1l1-1h1l1-1h1l2-2h1l1-1h1l1-1h1l1-1h1l1-1h1l2-2h1l1-1h1l1-1h1l1-1h1l1-1h1l2-2h1l1-1h1l1-1h1l1-1h1l2-2h1l1-1h1l1-1h1l1-1h1l2-2h1l1-1h1l1-1h1l1-1h1l1-1h1l2-2h1l1-1h1l1-1h1l1-1h1l1-1h1l2-2h1l1-1h1l1-1h1l1-1h1l2-2h1l1-1h1l1-1h1l1-1h1l2-2h1l1-1h1l1-1h1l1-1h1l1-1h1l2-2h1l1-1h1l1-1h1l1-1h1l1-1h1l2-2h1l1-1h1l1-1h1l1-1h1l2-2h1l1-1h1l1-1h1l1-1h1l1-1h1l2-2h1l1-1h1l1-1h1l1-1h1l1-1h1l1-1h1l2-2h1l1-1h1l1-1h1l2-2h1l1-1h1l1-1h1l1-1h1l1-1h1l2-2h1l1-1h1l1-1h1l1-1h1l2-2h1l1-1h1l1-1h1l1-1h1l1-1h1l2-2h1l1-1h1l1-1h1l1-1h1l2-2h1l1-1h1l1-1h1l1-1h1l1-1h1l2-2h1l1-1h1l1-1h1l1-1h1l2-2h1l1-1h1l1-1h1l1-1h1l1-1h1l1-1h1l2-2h1l1-1h1l1-1h1l1-1h1l2-2h1l1-1h1l1-1h1l1-1h1l1-1h1l2-2h1l1-1h1l1-1h1l1-1h1l2-2h1l1-1h1l1-1h1l1-1h1l1-1h1l2-2h1l1-1h1l1-1h1l1-1h1l2-2h1l1-1h1l1-1h1l1-1h1l2-2h1l1-1h1l1-1h1l1-1h1l1-1h1l2-2h1l1-1h1l1-1h1l1-1h1l1-1h1l2-2h1l1-1h1l1-1h1l1-1h1l2-2h1l1-1h1l1-1h1l1-1h1l2-2h1l1-1h1l1-1h1l1-1h1l1-1h1l2-2h1l1-1h1l1-1h1l1-1h1l1-1h1l2-2h1l1-1h1l1-1h1l1-1h1l2-2h1l1-1h1l1-1h1l1-1h1l1-1h1l2-2h1l1-1h1l1-1h1l1-1h1l1-1h1l2-2h1l1-1h1l1-1h1l1-1h1l2-2h1l1-1h1l1-1h1l1-1h1l2-2h1l1-1h1l1-1h1l1-1h1l1-1h1l2-2h1l1-1h1l1-1h1l1-1h1l1-1h1l2-2h1l1-1h1l1-1h1l1-1h1l2-2h1l1-1h1l1-1h1l1-1h1l1-1h1l2-2h1l1-1h1l1-1h1l1-1h1l1-1h1l2-2h1l1-1h1l1-1h1l1-1h1l1-1h1l2-2h1l1-1h1l1-1h1l1-1h1l2-2h1l1-1h1l1-1h1l1-1h1l2-2h1l1-1h1l1-1h1l1-1h1l1-1h1l1-1h1l2-2h1l1-1h1l1-1h1l1-1h1l2-2h1l1-1h1l1-1h1l1-1h1l2-2h1l1-1h1l1-1h1l1-1h1l2-2h1l1-1h1l1-1h1l1-1h1l1-1h1l1-1h1l2-2h1l1-1h1l1-1h1l1-1h1l2-2h1l1-1h1l1-1h1l1-1h1l2-2h1l1-1h1l1-1h1l2-2h1l1-1h1l3-3h1l8-8v-1l2-2v-2Z"/>
    <path class="cls-6" d="M363.7,825.84l1-1h25l1,1-1,1h-25l-1-1Z"/>
    <path class="cls-6" d="M321.7,820.84l1-1h1l1,1h2l1,1h2l1,1h1l1,1h2l1,1h2l1,1h3l1-1h2l1-1h4l1,1-1,1h-3l-1,1h-2,2l1-1h3l1-1h4l1,1-1,1h-3l-1,1h-3,3l1-1h3l1-1h8l1,1h25l1,1h7l1,1h3-3l-1-1h-7l-1-1,1-1h8l1,1h3l1,1h3l1-1h3-3l-1-1h-2l-1-1,1-1h3l1,1h3l1,1h2l1-1h3l1,1-1,1h-2l-1,1h-2l-1,1h-4l-1,1h-4l-1,1h-5l-1,1h-8l-1,1h-21l-1-1h-8l-1-1h-5l-1-1h-4l-1-1h-4l-1-1h-3l-1-1h-2l-1-1h-2l-1-1h-2l-1-1h-1l-1-1h-2l-2-2Z"/>
    <path class="cls-6" d="M1132.7,428.84v17l-1,1,1,1-1,1v6l-1,1v1l-1,1v1l-1,1v1l-2,2v1l-3,3v1l-4,4h-1l-4,4h-1l-2,2h-1l-2,2h-1l-1,1h-1l-1,1h-1l-1,1h-1l-2,2h-1l-1,1h-1l-1,1h-1l-1,1h-1l-1,1h-1l-1,1h-1l-1,1h-1l-2,2h-1l-1,1h-1l-1,1h-1l-1,1h-1l-2,2h-1l-1,1h-1l-1,1h-1l-1,1h-1l-2,2h-1l-1,1h-1l-1,1h-1l-1,1h-1l-2,2h-1l-1,1h-1l-1,1h-1l-1,1h-1l-1,1h-1l-1,1h-1l-2,2h-1l-1,1h-1l-1,1h-1l-1,1h-1l-2,2-1-1v-1l1-1v-2l1-1v-8l-1-1v-1l-1-1h-1l-1-1h-1l-1-1h-1l-1-1h-3l-1,1h-2l-1,1h-1l-2,2h-1l-1,1h-1l-1,1h-1l-1,1h-1l-1,1h-1l-2,2h-1l-1,1h-1l-1,1h-1l-1,1h-1l-2,2h-1l-1,1h-1l-1,1h-1l-1,1h-1l-1,1h-1l-2,2h-1l-1,1h-1l-1,1h-1l-1,1h-1l-2,2h-1l-1,1h-1l-1,1h-1l-1,1h-1l-5,5v1l-1,1v1l-1,1v3l-1,1v3l1,1v2l2,2h1l2,2h3-2l-2-2h-1l-3-3v-1l-1-1v-3l1-1v-3l2-2v-1l6-6h1l1-1h1l1-1h1l2-2h1l1-1h1l1-1h1l1-1h1l2-2h1l1-1h1l1-1h1l1-1h1l1-1h1l1-1h1l2-2h1l1-1h1l1-1h1l1-1h1l2-2h1l1-1h1l1-1h1l1-1h1l2-2h1l1-1h1l1-1h1l1-1h3l2,2h1l1,1h1l3,3v8l-1,1v2l-1,1v3l1-1h1l2-2h1l1-1h1l1-1h1l1-1h1l2-2h1l1-1h1l1-1h1l1-1h1l1-1h1l2-2h1l1-1h1l1-1h1l1-1h1l1-1h1l2-2h1l1-1h1l1-1h1l1-1h1l2-2h1l1-1h1l1-1h1l1-1h1l2-2h1l1-1h1l1-1h1l1-1h1l1-1h1l2-2h1l1-1h1l1-1h1l1-1h1l1-1h1l2-2h1l1-1h1l2-2h1l11-11v-1l2-2v-1l1-1v-2l1-1v-1l1-1v-6l1-1-1-1,1-1v-17Z"/>
    <path class="cls-6" d="M779.7,212.84l-1,1h-11l-1,1h-6l-1,1h-4l-1,1h-4l-1,1h-2l-1,1h-2l-1,1h-2l-1,1h-2l-1,1h-2l-1,1h-1l-1,1h-1l-1,1h-1l-1,1h-1l-1,1h-1l-2,2h-1l-1,1h-1l-1,1h-1l-1,1h-1l-2,2h-1l-1,1h-1l-1,1h-1l-1,1h-1l-1,1h-1l-1,1h-1l-2,2h-1l-1,1h-1l-1,1h-1l-1,1h-1l-2,2h-1l-1,1h-1l-1,1h-1l-1,1h-1l-2,2h-1l-1,1h-1l-1,1h-1l-1,1h-1l-1,1h-1l-2,2h-1l-1,1h-1l-1,1h-1l-1,1h-1l-1,1h-1l-2,2h-1l-1,1h-1l-1,1h-1l-1,1h-1l-2,2h-1l-1,1h-1l-1,1h-1l-1,1h-1l-2,2h-1l-1,1h-1l-1,1h-1l-1,1h-1l-1,1h-1l-2,2h-1l-1,1h-1l-1,1h-1l-1,1h-1l-1,1h-1l-2,2h-1l-1,1h-1l-1,1h-1l-1,1h-1l-1,1h-1l-2,2h-1l-1,1h-1l-1,1h-1l-2,2h-1l-1,1h-1l-1,1h-1l-1,1h-1l-1,1h-1l-1,1h-1l-2,2h-1l-1,1h-1l-1,1h-1l-1,1h-1l-1,1h-1l-2,2h-1l-1,1h-1l-1,1h-1l-1,1h-1l-2,2h-1l-1,1h-1l-1,1h-1l-1,1h-1l-2,2h-1l-1,1h-1l-1,1h-1l-1,1h-1l-1,1h-1l-1,1h-1l-2,2h-1l-1,1h-1l-1,1h-1l-1,1h-1l-2,2h-1l-1,1h-1l-1,1h-1l-1,1h-1l-2,2h-1l-1,1h-1l-1,1h-1l-1,1h-1l-2,2h-1l-1,1h-1l-1,1h-1l-1,1h-1l-1,1h-1l-1,1h-1l-2,2h-1l-1,1h-1l-1,1h-1l-1,1h-1l-2,2h-1l-1,1h-1l-1,1h-1l-1,1h-1l-2,2h-1l-1,1h-1l-1,1h-1l-1,1h-1l-2,2h-1l-1,1h-1l-1,1h-1l-1,1h-1l-1,1h-1l-1,1h-1l-2,2h-1l-1,1h-1l-1,1h-1l-1,1h-1l-2,2h-1l-1,1h-1l-1,1h-1l-1,1h-1l-2,2h-1l-1,1h-1l-1,1h-1l-1,1h-1l-1,1h-1l-2,2h-1l-1,1h-1l-1,1h-1l-1,1h-1l-1,1h-1l-2,2h-1l-1,1h-1l-1,1h-1l-1,1h-1l-2,2h-1l-1,1h-1l-1,1h-1l-1,1h-1l-2,2h-1l-1,1h-1l-1,1h-1l-1,1h-1l-2,2h-2l-1,1h-1l-2,2h-1l-1,1h-1l-1,1h-1l-2,2h-1l-1,1h-1l-1,1h-1l-1,1h-1l-2,2h-1l-1,1h-1l-1,1h-1l-1,1h-1l-2,2h-1l-1,1h-1l-1,1h-1l-1,1h-1l-1,1h-1l-1,1h-1l-2,2h-1l-1,1h-1l-1,1h-1l-1,1h-1l-2,2h-1l-1,1h-1l-1,1h-1l-1,1h-1l-2,2h-1l-1,1h-1l-1,1h-1l-1,1h-1l-1,1h-1l-2,2h-1l-1,1h-1l-1,1h-1l-1,1h-1l-1,1h-1l-2,2h-1l-1,1h-1l-1,1h-1l-1,1h-1l-1,1h-1l-2,2h-1l-1,1h-1l-1,1h-1l-1,1h-1l-2,2h-1l-1,1h-1l-1,1h-1l-1,1h-1l-2,2h-1l-1,1h-1l-1,1h-1l-1,1h-1l-1,1h-1l-1,1h-1l-2,2h-1l-1,1h-1l-1,1h-1l-2,2h-1l-1,1h-1l-1,1h-1l-1,1h-1l-1,1h-1l-2,2h-1l-1,1h-1l-1,1h-1l-1,1h-1l-2,2h-1l-1,1h-1l-1,1h-1l-1,1h-1l-1,1h-1l-1,1h-1l-2,2h-1l-1,1h-1l-1,1h-1l-1,1h-1l-2,2h-1l-1,1h-1l-1,1h-1l-1,1h-1l-2,2h-1l-1,1h-1l-1,1h-1l-1,1h-1l-2,2h-1l-1,1h-1l-1,1h-1l-1,1h-1l-1,1h-1l-1,1h-1l-2,2h-1l-1,1h-1l-1,1h-1l-1,1h-1l-2,2h-1l-1,1h-1l-1,1h-1l-1,1h-1l-2,2h-1l-1,1h-1l-1,1h-1l-1,1h-1l-1,1h-1l-2,2h-1l-1,1h-1l-1,1h-1l-1,1h-1l-1,1h-1l-2,2h-1l-1,1h-1l-1,1h-1l-1,1h-1l-2,2h-1l-1,1h-1l-1,1h-1l-1,1h-1l-2,2h-1l-1,1h-1l-1,1h-1l-1,1h-1l-1,1h-1l-1,1h-1l-1,1h-1l-2,2h-1l-1,1h-1l-1,1h-1l-2,2h-1l-1,1h-1l-1,1h-1l-1,1h-1l-2,2h-1l-1,1h-1l-1,1h-1l-1,1h-1l-2,2h-1l-1,1h-1l-1,1h-1l-1,1h-1l-1,1h-1l-2,2h-1l-1,1h-1l-1,1h-1l-1,1h-1l-1,1h-1l-1,1h-1l-2,2h-1l-1,1h-1l-1,1h-1l-2,2h-1l-1,1h-1l-1,1h-1l-1,1h-1l-1,1h-1l-2,2h-1l-1,1h-1l-2,2h-1l-2,2h-1l-8,8v1l-2,2-1-1-1,1v1l-1,1,1-1,1,1v2l-1,1v2l-1,1v12l1,1v2l1,1v2l1,1v1l2,2v1l9,9h1l3,3h1l1,1h1l2,2h1l1,1h1l2,2h1l1,1h1l1,1h1l2,2h1l1,1h1l1,1h1l2,2h1l1,1h1l1,1h1l2,2h1l1,1h1l1,1h1l2,2h1l1,1h1l2,2h1l1,1h1l1,1h1l2,2h1l1,1-1,1h-1,1l1,1-1-1,1-1h1l1,1h1l2,2h1l1,1h1l1,1h1l2,2h1l1,1h1l2,2h1l1,1h1l1,1h1l2,2h1l1,1h1l1,1h1l2,2h1l1,1h1l1,1h1l2,2h1l1,1h1l2,2h1l1,1h1l1,1h1l2,2h1l1,1h1l1,1h1l2,2h1l1,1h1l1,1h1l2,2h1l1,1h1l1,1h1l2,2h1l1,1h1l2,2h1l1,1h1l1,1h1l2,2h1l1,1-1,1h-1l-1,1,1-1h1l2,2-1,1,1-1-2-2,1-1h1l2,2h1l1,1h1l1,1h1l2,2h1l1,1h1l1,1h1l2,2h1l1,1h1l1,1h1l2,2h1l1,1h1l1,1h1l2,2h1l1,1h1l2,2h1l1,1-1,1h-1,1l1,1-1-1,1-1h1l2,2h1l1,1h1l1,1-1,1h-1l-1,1,1-1h1l2,2-1,1,1,1-1,1h-1l-2-2h-1l-1-1h-1l-1-1h-1l-2-2h-1l-1-1h-1l-1-1h-1l-2-2,1-1h1l1,1-1-1,1-1-1,1h-1l-1,1h-1l-1-1h-1l-1-1,1,1h1l1,1h1l2,2h1l1,1h1l1,1h1l2,2h1l1,1h1l1,1h1l2,2h1l1,1h1l1,1-1-1h-1l-1-1,1-1h1-1l-1-1,1-1-2-2,1-1h1l2,2h1l1,1h1l1,1h1l1,1h1l2,2h1l1,1h1l1,1h1l2,2h1l1,1h1l2,2h1l1,1h1l2,2h1l1,1h1l1,1h1l2,2h1l1,1-1,1h-1,1l1,1-1,1,2,2-1,1h-1l-2-2h-1l-1-1h-1l-1-1h-1l-2-2h-1l-1-1h-1l-2-2h-1l-1-1h-1l-1-1,1,1h1l1,1h1l2,2h1l1,1h1l2,2h1l1,1h1l1,1h1l2,2h1l1,1h1l1,1h1l2,2h1l1,1h1l1,1-1-1h-1l-1-1,1-1h1l1-1-1,1h-1l-2-2,1-1-1,1,2,2-1,1h-1l-2-2h-1l-1-1h-1l-1-1,1-1h1l1-1-1-1,1,1-1,1h-1l-2-2,1-1-1-1,1-1h1l1,1h1l2,2h1l1,1h1l1,1h1l2,2h1l1,1h1l1,1h1l2,2h1l1,1h1l1,1h1l2,2-1,1h-1l-1,1,1-1h1l1,1-1-1,1-1h1l1,1h1l1,1h1l2,2h1l1,1h1l2,2h1l1,1h1l1,1h1l2,2h1l1,1h1l1,1h1l1,1h1l1,1h1l1,1h1l1,1h2l1,1h1l1,1h2l1,1h3l1,1h2l1,1h3l1,1h3l1,1h6l1,1h8l1,1h19l1-1h8l1-1h5l1-1h4l1-1h3l1-1h2l1-1h2l1-1h2l1-1h2l1-1h1l1-1h1l1-1h1l1-1h1l1-1h1l1-1h1l1-1h1l1-1h1l1-1h1l2-2h1l1-1h1l1-1h1l1-1h1l1,1h1l1,1-1-1h-1l-1-1,2-2h1l1-1h1l1-1h1l1-1h1l2-2h1l1-1h1l1-1h1l1-1h1l1,1-1,1,1,1-1,1,1,1-2,2h-1l-1,1h-1l-1,1h-1l-1-1h-1l-1-1,1,1h1l1,1-1,1h-1l-1,1,1-1h1l1-1h1l1-1h1l1-1h1l1-1h1l1,1-1,1,1-1h1l1-1h1l1-1h1l1-1h1l1-1-1,1h-1l-1,1h-1l-1,1h-1l-1,1h-1l-1-1,2-2h1l1-1h1l1-1h1l1-1h1l2-2h1l1-1h1l1-1h1l1-1h1l1-1-1,1h-1l-1-1,1-1-1,1h-1l-1-1h-1l-1-1,2-2h1l1-1h1l1-1h1l1-1h1l1,1-1,1,1-1h1l1,1-1,1,1,1-1,1h-1l-1,1,1-1h1l1-1h1l1-1h1l1-1h1l2-2h1l1-1h1l1-1h1l1-1h1l1-1h1l2-2h1l1-1h1l1-1h1l1-1h1l1-1-1,1h-1l-1,1h-1l-1,1h-1l-1,1h-1l-1-1h-1l-1-1,1,1-1,1,1-1h1l1,1-2,2h-1l-1,1h-1l-1,1h-1l-1,1h-1l-1,1h-1l-2,2h-1l-1,1h-1l-1,1h-1l-1-1,1-1-1-1h-1l-1-1,2-2h1l1-1h1l1-1h1l1-1h1l1,1-1,1,1-1h1l1,1-1-1h-1l-1-1,2-2h1l1-1h1l1-1h1l1-1h1l1-1h1l1-1h1l2-2h1l1-1h1l1-1h1l1-1h1l1,1h1l1,1-1-1h-1l-1-1,2-2h1l1-1h1l1-1h1l2-2h1l1-1h1l1-1h1l1-1h1l1-1h1l1,1-1,1,1,1h1l1,1-1,1h-1l-2,2h-1l-1,1h-1l-1,1h-1l-1-1,1-1-1,1h-1,1l1,1-1,1h-1l-1,1,1-1h1l1-1h1l1-1h1l1-1h1l1,1-2,2h-1l-1,1h-1l-1,1h-1l-1,1h-1l-1,1,1-1h1l1-1h1l1-1h1l1-1h1l2-2h1-1l-1-1,1-1h1l1-1h1l1,1-1,1,1-1h1l1-1h1l1-1h1l1-1-1,1h-1l-1,1h-1l-1,1h-1l-1-1,2-2h1l1-1h1l1-1h1l2-2h1l1-1h1l1-1h1l1-1h1l1-1-1,1h-1l-1,1h-1l-1,1h-1l-1,1h-1l-2,2h-1l-1,1h-1l-1,1h-1l-1-1,1-1-1-1,1-1h1l1,1-1-1h-1l-1-1,2-2h1l1-1h1l1,1-1,1,1-1h1l1,1-1-1h-1l-1-1,1-1h1l1-1h1l2-2h1l1-1h1l1-1h1l1-1h1l1,1-1,1,1,1-1-1,1-1h1l1,1-1-1h-1l-1-1,2-2h1l1-1h1l1-1h1l1-1h1l1,1h1l1,1-1,1h-1,1l1,1-1,1h-1l-2,2h-1l-1,1h-1l-1,1h-1l-1,1h-1l-1,1h1l1,1-1,1h-1l-1,1,1-1h1l1-1h1l1-1h1l1-1h1l1-1-1,1h-1l-1,1h-1l-1,1h-1l-1-1,2-2h1l1-1h1l1-1h1l2-2h1l1-1h1l1-1h1l1-1h1l1-1h1l2-2h1l1-1h1l1-1h1l1-1h1l2-2h1l1-1h1l1-1h1l1-1h1l1-1h1l1-1h1l1,1-1,1,1-1h1l1-1h1l1-1h1l1-1-1,1h-1l-1,1h-1l-1,1h-1l-1-1,2-2h1l1-1h1l1-1h1l1-1-1,1h-1l-1,1h-1l-1,1h-1l-2,2h-1l-1,1h-1l-1,1h-1l-1-1,1-1-1,1h-1l-1-1,1,1h1l1,1-1,1h-1l-1,1h-1l-1,1h-1l-2,2h-1l-1,1h-1l-1,1h-1l-1,1h-1l-2,2h-1l-1,1h-1l-1,1h-1l-1,1h-1l-1-1,1-1-1-1h-1l-1-1,2-2h1l1-1h1l1-1h1l1-1h1l1-1h1l1-1h1l2-2h1l1-1h1l1-1h1l1-1h1l2-2h1l1-1h1l1-1h1l1-1h1l1,1-1,1,1-1h1l1,1-1-1h-1l-1-1,2-2h1l1-1h1l1-1h1l1-1h1l1,1-1,1,1-1h1l1,1-1,1,1,1-1,1,1-1h1l1-1h1l1-1h1l1-1h1l1-1h1l2-2h1l1-1h1l1-1h1l1-1h1l2-2h1l1-1h1l1-1h1l1-1h1l1-1-1,1h-1l-1,1h-1l-1-1,1-1-1-1,1-1-1,1h-1l-1-1,2-2h1l1-1h1l1-1h1l2-2h1l1-1h1l1-1h1l1-1h1l1-1h1l1,1-1,1,1,1-1-1,1-1h1-1l-1-1,1-1h1l2-2h1l1-1h1l2-2h2l2-2h1l1-1h1l1-1h1l1-1h1l1,1-1,1,1,1-1,1h-1l-1,1h-1l-1-1,1,1-1,1h-1l-1,1-1-1,1,1-1,1h-1,1l1,1-1,1h-1l-1,1h-1l-1-1,1-1-1-1,1,1-1,1h-1l-1-1,1,1-1,1,1-1h1l1,1-2,2h-1l-1,1h-1l-1,1h-1l-1,1h-1l-2,2h-1l-1,1h-1l-1,1h-1l-1-1,1-1-1-1h-1,1l1,1-1,1h-1,1l1,1-1,1h-1l-1,1,1-1h1l1-1h1l1-1h1l1-1h1l1,1-1,1,1-1h1l1-1h1l1-1h1l1-1h1l1-1-1,1h-1l-1,1h-1l-1,1h-1l-1,1h-1l-1-1,2-2h1l1-1h1l1-1h1l1-1h1l2-2h1l1-1h1l1-1h1l1-1h1l1-1h1l1,1-1,1,1-1h1l1-1h1l1-1h1l1-1h1l1-1-1,1h-1l-1,1h-1l-1,1h-1l-1,1h-1l-1-1,2-2h1l1-1h1l1-1h1l1-1h1l1-1h1l1,1-1,1,1-1h1l1-1h1l1-1h1l1-1-1,1h-1l-1,1h-1l-1,1h-1l-1-1,2-2h1l1-1h1l1-1h1l1-1h1l2-2h1l1-1h1l1-1h1l1-1h1l1-1h1l1,1-1,1,1-1h1l1-1h1l1-1h1l1-1-1,1h-1l-1,1h-1l-1,1h-1l-1-1,2-2h1l1-1h1l1-1h1l1-1h1l1,1-1,1,1-1h1l1-1h1l1-1h1l1-1h1l1-1-1,1h-1l-1,1h-1l-1,1h-1l-1,1h-1l-1-1,2-2h1l1-1h1l1-1h1l1-1h1l1-1-1,1h-1l-1,1h-1l-1-1,1-1-1-1h-1l-1-1,2-2h1l1-1h1l1-1h1l1-1h1l2-2h1l1-1h1l1-1h1l1-1h1l1,1-1,1,1,1-1-1,1-1h1l1,1-1-1h-1l-1-1,1-1h1l2-2h1l1-1h1l1-1h1l1-1h1l1-1h1l1,1h1l1,1-1-1,1-1h1l1,1-1-1,1-1-1,1h-1l-1,1h-1l-1-1,2-2h1l1-1h1l1-1h1l1-1h1l2-2h1l1-1h1l1-1h1l1-1h1l1,1-1,1,1-1h1l1,1-1-1h-1l-1-1,2-2h1l1-1h1l1-1h1l1-1h1l1-1h1l2-2h1l1-1h1l1-1h1l1-1h1l1-1h1l2-2h1l1-1h1l1-1h1l1-1h1l1,1h1l1,1-1,1h-1,1l1,1-1,1h-1l-1,1,1-1h1l1-1h1l1-1h1l1-1-1,1h-1l-1,1h-1l-1-1,1-1-1-1,1-1h1l1,1-1-1,1-1h1l1-1-1,1h-1l-1,1h-1l-1,1h-1l-1-1,2-2h1l1-1h1l1-1h1l1-1h1l1,1-1,1,1-1h1l1,1-1,1,1,1-1,1h-1l-1,1h1l1,1-1,1h-1l-2,2h-1l-1,1h-1l-1,1h-1l-1,1h-1l-1,1,1-1h1l1-1h1l1-1h1l1-1h1l2-2h1l1-1h1l1-1h1l1-1h1l2-2h1l1-1h1l1-1h1l1-1h1l2-2h1-1l-1-1,1-1h1l2-2h1l1-1h1l1-1h1l1-1h1l1,1-2,2h-1l-1,1h-1l-1,1h-1l-1,1,1-1h1l1-1h1l1-1h1l2-2h1l1-1h1l1-1h1l1-1h1l1-1h1l1-1-1,1h-1l-1,1h-1l-1,1h-1l-1-1,2-2h1l1-1h1l1-1h1l2-2h1l1-1h1l1-1h1l1-1h1l1-1h1l2-2h1l1-1h1l1-1h1l1-1h1l1-1h1l1-1h1l1,1-1,1,1-1h1l1-1h1l1-1-1,1h-1l-1,1h-1l-1-1,2-2h1l1-1h1l1-1-1,1h-1l-1-1,1-1-1,1h-1l-1-1,1,1h1l1,1-1,1h-1l-1,1h-1l-1,1h-1l-2,2h-1l-1,1h-1l-1,1h-1l-1,1h-1l-2,2h-1l-1,1h-1l-1,1h-1l-1,1h-1l-1,1h-1l-2,2h-1l-1-1,1-1-1,1h-1,1l1,1-1,1h-1l-1,1h-1l-1-1,1-1-1-1,1,1-1,1h-1,1l1,1-1,1h-1l-1,1h1l1,1-1,1h-1l-1,1h-1l-1-1,1-1-1,1h-1l-1,1h-1l-1,1h-1l-1,1h-1l-2,2h-1l-1,1h-1l-1,1h-1l-1,1h-1l-2,2h-1l-1,1h-1l-1,1h-1l-1,1h-1l-1-1,1-1-1-1h-1l-1-1,2-2h1l1-1h1l1-1h1l1-1h1l1,1-1,1,1,1-1,1,1-1-1-1,1-1h1l1,1-1-1h-1l-1-1,1-1h1l1-1h1l2-2h1l1-1h1l1-1h1l1-1h1l2-2h1l1-1h1l1-1h1l1-1h1l2-2h1l1-1h1l1-1h1l1-1h1l1,1-1,1,1-1h1l1,1-1-1,1-1-1,1h-1l-1-1,2-2h1l1-1h1l1-1h1l1-1h1l1-1h1l1-1h1l2-2h1l1-1h1l1-1h1l1-1h1l2-2h1l1-1h1l1-1h1l1-1h1l2-2h1l1-1h1l1-1h1l1-1h1l2-2h1l1-1h1l1-1h1l1-1h1l1,1-1,1,1,1-1,1,1-1-1-1,1-1h1l1,1-1-1h-1l-1-1,1-1h1l1-1h1l2-2h1l1-1h1l1-1h1l1-1h1l2-2h1l1-1h1l1-1h1l1-1h1l2-2h1l1-1h1l1-1h1l1-1h1l1-1h1l1,1-1,1,1,1h1l1,1-1,1h-1l-2,2h-1l-1,1h-1l-1-1,1-1-1,1h-1,1l1,1-1,1h-1l-1,1h-1l-1-1,1-1-1-1,1,1-1,1,1,1-1,1,1-1h1l1-1h1l1-1h1l1-1h1l2-2h1l1-1h1l1-1h1l1-1h1l1-1h1l2-2h1l1-1h1l1-1h1l1-1h1l2-2h1l1-1h1l1-1h1l1-1h1l1-1h1l1,1-1,1,1-1h1l1-1h1l1-1h1l1-1h1l1-1-1,1h-1l-1,1h-1l-1,1h-1l-1,1h-1l-1-1,2-2h1l1-1h1l1-1h1l1-1h1l1-1h1l2-2h1l1-1h1l1-1h1l1-1h1l2-2h1l1-1h1l1-1h1l1-1h1l1-1h1l1,1-1,1,1-1h1l1-1h1l1-1h1l1-1-1,1h-1l-1,1h-1l-1,1h-1l-1-1,2-2h1l1-1h1l1-1h1l1-1-1,1h-1l-1,1h-1l-1-1,1-1-1,1h-1l-1-1,1,1h1l1,1-1,1h-1l-2,2h-2l-2,2h-1l-1,1h-1l-1,1h-1l-1-1h-1l-1-1,1,1-1,1h-1l-1-1,1,1-1,1,1-1h1l1,1-2,2h-1l-1,1h-1l-1,1h-1l-1,1h-1l-1-1,1-1-1-1,1-1h1l1,1-1-1h-1l-1-1,1-1h1l2-2h1l1-1h1l1-1h1l1-1h1l1-1h1l2-2h1l1-1h1l1-1h1l1-1h1l2-2h1l1-1h1l1-1h1l1-1h1l2-2h1l1-1h1l1-1h1l1,1-1,1,1-1h1l1,1h1l1,1-1,1h-1l-2,2h-1l-1,1h-1l-1-1,1-1-1,1h-1,1l1,1-1,1h-1l-1,1h-1l-1,1,1-1h1l1-1h1l1-1h1l1-1h1l1-1h1l2-2h1l1-1h1l1-1h1l1-1h1l2-2h1l1-1h1l1-1h1l1-1h1l1-1h1l1,1-1,1,1-1h1l1-1h1l1-1h1l1-1h1l2-2h1l1-1h1l1-1h1l1-1h1l1-1-1,1h-1l-1,1h-1l-1,1h-1l-1,1h-1l-1-1,2-2h1l1-1h1l1-1h1l1-1h1l1-1h1l1,1-1,1,1-1h1l1-1h1l1-1h1l1-1h1l2-2h1l1-1h1l1-1h1l1-1h1l1-1-1,1h-1l-1,1h-1l-1,1h-1l-1,1h-1l-1-1,2-2h1l1-1h1l1-1h1l1-1h1l1-1-1,1h-1l-1,1h-1l-1,1h-1l-1,1h-1l-2,2h-1l-1,1h-1l-1,1h-1l-1,1h-1l-1-1h-1l-1-1,1-1h1-1l-1-1,1-1h1l2-2h1l1-1h1l1-1h1l1-1h1l1-1h1l1,1h1l1,1-1-1,1-1-1,1h-1l-1-1,2-2h1l1-1h1l1-1h1l1-1h1l1,1h1l1,1-1,1h-1,1l1,1-1,1h-1l-1,1,1-1h1l1-1h1l1-1h1l1-1h1l2-2h1l1-1h1l1-1h1l1-1h1l1-1h1l2-2h1l1-1h1l1-1h1l1-1h1l1,1-2,2h-1l-1,1h-1l-1,1h-1l-1,1,1-1h1l1-1h1l1-1h1l2-2h1l1-1h1l1-1h1l1-1h1l1-1-1,1h-1l-1,1h-1l-1-1,2-2h1l1-1h1l1-1-1,1h-1l-1,1h-1l-1-1,1-1-1-1,1,1-1,1h-1l-1-1,1,1h1l1,1-1,1h-1l-1,1h-1l-2,2h-1l-1,1h-1l-1,1h-1l-1,1h-1l-2,2h-1l-1,1h-1l-1,1h-1l-1,1h-1l-1,1h-1l-2,2h-1l-1,1h-1l-1,1h-1l-1-1,1-1-1-1h-1l-1-1,2-2h1l1-1h1l1-1h1l1-1h1l1,1-1,1,1,1-1-1,1-1h1-1l-1-1,1-1h1l2-2h1l1-1h1l1-1h1l1,1-1,1,1,1-1,1,1-1-1-1,1-1h1-1l-1-1,1-1h1l1-1h1l2-2h1l1-1h1l1-1h1l1-1h1l2-2h1l1-1h1l1-1h1l1-1h1l2-2h1l2-2h1l9-9v-1l2-2v-1l1-1v-2l1-1v-2l1-1v-11l-1-1v-2l-1-1v-1l-1-1v-2l-2-2v-1l-3-3v-1l-3-3h-1l-4-4h-1l-2-2h-1l-1-1h-1l-2-2h-1l-1-1h-1l-2-2h-1l-1-1h-1l-1-1h-1l-2-2h-1l-1-1h-1l-1-1h-1l-2-2h-1l-1-1h-1l-1-1h-1l-2-2h-1l-1-1h-1l-1-1h-1l-2-2h-1l-1-1h-1l-1-1h-1l-2-2h-1l-1-1h-1l-2-2h-1l-1-1h-1l-2-2h-1l-1-1h-1l-1-1h-1l-2-2h-1l-1-1h-1l-1-1h-1l-2-2h-1l-1-1h-1l-1-1h-1l-2-2h-1l-1-1h-1l-1-1h-1l-2-2h-1l-1-1h-1l-1-1h-1l-2-2h-1l-1-1h-1l-2-2h-1l-1-1h-1l-1-1h-1l-2-2h-1l-1-1h-1l-2-2h-1l-1-1h-1l-1-1h-1l-2-2h-1l-1-1h-1l-1-1h-1l-2-2h-1l-1-1h-1l-1-1h-1l-2-2h-1l-1-1h-1l-1-1h-1l-2-2h-1l-1-1h-1l-1-1h-1l-2-2h-1l-1-1h-1l-2-2h-1l-1-1h-1l-1-1h-1l-2-2h-1l-1-1h-1l-1-1h-1l-2-2h-1l-1-1h-1l-1-1h-1l-2-2h-1l-1-1h-1l-2-2h-1l-1-1h-1l-1-1h-1l-2-2h-1l-1-1h-1l-1-1h-1l-2-2h-1l-1-1h-1l-2-2h-1l-1-1h-1l-1-1h-1l-2-2h-1l-1-1h-1l-1-1h-1l-2-2h-1l-1-1h-1l-1-1h-1l-2-2h-1l-1-1h-1l-1-1h-1l-2-2h-1l-1-1h-1l-2-2h-1l-1-1h-1l-2-2h-1l-1-1h-1l-1-1h-1l-2-2h-1l-1-1h-1l-1-1h-1l-2-2h-1l-1-1h-1l-1-1h-1l-2-2h-1l-1-1h-1l-1-1h-1l-2-2h-1l-1-1h-1l-1-1h-1l-2-2h-1l-2-2h-1l-1-1h-2l-1-1h-1l-1-1h-1l-1-1h-2l-1-1h-1l-1-1h-2l-1-1h-3l-1-1h-3l-1-1h-3l-1-1h-5l-1-1h-5l-1-1h-12l-1-1h-6Z"/>
    <path class="cls-6" d="M478.7,784.84l1-1h1l1,1h1l1,1-1,1h-1,1l1,1-1,1h-1l-1,1h-1l-1-1,1,1-1,1h-1l-2,2h-1l-1-1,1-1-1-1,1-1h1l1-1-1,1h-1l-1,1,1,1-1,1h-1,1l1,1-1,1h-1l-1,1h-1l-1,1h-1l-1-1,1-1-1-1,1-1h1l1,1-1-1h-1l-1-1,1-1h1l1-1h1l2-2h1l1-1h1l1-1h1Z"/>
    <path class="cls-6" d="M631.7,700.84l1-1h1l1,1-1,1,1,1h1l1,1-1,1h-1l-1,1h-1l-1,1h-1l-2,2h-1l-1,1h-1l-1,1h-1l-1,1h-1l-2,2h-1l-1,1h-1l-1,1h-1l-1,1h-1l-1-1,1-1-1-1,1-1-1-1,1-1h1l2-2h1l1-1h1l1,1-1,1,1-1h1l1,1-1-1h-1l-1-1,1-1h1l2-2h1l1-1h1l1-1h1l1-1h1l1-1h1Z"/>
    <path class="cls-6" d="M711.7,656.84l1-1h1l1,1-1,1,1,1h1l1,1-1,1h-1l-1,1h-1l-2,2h-1l-1-1,2-2-1-1-1,1,1,1-1,1h-1,1l1,1-1,1h-1l-1,1h-1l-1,1h-1l-1,1h-1l-2,2h-1l-1,1h-1l-1,1h-1l-1,1h-1l-2,2h-1l-1,1h-1l-1,1h-1l-1-1,1-1-1,1h-1,1l1,1-1,1h-1l-2,2h-1l-1,1h-1l-1,1h-1l-1-1h-1l-1-1,1-1h1l1-1h1l1,1,1-1h1-1l-1-1-1,1h-1l-1,1h-1l-1-1,2-2h1l1-1h1l1-1h1l1-1h1l1,1-1-1,2-2h1l1-1h1l1-1h1l1-1h1l1,1-1,1,1,1-1-1,1-1h1l1,1-1-1h-1l-1-1,1-1h1l2-2h1l1-1h1l1-1h1l1,1-1,1,1,1-1-1,1-1h1-1l-1-1,1-1h1l1-1h1l2-2h1l1-1h1l1-1h1Z"/>
    <path class="cls-6" d="M929.7,536.84l1-1h1l1,1-1,1,1,1-1,1,1-1h1l1,1-2,2h-1l-1,1h-1l-1,1h-1l-1-1,1-1-1-1h-1l-1-1,2-2h1l1-1h1Z"/>
    <path class="cls-6" d="M962.7,518.84l1-1h1l1,1-1,1,1,1-1,1h-1l-1-1,1,1-1,1,1-1h1l1,1-2,2h-1l-1,1h-1l-1,1h-1l-1-1,1-1-1,1h-1l-1-1,1,1h1l1,1-1,1h-1l-2,2h-1l-1,1h-1l-1,1h-1l-1-1,1-1-1,1h-1l-1-1,1,1h1l1,1-1,1h-1l-1,1h-1l-2,2h-1l-1,1h-1l-1,1h-1l-1,1h-1l-1,1h-1l-1-1,1-1-1-1h-1l-1-1,1-1h1l1-1h1l2-2h1l1-1h1l1-1h1l1-1h1l1-1h1l2-2h1l1-1h1l1-1h1l1-1h1l2-2h1l1-1h1l1-1h1Z"/>
    <path class="cls-6" d="M1042.7,474.84l1-1h1l1,1-1,1,1,1h1l1,1-2,2h-1l-1,1h-1l-1,1h-1l-1,1h-1l-1,1h-1l-2,2h-1l-1,1h-1l-1,1h-1l-1,1h-1l-2,2h-1l-1,1h-1l-1,1h-1l-1,1h-1l-1,1h-1l-2,2h-1l-1,1h-1l-1,1h-1l-1,1h-1l-1-1h-1l-1-1,1-1h1-1l-1-1,1-1h1l2-2h1l1-1h1l1-1h1l1-1h1l1-1h1l2-2h1l1-1h1l1-1h1l1-1h1l2-2h1l1-1h1l1-1h1l1-1h1l2-2h1l1-1h1l1-1h1Z"/>
    <path class="cls-6" d="M778.7,213.84l1-1h6l1,1h12l1,1h5l1,1h5l1,1h3l1,1h3l1,1h2l1,1h3l1,1h1l1,1h2l2,2h1l1,1h2l1,1h1l2,2h1l2,2h1l1,1h1l1,1h1l2,2h1l1,1h1l1,1h1l2,2h1l1,1h1l1,1h1l2,2h1l1,1h1l1,1h1l2,2h1l1,1h1l1,1h1l2,2h1l1,1h1l2,2h1l1,1h1l2,2h1l1,1h1l1,1h1l2,2h1l1,1h1l1,1h1l2,2h1l1,1h1l1,1h1l2,2h1l1,1h1l1,1h1l2,2h1l1,1h1l2,2h1l1,1h1l1,1h1l2,2h1l1,1h1l1,1h1l2,2h1l1,1h1l2,2h1l1,1h1l1,1h1l2,2h1l1,1h1l1,1h1l2,2h1l1,1h1l1,1h1l2,2h1l1,1h1l2,2h1l1,1h1l1,1h1l2,2h1l1,1h1l1,1h1l2,2h1l1,1h1l1,1h1l2,2h1l1,1h1l1,1h1l2,2h1l1,1h1l1,1h1l2,2h1l1,1h1l2,2h1l1,1h1l1,1h1l2,2h1l1,1h1l2,2h1l1,1h1l1,1h1l2,2h1l1,1h1l1,1h1l2,2h1l1,1h1l1,1h1l2,2h1l1,1h1l1,1h1l2,2h1l1,1h1l1,1h1l2,2h1l1,1h1l2,2h1l1,1h1l2,2h1l1,1h1l1,1h1l2,2h1l1,1h1l1,1h1l2,2h1l1,1h1l1,1h1l2,2h1l1,1h1l1,1h1l2,2h1l1,1h1l1,1h1l2,2h1l1,1h1l2,2h1l1,1h1l2,2h1l4,4h1l4,4v1l3,3v1l2,2v1l1,1v1l1,1v2l1,1v11l-1,1v2l-1,1v1l-1,1v1l-2,2v1l-10,10h-1l-2,2h-1l-2,2h-1l-1,1h-1l-1,1h-1l-1,1h-1l-2,2h-1l-1,1h-1l-1,1h-1l-1,1h-1l-2,2h-1l-1,1h-1l-1,1h-1l-1,1h-1l-1,1h-1l-2,2h-1l-1,1h-1l-1,1h-1l-1,1h-1l-1,1h-1l-2,2h-1l-1,1h-1l-1,1h-1l-1,1h-1l-2,2h-1l-1,1h-1l-1,1h-1l-1,1h-1l-1,1h-1l-2,2h-1l-1,1h-1l-1,1h-1l-1,1h-1l-1,1h-1l-2,2h-1l-1,1h-1l-1,1h-1l-1,1h-1l-2,2h-1l-1,1h-1l-1,1h-1l-1,1h-1l-2,2h-1l-1,1h-1l-1,1h-1l-1,1h-1l-1,1h-1l-2,2h-1l-1,1h-1l-1,1h-1l-1,1h-1l-1,1h-1l-2,2h-1l-1,1h-1l-1,1h-1l-1,1h-1l-2,2h-1l-1,1h-1l-1,1h-1l-1,1h-1l-2,2h-1l-1,1h-1l-1,1h-1l-1,1h-1l-1,1h-1l-2,2h-1l-1,1h-1l-1,1h-1l-1,1h-1l-1,1h-1l-2,2h-1l-1,1h-1l-1,1h-1l-1,1h-1l-2,2h-1l-1,1h-1l-1,1h-1l-1,1h-1l-1,1h-1l-2,2h-1l-1,1h-1l-1,1h-1l-1,1h-1l-1,1h-1l-2,2h-1l-1,1h-1l-1,1h-1l-1,1h-1l-1,1h-1l-2,2h-1l-1,1h-1l-1,1h-1l-1,1h-1l-2,2h-1l-1,1h-1l-1,1h-1l-1,1h-1l-2,2h-1l-1,1h-1l-1,1h-1l-1,1h-1l-1,1h-1l-1,1h-1l-2,2h-1l-1,1h-1l-1,1h-1l-1,1h-1l-2,2h-1l-1,1h-1l-1,1h-1l-1,1h-1l-2,2h-1l-1,1h-1l-1,1h-1l-1,1h-1l-2,2h-1l-1,1h-1l-1,1h-1l-1,1h-1l-1,1h-1l-1,1h-1l-2,2h-1l-1,1h-1l-1,1h-1l-1,1h-1l-2,2h-1l-1,1h-1l-1,1h-1l-1,1h-1l-2,2h-1l-1,1h-1l-1,1h-1l-1,1h-1l-2,2h-1l-1,1h-1l-1,1h-1l-1,1h-1l-1,1h-1l-1,1h-1l-2,2h-1l-2,2h-2l-1,1h-1l-2,2h-1l-1,1h-1l-1,1h-1l-1,1h-1l-2,2h-1l-1,1h-1l-1,1h-1l-1,1h-1l-1,1h-1l-2,2h-1l-1,1h-1l-1,1h-1l-1,1h-1l-1,1h-1l-2,2h-1l-1,1h-1l-1,1h-1l-1,1h-1l-2,2h-1l-1,1h-1l-1,1h-1l-1,1h-1l-2,2h-1l-1,1h-1l-1,1h-1l-1,1h-1l-1,1h-1l-2,2h-1l-1,1h-1l-1,1h-1l-1,1h-1l-1,1h-1l-2,2h-1l-1,1h-1l-1,1h-1l-1,1h-1l-2,2h-1l-1,1h-1l-1,1h-1l-1,1h-1l-2,2h-1l-1,1h-1l-1,1h-1l-1,1h-1l-1,1h-1l-2,2h-1l-1,1h-1l-1,1h-1l-1,1h-1l-1,1h-1l-2,2h-1l-1,1h-1l-1,1h-1l-1,1h-1l-2,2h-1l-1,1h-1l-1,1h-1l-1,1h-1l-1,1h-1l-2,2h-1l-1,1h-1l-1,1h-1l-1,1h-1l-2,2h-1l-1,1h-1l-1,1h-1l-1,1h-1l-1,1h-1l-1,1h-1l-2,2h-1l-1,1h-1l-1,1h-1l-2,2h-1l-1,1h-1l-1,1h-1l-1,1h-1l-1,1h-1l-2,2h-1l-1,1h-1l-1,1h-1l-1,1h-1l-2,2h-1l-1,1h-1l-1,1h-1l-1,1h-1l-1,1h-1l-1,1h-1l-2,2h-1l-1,1h-1l-1,1h-1l-1,1h-1l-2,2h-1l-1,1h-1l-1,1h-1l-1,1h-1l-2,2h-1l-1,1h-1l-1,1h-1l-1,1h-1l-1,1h-1l-1,1h-1l-2,2h-1l-1,1h-1l-1,1h-1l-1,1h-1l-2,2h-1l-1,1h-1l-1,1h-1l-1,1h-1l-2,2h-1l-1,1h-1l-1,1h-1l-1,1h-1l-2,2h-1l-1,1h-1l-1,1h-1l-1,1h-1l-1,1h-1l-1,1h-1l-1,1h-1l-2,2h-1l-1,1h-1l-1,1h-1l-2,2h-1l-1,1h-1l-1,1h-1l-1,1h-1l-2,2h-1l-1,1h-1l-1,1h-1l-1,1h-1l-1,1h-1l-1,1h-1l-2,2h-1l-1,1h-1l-1,1h-1l-1,1h-1l-2,2h-1l-1,1h-1l-1,1h-1l-1,1h-1l-2,2h-1l-1,1h-1l-1,1h-1l-1,1h-1l-2,2h-1l-1,1h-1l-1,1h-1l-1,1h-1l-1,1h-1l-1,1h-1l-2,2h-1l-1,1h-1l-1,1h-1l-1,1h-1l-2,2h-1l-1,1h-1l-1,1h-1l-1,1h-1l-2,2h-1l-1,1h-1l-1,1h-1l-1,1h-1l-1,1h-1l-2,2h-2l-1,1h-1l-2,2h-2l-1,1h-2l-1,1h-2l-1,1h-2l-1,1h-3l-1,1h-4l-1,1h-5l-1,1h-8l-1,1h-19l-1-1h-8l-1-1h-6l-1-1h-3l-1-1h-3l-1-1h-2l-1-1h-3l-1-1h-2l-1-1h-1l-1-1h-1l-1-1h-2l-2-2h-1l-1-1h-1l-1-1h-1l-1-1h-1l-2-2h-1l-1-1h-1l-1-1h-1l-2-2h-1l-1-1h-1l-2-2h-1l-1-1h-1l-1-1h-1l-2-2h-1l-1-1h-1l-1-1h-1l-2-2h-1l-1-1h-1l-1-1h-1l-2-2h-1l-1-1h-1l-1-1h-1l-2-2h-1l-1-1h-1l-1-1h-1l-2-2h-1l-1-1h-1l-1-1h-1l-2-2h-1l-1-1h-1l-2-2h-1l-1-1h-1l-2-2h-1l-1-1h-1l-1-1h-1l-2-2h-1l-1-1h-1l-1-1h-1l-1-1h-1l-2-2h-1l-1-1h-1l-1-1h-1l-2-2h-1l-1-1h-1l-2-2h-1l-1-1h-1l-2-2h-1l-1-1h-1l-1-1h-1l-2-2h-1l-1-1h-1l-1-1h-1l-2-2h-1l-1-1h-1l-1-1h-1l-2-2h-1l-1-1h-1l-1-1h-1l-2-2h-1l-1-1h-1l-2-2h-1l-1-1h-1l-1-1h-1l-2-2h-1l-1-1h-1l-2-2h-1l-1-1h-1l-1-1h-1l-2-2h-1l-1-1h-1l-1-1h-1l-2-2h-1l-1-1h-1l-1-1h-1l-2-2h-1l-1-1h-1l-1-1h-1l-2-2h-1l-1-1h-1l-1-1h-1l-2-2h-1l-1-1h-1l-2-2h-1l-1-1h-1l-1-1h-1l-2-2h-1l-1-1h-1l-1-1h-1l-2-2h-1l-1-1h-1l-2-2h-1l-1-1h-1l-1-1h-1l-2-2h-1l-1-1h-1l-1-1h-1l-2-2h-1l-1-1h-1l-1-1h-1l-2-2h-1l-1-1h-1l-2-2h-1l-1-1h-1l-1-1h-1l-2-2h-1l-1-1h-1l-1-1h-1l-2-2h-1l-1-1h-1l-1-1h-1l-2-2h-1l-1-1h-1l-1-1h-1l-2-2h-1l-1-1h-1l-2-2h-1l-1-1h-1l-3-3h-1l-10-10v-1l-2-2v-1l-1-1v-1l-1-1v-2l-1-1v-12l1-1v-2l1-1v-1l1-1v-1l2-2v-1l9-9h1l2-2h1l2-2h1l1-1h1l2-2h1l1-1h1l1-1h1l1-1h1l1-1h1l2-2h1l1-1h1l1-1h1l2-2h1l1-1h1l1-1h1l1-1h1l1-1h1l1-1h1l2-2h1l1-1h1l1-1h1l1-1h1l1-1h1l2-2h1l1-1h1l1-1h1l1-1h1l2-2h1l1-1h1l1-1h1l1-1h1l2-2h1l1-1h1l1-1h1l2-2h1l1-1h1l1-1h1l1-1h1l1-1h1l1-1h1l1-1h1l2-2h1l1-1h1l1-1h1l1-1h1l2-2h1l1-1h1l1-1h1l1-1h1l2-2h1l1-1h1l1-1h1l1-1h1l1-1h1l2-2h1l1-1h1l1-1h1l1-1h1l1-1h1l2-2h1l1-1h1l1-1h1l1-1h1l2-2h1l1-1h1l1-1h1l1-1h1l2-2h1l1-1h1l1-1h1l1-1h1l1-1h1l1-1h1l2-2h1l1-1h1l1-1h1l1-1h1l2-2h1l1-1h1l1-1h1l1-1h1l2-2h1l1-1h1l1-1h1l1-1h1l2-2h1l1-1h1l1-1h1l1-1h1l1-1h1l1-1h1l2-2h1l1-1h1l1-1h1l1-1h1l2-2h1l1-1h1l1-1h1l1-1h1l1-1h1l2-2h1l1-1h1l1-1h1l2-2h1l1-1h1l1-1h1l1-1h1l1-1h1l1-1h1l2-2h1l1-1h1l1-1h1l1-1h1l2-2h1l1-1h1l1-1h1l1-1h1l2-2h1l1-1h1l1-1h1l1-1h1l1-1h1l2-2h1l1-1h1l1-1h1l1-1h1l1-1h1l2-2h1l1-1h1l1-1h1l1-1h1l1-1h1l2-2h1l1-1h1l1-1h1l1-1h1l2-2h1l1-1h1l1-1h1l1-1h1l2-2h1l1-1h1l1-1h1l1-1h1l1-1h1l1-1h1l2-2h1l1-1h1l1-1h1l1-1h1l2-2h1l1-1h1l1-1h1l1-1h1l2-2h1l1-1h1l1-1h1l2-2h1l1-1h1l1-1h1l1-1h1l1-1h1l1-1h1l1-1h1l2-2h1l1-1h1l1-1h1l1-1h1l2-2h1l1-1h1l1-1h1l1-1h1l2-2h1l1-1h1l1-1h1l1-1h1l1-1h1l2-2h1l1-1h1l1-1h1l1-1h1l1-1h1l2-2h1l1-1h1l1-1h1l1-1h1l2-2h1l1-1h1l1-1h1l1-1h1l2-2h1l1-1h1l1-1h1l1-1h1l1-1h1l1-1h1l2-2h1l1-1h1l1-1h1l1-1h1l2-2h1l1-1h1l1-1h1l1-1h1l2-2h1l1-1h1l1-1h1l1-1h1l2-2h1l1-1h1l1-1h1l1-1h1l1-1h1l1-1h1l2-2h1l1-1h1l1-1h1l1-1h1l2-2h1l1-1h1l1-1h1l1-1h1l2-2h1l1-1h1l1-1h1l1-1h1l2-2h1l1-1h1l1-1h1l1-1h1l1-1h1l1-1h1l2-2h1l1-1h1l1-1h1l1-1h1l2-2h1l1-1h1l1-1h1l1-1h1l2-2h1l1-1h1l1-1h1l1-1h1l1-1h1l2-2h1l1-1h1l1-1h1l1-1h1l1-1h1l1-1h1l2-2h1l1-1h1l1-1h1l2-2h1l1-1h1l1-1h1l1-1h1l1-1h1l2-2h1l1-1h1l1-1h1l1-1h1l1-1h1l2-2h1l1-1h1l1-1h1l1-1h1l1-1h1l2-2h1l1-1h1l1-1h1l1-1h1l2-2h1l1-1h1l1-1h1l1-1h1l2-2h1l1-1h1l1-1h1l1-1h1l1-1h1l2-2h1l1-1h1l1-1h1l1-1h1l1-1h1l2-2h1l1-1h1l1-1h1l1-1h1l2-2h1l1-1h1l1-1h1l1-1h1l2-2h1l1-1h1l1-1h1l1-1h1l1-1h1l1-1h1l2-2h1l1-1h1l1-1h1l1-1h1l2-2h1l1-1h1l1-1h1l1-1h1l2-2h2l1-1h2l1-1h2l1-1h2l1-1h2l1-1h4l1-1h4l1-1h6l1-1h11Z"/>
    <path class="cls-6" d="M929.7,293.84l-1,1h-1v5h3l2,2h1l2,2h1l1,1h1l1,1h1l2,2h1l1,1h1l1,1h1l2,2h1l1,1h1l1,1h1l2,2h1l1,1h1l1,1h1l2,2h1l1,1h1l1,1h1l2,2h1l1,1h1l2,2h1l1,1h6l1-1v-3l-2-2h-1l-1-1h-1l-2-2h-1l-1-1h-1l-1-1h-1l-2-2h-1l-1-1h-1l-1-1h-1l-2-2h-1l-1-1h-1l-1-1h-1l-2-2h-1l-1-1h-1l-1-1h-1l-2-2h-1l-1-1h-1l-2-2h-1l-1-1h-1l-1-1h-1l-2-2h-1l-1-1h-2l-1-1h-3Z"/>
    <path class="cls-6" d="M929.7,293.84h3l1,1h1l1,1h1l2,2h1l1,1h1l1,1h1l2,2h1l1,1h1l2,2h1l1,1h1l1,1h1l2,2h1l1,1h1l1,1h1l2,2h1l1,1h1l1,1h1l2,2h1l1,1h1l1,1h1l2,2h1l1,1h1l3,3v1l-2,2h-4l-1-1h-1l-2-2h-1l-1-1h-1l-2-2h-1l-1-1h-1l-1-1h-1l-2-2h-1l-1-1h-1l-1-1h-1l-2-2h-1l-1-1h-1l-1-1h-1l-2-2h-1l-1-1h-1l-1-1h-1l-2-2h-1l-1-1h-1l-1-1h-1l-2-2h-1l-2-2h-3l-1-1v-3l2-2Z"/>
    <path class="cls-6" d="M910.7,280.84l-1,1h-2l-1,1h-1v1l-1,1v3l1,1v1h1l1,1h1l1,1h7l1-1h2l2-2v-1l1-1-1-1v-2l-2-2h-2l-1-1h-6Z"/>
    <path class="cls-6" d="M909.7,281.84l1-1h6l1,1h1l3,3v1l1,1-1,1v1l-1,1h-1l-1,1h-1l-1,1h-7l-2-2h-1l-1-1v-1l-1-1v-2l3-3h2Z"/>
    <path class="cls-6" d="M908.7,283.84l-1,1v3h1l1,1h2l1,1h1l1-1h3l1-1h1v-2l-2-2h-9Z"/>
    <path class="cls-6" d="M909.7,283.84h7l3,3-1,1h-1l-1,1h-2l-1,1h-1l-1-1h-1l-1-1h-1l-1-1v-1l2-2Z"/>
    <path class="cls-6" d="M775.7,216.84l-1,1h-8l-1,1h-4l-1,1h-3l-1,1h-3l-1,1h-2l-1,1h-2l-1,1h-2l-1,1h-2l-1,1h-1l-1,1h-1l-2,2h-1l-1,1h-1l-1,1h-1l-1,1h-1l-1,1h-1l-2,2h-1l-1,1h-1l-1,1h-1l-1,1h-1l-1,1h-1l-2,2h-1l-1,1h-1l-1,1h-1l-1,1h-1l-2,2h-1l-1,1h-1l-1,1h-1l-1,1h-1l-2,2h-1l-1,1h-1l-1,1h-1l-1,1h-1l-1,1h-1l-1,1h-1l-2,2h-1l-1,1h-1l-1,1h-1l-1,1h-1l-2,2h-1l-1,1h-1l-1,1h-1l-1,1h-1l-1,1h-1l-2,2h-1l-1,1h-1l-1,1h-1l-1,1h-1l-2,2h-1l-1,1h-1l-1,1h-1l-1,1h-1l-1,1h-1l-2,2h-1l-1,1h-1l-1,1h-1l-1,1h-1l-2,2h-1l-1,1h-1l-1,1h-1l-1,1h-1l-1,1h-1l-2,2h-1l-1,1h-1l-1,1h-1l-1,1h-1l-2,2h-1l-1,1h-1l-1,1h-1l-1,1h-1l-1,1h-1l-2,2h-1l-1,1h-1l-1,1h-1l-1,1h-1l-1,1h-1l-2,2h-1l-1,1h-1l-1,1h-1l-1,1h-1l-2,2h-1l-1,1h-1l-1,1h-1l-1,1h-1l-2,2h-1l-1,1h-1l-1,1h-1l-1,1h-1l-1,1h-1l-1,1h-1l-2,2h-1l-1,1h-1l-1,1h-1l-1,1h-1l-2,2h-1l-1,1h-1l-1,1h-1l-1,1h-1l-2,2h-1l-1,1h-1l-1,1h-1l-1,1h-1l-1,1h-1l-2,2h-1l-1,1h-1l-1,1h-1l-1,1h-1l-1,1h-1l-2,2h-1l-1,1h-1l-1,1h-1l-1,1h-1l-2,2h-1l-1,1h-1l-1,1h-1l-1,1h-1l-2,2h-1l-1,1h-1l-1,1h-1l-1,1h-1l-1,1h-1l-2,2h-1l-1,1h-1l-1,1h-1l-1,1h-1l-1,1h-1l-2,2h-1l-1,1h-1l-1,1h-1l-1,1h-1l-2,2h-1l-1,1h-1l-1,1h-1l-1,1h-1l-2,2h-1l-1,1h-1l-1,1h-1l-1,1h-1l-1,1h-1l-1,1h-1l-2,2h-1l-1,1h-1l-1,1h-1l-1,1h-1l-2,2h-1l-1,1h-1l-1,1h-1l-1,1h-1l-2,2h-1l-1,1h-1l-1,1h-1l-1,1h-1l-1,1h-1l-2,2h-1l-1,1h-1l-1,1h-1l-1,1h-1l-1,1h-1l-2,2h-1l-1,1h-1l-1,1h-1l-1,1h-1l-1,1h-1l-2,2h-1l-1,1h-1l-1,1h-1l-2,2h-1l-1,1h-1l-1,1h-1l-1,1h-1l-1,1h-1l-2,2h-1l-1,1h-1l-1,1h-1l-1,1h-1l-1,1h-1l-2,2h-1l-1,1h-1l-1,1h-1l-1,1h-1l-1,1h-1l-2,2h-1l-1,1h-1l-1,1h-1l-1,1h-1l-2,2h-1l-1,1h-1l-1,1h-1l-1,1h-1l-2,2h-1l-1,1h-1l-1,1h-1l-1,1h-1l-1,1h-1l-1,1h-1l-2,2h-1l-1,1h-1l-1,1h-1l-1,1h-1l-2,2h-1l-1,1h-1l-1,1h-1l-1,1h-1l-2,2h-1l-1,1h-1l-1,1h-1l-1,1h-1l-2,2h-1l-1,1h-1l-1,1h-1l-1,1h-1l-1,1h-1l-1,1h-1l-2,2h-1l-1,1h-1l-1,1h-1l-1,1h-1l-2,2h-1l-1,1h-1l-1,1h-1l-1,1h-1l-1,1h-1l-2,2h-1l-1,1h-1l-1,1h-1l-2,2h-1l-1,1h-1l-1,1h-1l-1,1h-1l-1,1h-1l-1,1h-1l-2,2h-1l-1,1h-1l-1,1h-1l-1,1h-1l-2,2h-1l-1,1h-1l-1,1h-1l-1,1h-1l-2,2h-1l-1,1h-1l-1,1h-1l-1,1h-1l-1,1h-1l-1,1h-1l-2,2h-1l-1,1h-1l-1,1h-1l-1,1h-1l-2,2h-1l-1,1h-1l-1,1h-1l-1,1h-1l-2,2h-1l-1,1h-1l-1,1h-1l-1,1h-1l-2,2h-1l-1,1h-1l-1,1h-1l-1,1h-1l-1,1h-1l-1,1h-1l-2,2h-1l-1,1h-1l-1,1h-1l-1,1h-1l-2,2h-1l-1,1h-1l-1,1h-1l-1,1h-1l-2,2h-1l-1,1h-1l-1,1h-1l-1,1h-1l-1,1h-1l-2,2h-1l-1,1h-1l-1,1h-1l-1,1h-1l-1,1h-1l-2,2h-1l-1,1h-1l-1,1h-1l-1,1h-1l-2,2h-1l-1,1h-1l-1,1h-1l-1,1h-1l-1,1h-1l-2,2h-1l-1,1h-1l-1,1h-1l-1,1h-1l-2,2h-1l-1,1h-1l-1,1h-1l-1,1h-1l-1,1h-1l-2,2h-1l-1,1h-1l-1,1h-1l-1,1h-1l-1,1h-1l-2,2h-1l-1,1h-1l-1,1h-1l-1,1h-1l-2,2h-1l-1,1h-1l-1,1h-1l-1,1h-1l-2,2h-1l-1,1h-1l-1,1h-1l-1,1h-1l-2,2h-1l-9,9v1l-2,2v1l-1,1v2l-1,1v4l-1,1v5l1,1v4l1,1v2l1,1v1l2,2v1l3,3v1l3,3h1l3,3h1l2,2h1l1,1h1l2,2h1l1,1h1l1,1h1l2,2h1l1,1h1l1,1h1l2,2h1l1,1h1l2,2h1l1,1h1l2,2h1l1,1h1l1,1h1l2,2h1l1,1h1l1,1h1l2,2h1l1,1h1l1,1h1l2,2h1l1,1h1l1,1h1l2,2h1l1,1h1l1,1h1l2,2h1l1,1h1l2,2h1l1,1h1l1,1h1l2,2h1l1,1h1l2,2h1l1,1h1l1,1h1l2,2h1l1,1h1l1,1h1l2,2h1l1,1h1l1,1h1l2,2h1l1,1h1l1,1h1l2,2h1l1,1h1l2,2h1l1,1h1l1,1h1l2,2h1l1,1h1l1,1h1l2,2h1l1,1h1l1,1h1l2,2h1l1,1h1l1,1h1l2,2h1l1,1h1l2,2h1l1,1h1l1,1h1l2,2h1l1,1h1l1,1h1l2,2h1l1,1h1l2,2h1l1,1h1l1,1h1l2,2h1l1,1h1l1,1h1l2,2h1l1,1h1l1,1h1l2,2h1l1,1h1l2,2h1l1,1h1l1,1h1l2,2h1l1,1h1l2,2h1l1,1h1l1,1h1l2,2h1l1,1h1l1,1h1l2,2h1l1,1h1l1,1h1l2,2h1l1,1h1l1,1h1l2,2h1l1,1h1l1,1h1l2,2h1l1,1h1l2,2h1l1,1h1l1,1h1l2,2h1l1,1h1l1,1h1l2,2h1l1,1h1l1,1h1l2,2h1l1,1h1l1,1h2l1,1h1l1,1h1l1,1h2l1,1h2l1,1h3l1,1h2l1,1h4l1,1h6l1,1h29l1-1h6l1-1h4l1-1h2l1-1h3l1-1h2l1-1h1l1-1h2l1-1h1l1-1h1l1-1h1l1-1h1l1-1h1l1-1h1l1-1h1l1-1h1l2-2h1l1-1h1l1-1h1l1-1h1l2-2h1l1-1h1l1-1h1l1-1h1l2-2h1l1-1h1l1-1h1l1-1h1l2-2h1l1-1h1l1-1h1l1-1h1l1-1h1l1-1h1l2-2h1l1-1h1l1-1h1l1-1h1l2-2h1l1-1h1l1-1h1l1-1h1l2-2h1l1-1h1l1-1h1l1-1h1l1-1h1l2-2h1l1-1h1l1-1h1l1-1h1l1-1h1l2-2h1l1-1h1l1-1h1l1-1h1l2-2h1l1-1h1l1-1h1l1-1h1l2-2h2l2-2h1l1-1h1l1-1h1l2-2h1l1-1h1l1-1h1l1-1h1l1-1h1l2-2h1l1-1h1l1-1h1l1-1h1l2-2h1l1-1h1l1-1h1l1-1h1l2-2h1l1-1h1l1-1h1l1-1h1l1-1h1l2-2h1l1-1h1l1-1h1l1-1h1l1-1h1l2-2h1l1-1h1l1-1h1l1-1h1l2-2h1l1-1h1l1-1h1l1-1h1l1-1h1l2-2h1l1-1h1l1-1h1l1-1h1l1-1h1l2-2h1l1-1h1l1-1h1l1-1h1l2-2h1l1-1h1l1-1h1l1-1h1l1-1h1l2-2h1l1-1h1l1-1h1l1-1h1l2-2h2l2-2h1l2-2h1l1-1h1l1-1h1l1-1h1l1-1h1l1-1h1l1-1h1l2-2h1l1-1h1l1-1h1l2-2h1l1-1h1l1-1h1l1-1h1l1-1h1l1-1h1l2-2h1l1-1h1l1-1h1l1-1h1l1-1h1l2-2h1l1-1h1l1-1h1l1-1h1l2-2h1l1-1h1l1-1h1l1-1h1l2-2h1l1-1h1l1-1h1l1-1h1l1-1h1l2-2h1l1-1h1l1-1h1l1-1h1l1-1h1l2-2h1l1-1h1l1-1h1l1-1h1l2-2h1l1-1h1l1-1h1l1-1h1l2-2h1l1-1h1l1-1h1l1-1h1l1-1h1l1-1h1l2-2h1l1-1h1l1-1h1l1-1h1l2-2h1l1-1h1l1-1h1l1-1h1l2-2h1l1-1h1l1-1h1l1-1h1l2-2h1l1-1h1l1-1h1l1-1h1l1-1h1l1-1h1l2-2h1l1-1h1l1-1h1l1-1h1l2-2h1l1-1h1l1-1h1l1-1h1l2-2h1l1-1h1l1-1h1l1-1h1l1-1h1l2-2h1l1-1h1l1-1h1l1-1h1l1-1h1l2-2h1l1-1h1l1-1h1l1-1h1l2-2h1l1-1h1l1-1h1l1-1h1l2-2h1l1-1h1l1-1h1l1-1h1l1-1h1l2-2h1l1-1h1l1-1h1l1-1h1l1-1h1l2-2h1l1-1h1l1-1h1l1-1h1l2-2h1l1-1h1l1-1h1l1-1h1l2-2h1l1-1h1l1-1h1l1-1h1l1-1h1l2-2h1l1-1h1l1-1h1l1-1h1l1-1h1l2-2h1l1-1h1l1-1h1l1-1h1l1-1h1l2-2h1l1-1h1l1-1h1l2-2h1l1-1h1l1-1h1l1-1h1l1-1h1l1-1h1l2-2h1l1-1h1l1-1h1l1-1h1l1-1h1l2-2h1l1-1h1l1-1h1l1-1h1l2-2h1l1-1h1l1-1h1l1-1h1l2-2h1l1-1h1l1-1h1l1-1h1l1-1h1l2-2h1l1-1h1l1-1h1l1-1h1l1-1h1l2-2h1l1-1h1l1-1h1l1-1h1l2-2h1l1-1h1l1-1h1l1-1h1l2-2h1l1-1h1l1-1h1l1-1h1l1-1h1l2-2h1l1-1h1l1-1h1l1-1h1l1-1h1l2-2h1l1-1h1l1-1h1l1-1h1l2-2h1l1-1h1l1-1h1l1-1h1l1-1h1l2-2h1l1-1h1l1-1h1l1-1h1l1-1h1l2-2h1l1-1h1l1-1h1l2-2h1l2-2h1l8-8v-1l2-2v-2l1-1v-1l1-1v-2l1-1v-9l-1-1v-2l-1-1v-2l-1-1v-1l-1-1v-1l-2-2v-1l-7-7h-1l-2-2h-1l-2-2h-1l-1-1h-1l-1-1h-1l-2-2h-1l-1-1h-1l-2-2h-1l-1-1h-1l-1-1h-1l-2-2h-1l-1-1h-1l-2-2h-1l-1-1h-1l-1-1h-1l-2-2h-1l-1-1h-1l-1-1h-1l-2-2h-1l-1-1h-1l-1-1h-1l-1-1h-2l-1-1h-4l-1,1h-2l-1,1h-1l-1,1h-1l-1,1h-1l-1,1h-3l-1,1h-10l-1-1h-3l-1-1h-2l-1-1h-1l-1-1h-1l-2-2h-1l-1-1h-1l-2-2h-1l-1-1h-1l-2-2h-1l-1-1h-1l-1-1h-1l-2-2h-1l-1-1h-1l-1-1h-1l-2-2h-1l-1-1h-1l-1-1h-1l-2-2h-1l-1-1h-1l-1-1h-1l-2-2h-1l-1-1h-1l-1-1h-1l-2-2h-1l-1-1h-1l-1-1h-1l-2-2h-1l-1-1h-1l-2-2h-1l-1-1h-1l-1-1h-1l-2-2h-1l-1-1h-1l-2-2h-1l-1-1h-1l-1-1h-1l-1-1h-1l-2-2h-1l-1-1h-1l-1-1h-1l-2-2h-1l-1-1h-1l-2-2h-1l-1-1h-1l-2-2h-1l-1-1h-1l-1-1h-1l-2-2h-1l-1-1h-1l-1-1h-1l-2-2h-1l-1-1h-1l-1-1h-1l-2-2h-1l-1-1h-1l-1-1h-1l-2-2h-1l-1-1h-1l-2-2h-1l-1-1h-1l-1-1h-1l-2-2h-1l-2-2h-1l-1-1v-1l-2-2v-3l2-2v-1l1-1h1l2-2h1l1-1h1l2-2v-3l-3-3h-1l-1-1h-1l-2-2h-1l-1-1h-1l-1-1h-1l-2-2h-1l-1-1h-1l-2-2h-1l-1-1h-1l-1-1h-1l-2-2h-1l-1-1h-1l-1-1h-1l-2-2h-1l-1-1h-1l-1-1h-1l-2-2h-1l-1-1h-1l-1-1h-1l-2-2h-2l-1-1h-1l-1-1h-2l-1-1h-1l-1-1h-2l-1-1h-3l-1-1h-3l-1-1h-3l-1-1h-4l-1-1h-9l-1-1h-16Z"/>
    <path class="cls-6" d="M774.7,217.84l1-1h16l1,1h9l1,1h4l1,1h3l1,1h3l1,1h3l1,1h2l1,1h1l1,1h1l1,1h2l1,1h1l2,2h1l1,1h1l1,1h1l1,1h1l2,2h1l1,1h1l2,2h1l1,1h1l1,1h1l2,2h1l1,1h1l1,1h1l1,1h1l2,2h1l1,1h1l2,2h1l1,1h1l1,1h1l2,2h1l4,4v1l-3,3h-1l-1,1h-1l-4,4v1l-1,1v4l5,5h1l2,2h1l1,1h1l1,1h1l2,2h1l1,1h1l1,1h1l2,2h1l1,1h1l2,2h1l1,1h1l1,1h1l2,2h1l1,1h1l1,1h1l2,2h1l1,1h1l1,1h1l2,2h1l1,1h1l1,1h1l2,2h1l1,1h1l2,2h1l1,1h1l1,1h1l2,2h1l1,1h1l1,1h1l2,2h1l1,1h1l2,2h1l1,1h1l1,1h1l2,2h1l1,1h1l1,1h1l2,2h1l1,1h1l1,1h1l2,2h1l1,1h1l2,2h1l1,1h1l1,1h1l2,2h1l1,1h1l1,1h1l2,2h1l1,1h1l1,1h1l2,2h1l1,1h1l1,1h1l2,2h1l1,1h1l2,2h1l1,1h1l1,1h1l2,2h2l1,1h2l1,1h3l1,1h10l1-1h3l1-1h1l1-1h2l1-1h1l1-1h1l1-1h4l1,1h1l1,1h1l1,1h1l1,1h1l2,2h1l1,1h1l1,1h1l2,2h1l1,1h1l1,1h1l2,2h1l1,1h1l2,2h1l1,1h1l1,1h1l2,2h1l1,1h1l1,1h1l2,2h1l1,1h1l2,2h1l2,2h1l8,8v1l2,2v1l1,1v1l1,1v1l1,1v2l1,1v9l-1,1v2l-1,1v1l-1,1v1l-2,2v1l-9,9h-1l-2,2h-1l-2,2h-1l-1,1h-1l-1,1h-1l-2,2h-1l-1,1h-1l-1,1h-1l-1,1h-1l-1,1h-1l-2,2h-1l-1,1h-1l-1,1h-1l-1,1h-1l-1,1h-1l-2,2h-1l-1,1h-1l-1,1h-1l-1,1h-1l-2,2h-1l-1,1h-1l-1,1h-1l-1,1h-1l-1,1h-1l-2,2h-1l-1,1h-1l-1,1h-1l-1,1h-1l-2,2h-1l-1,1h-1l-1,1h-1l-1,1h-1l-1,1h-1l-2,2h-1l-1,1h-1l-1,1h-1l-1,1h-1l-2,2h-1l-1,1h-1l-1,1h-1l-1,1h-1l-1,1h-1l-2,2h-1l-1,1h-1l-1,1h-1l-1,1h-1l-2,2h-1l-1,1h-1l-1,1h-1l-1,1h-1l-1,1h-1l-2,2h-1l-1,1h-1l-1,1h-1l-1,1h-1l-2,2h-1l-1,1h-1l-1,1h-1l-1,1h-1l-1,1h-1l-2,2h-1l-1,1h-1l-1,1h-1l-1,1h-1l-2,2h-1l-1,1h-1l-1,1h-1l-1,1h-1l-1,1h-1l-2,2h-1l-1,1h-1l-1,1h-1l-1,1h-1l-1,1h-1l-2,2h-1l-1,1h-1l-1,1h-1l-1,1h-1l-2,2h-1l-1,1h-1l-1,1h-1l-1,1h-1l-1,1h-1l-2,2h-1l-1,1h-1l-1,1h-1l-1,1h-1l-1,1h-1l-2,2h-1l-1,1h-1l-1,1h-1l-1,1h-1l-2,2h-1l-1,1h-1l-1,1h-1l-1,1h-1l-2,2h-1l-1,1h-1l-1,1h-1l-1,1h-1l-1,1h-1l-2,2h-1l-1,1h-1l-1,1h-1l-1,1h-1l-1,1h-1l-2,2h-1l-1,1h-1l-1,1h-1l-1,1h-1l-2,2h-1l-1,1h-1l-1,1h-1l-1,1h-1l-1,1h-1l-2,2h-1l-1,1h-1l-1,1h-1l-1,1h-1l-2,2h-1l-1,1h-1l-1,1h-1l-1,1h-1l-1,1h-1l-2,2h-1l-1,1h-1l-1,1h-1l-1,1h-1l-2,2h-1l-1,1h-1l-1,1h-1l-1,1h-1l-1,1h-1l-2,2h-1l-1,1h-1l-2,2h-2l-1,1h-1l-2,2h-1l-1,1h-1l-1,1h-1l-1,1h-1l-2,2h-1l-1,1h-1l-1,1h-1l-1,1h-1l-2,2h-1l-1,1h-1l-1,1h-1l-1,1h-1l-1,1h-1l-2,2h-1l-1,1h-1l-1,1h-1l-1,1h-1l-1,1h-1l-2,2h-1l-1,1h-1l-1,1h-1l-1,1h-1l-2,2h-1l-1,1h-1l-1,1h-1l-1,1h-1l-1,1h-1l-2,2h-1l-1,1h-1l-1,1h-1l-1,1h-1l-2,2h-1l-1,1h-1l-1,1h-1l-1,1h-1l-1,1h-1l-2,2h-1l-1,1h-1l-1,1h-1l-1,1h-1l-2,2h-1l-1,1h-1l-1,1h-1l-1,1h-1l-1,1h-1l-2,2h-1l-1,1h-1l-1,1h-1l-1,1h-1l-2,2h-1l-1,1h-1l-1,1h-1l-1,1h-1l-1,1h-1l-2,2h-1l-1,1h-1l-1,1h-1l-1,1h-1l-1,1h-1l-2,2h-1l-1,1h-1l-1,1h-1l-2,2h-1l-1,1h-1l-1,1h-1l-1,1h-1l-1,1h-1l-1,1h-1l-2,2h-1l-1,1h-1l-1,1h-1l-1,1h-1l-1,1h-1l-2,2h-1l-1,1h-1l-1,1h-1l-1,1h-1l-2,2h-1l-1,1h-1l-1,1h-1l-1,1h-1l-2,2h-1l-1,1h-1l-1,1h-1l-1,1h-1l-1,1h-1l-2,2h-1l-1,1h-1l-1,1h-1l-1,1h-1l-1,1h-1l-2,2h-1l-1,1h-1l-1,1h-1l-1,1h-1l-1,1h-1l-2,2h-1l-1,1h-1l-1,1h-1l-1,1h-1l-2,2h-1l-1,1h-1l-1,1h-1l-1,1h-1l-1,1h-1l-2,2h-1l-1,1h-1l-1,1h-1l-1,1h-1l-2,2h-1l-1,1h-1l-1,1h-1l-1,1h-1l-1,1h-1l-2,2h-1l-1,1h-1l-2,2h-1l-1,1h-1l-1,1h-1l-1,1h-1l-1,1h-1l-1,1h-1l-1,1h-1l-2,2h-1l-1,1h-1l-1,1h-1l-1,1h-1l-2,2h-1l-1,1h-1l-1,1h-1l-1,1h-1l-1,1h-1l-2,2h-1l-1,1h-1l-1,1h-1l-1,1h-1l-2,2h-1l-1,1h-1l-1,1h-1l-1,1h-1l-1,1h-1l-2,2h-1l-1,1h-1l-1,1h-1l-1,1h-1l-2,2h-1l-1,1h-1l-1,1h-1l-1,1h-1l-1,1h-1l-2,2h-1l-1,1h-1l-1,1h-1l-1,1h-1l-2,2h-1l-1,1h-1l-1,1h-1l-1,1h-1l-1,1h-1l-2,2h-1l-1,1h-1l-1,1h-1l-1,1h-1l-2,2h-1l-1,1h-1l-1,1h-1l-1,1h-1l-1,1h-1l-2,2h-2l-2,2h-2l-1,1h-1l-1,1h-2l-1,1h-3l-1,1h-2l-1,1h-4l-1,1h-6l-1,1h-29l-1-1h-6l-1-1h-4l-1-1h-2l-1-1h-3l-1-1h-2l-1-1h-2l-1-1h-1l-1-1h-1l-1-1h-1l-1-1h-1l-1-1h-1l-2-2h-1l-1-1h-1l-1-1h-1l-2-2h-1l-1-1h-1l-1-1h-1l-2-2h-1l-1-1h-1l-1-1h-1l-2-2h-1l-1-1h-1l-1-1h-1l-2-2h-1l-1-1h-1l-1-1h-1l-2-2h-1l-1-1h-1l-2-2h-1l-1-1h-1l-1-1h-1l-2-2h-1l-1-1h-1l-1-1h-1l-2-2h-1l-1-1h-1l-1-1h-1l-2-2h-1l-1-1h-1l-2-2h-1l-1-1h-1l-1-1h-1l-2-2h-1l-1-1h-1l-1-1h-1l-2-2h-1l-1-1h-1l-2-2h-1l-1-1h-1l-1-1h-1l-2-2h-1l-1-1h-1l-1-1h-1l-2-2h-1l-1-1h-1l-1-1h-1l-2-2h-1l-1-1h-1l-2-2h-1l-1-1h-1l-1-1h-1l-2-2h-1l-1-1h-1l-1-1h-1l-2-2h-1l-1-1h-1l-1-1h-1l-2-2h-1l-1-1h-1l-2-2h-1l-1-1h-1l-1-1h-1l-2-2h-1l-1-1h-1l-1-1h-1l-2-2h-1l-1-1h-1l-1-1h-1l-2-2h-1l-1-1h-1l-2-2h-1l-1-1h-1l-1-1h-1l-2-2h-1l-1-1h-1l-1-1h-1l-2-2h-1l-1-1h-1l-1-1h-1l-2-2h-1l-1-1h-1l-2-2h-1l-1-1h-1l-1-1h-1l-2-2h-1l-1-1h-1l-1-1h-1l-2-2h-1l-1-1h-1l-1-1h-1l-2-2h-1l-1-1h-1l-2-2h-1l-1-1h-1l-1-1h-1l-2-2h-1l-1-1h-1l-1-1h-1l-2-2h-1l-1-1h-1l-1-1h-1l-2-2h-1l-1-1h-1l-2-2h-1l-1-1h-1l-1-1h-1l-2-2h-1l-1-1h-1l-1-1h-1l-2-2h-1l-1-1h-1l-2-2h-1l-1-1h-1l-2-2h-1l-3-3h-1l-5-5v-1l-3-3v-1l-1-1v-1l-1-1v-1l-1-1v-4l-1-1v-5l1-1v-4l1-1v-1l1-1v-1l2-2v-1l10-10h1l2-2h1l1-1h1l1-1h1l2-2h1l1-1h1l1-1h1l1-1h1l2-2h1l1-1h1l1-1h1l1-1h1l1-1h1l2-2h1l1-1h1l1-1h1l1-1h1l1-1h1l2-2h1l1-1h1l1-1h1l1-1h1l2-2h1l1-1h1l1-1h1l1-1h1l1-1h1l2-2h1l1-1h1l1-1h1l1-1h1l2-2h1l1-1h1l1-1h1l1-1h1l1-1h1l2-2h1l1-1h1l1-1h1l1-1h1l2-2h1l1-1h1l1-1h1l1-1h1l1-1h1l2-2h1l1-1h1l1-1h1l1-1h1l1-1h1l2-2h1l1-1h1l1-1h1l1-1h1l2-2h1l1-1h1l1-1h1l1-1h1l1-1h1l2-2h1l1-1h1l1-1h1l1-1h1l2-2h1l1-1h1l1-1h1l1-1h1l1-1h1l2-2h1l1-1h1l1-1h1l1-1h1l2-2h1l1-1h1l1-1h1l1-1h1l1-1h1l2-2h1l1-1h1l1-1h1l1-1h1l1-1h1l2-2h1l1-1h1l1-1h1l1-1h1l2-2h1l1-1h1l1-1h1l1-1h1l1-1h1l2-2h1l1-1h1l2-2h2l2-2h1l1-1h1l1-1h1l1-1h1l1-1h1l2-2h1l1-1h1l1-1h1l1-1h1l2-2h1l1-1h1l1-1h1l1-1h1l1-1h1l2-2h1l1-1h1l1-1h1l1-1h1l1-1h1l2-2h1l1-1h1l1-1h1l1-1h1l2-2h1l1-1h1l1-1h1l1-1h1l2-2h1l1-1h1l1-1h1l1-1h1l1-1h1l2-2h1l1-1h1l1-1h1l1-1h1l1-1h1l2-2h1l1-1h1l1-1h1l1-1h1l2-2h1l1-1h1l1-1h1l1-1h1l1-1h1l2-2h1l1-1h1l1-1h1l1-1h1l2-2h1l1-1h1l1-1h1l1-1h1l1-1h1l2-2h1l1-1h1l1-1h1l1-1h1l2-2h1l1-1h1l1-1h1l1-1h1l1-1h1l2-2h1l1-1h1l1-1h1l1-1h1l2-2h1l1-1h1l1-1h1l1-1h1l1-1h1l2-2h1l1-1h1l1-1h1l1-1h1l1-1h1l2-2h1l1-1h1l1-1h1l1-1h1l2-2h1l1-1h1l1-1h1l1-1h1l1-1h1l2-2h1l1-1h1l1-1h1l1-1h1l1-1h1l2-2h1l1-1h1l1-1h1l1-1h1l2-2h1l1-1h1l1-1h1l1-1h1l1-1h1l2-2h1l1-1h1l1-1h1l1-1h1l2-2h1l1-1h1l1-1h1l1-1h1l1-1h1l2-2h1l1-1h1l1-1h1l1-1h1l2-2h1l1-1h1l1-1h1l1-1h1l1-1h1l2-2h1l1-1h1l1-1h1l1-1h1l1-1h1l2-2h1l1-1h1l1-1h1l1-1h1l2-2h1l1-1h1l1-1h1l1-1h1l2-2h1l1-1h1l1-1h1l1-1h1l1-1h1l2-2h1l1-1h1l1-1h1l1-1h1l1-1h1l2-2h1l1-1h1l1-1h1l1-1h1l2-2h1l1-1h1l1-1h1l1-1h1l1-1h1l2-2h1l1-1h1l1-1h1l1-1h1l2-2h1l1-1h1l1-1h1l1-1h1l1-1h1l2-2h1l1-1h1l1-1h1l1-1h1l1-1h1l2-2h1l1-1h1l1-1h1l1-1h1l2-2h1l1-1h1l1-1h1l1-1h1l1-1h1l2-2h1l1-1h1l1-1h1l1-1h1l2-2h1l1-1h1l1-1h1l1-1h1l1-1h1l2-2h1l1-1h1l1-1h1l1-1h1l2-2h1l1-1h1l1-1h1l1-1h1l1-1h1l2-2h1l1-1h1l1-1h1l1-1h1l1-1h1l2-2h1l1-1h1l1-1h1l1-1h1l2-2h1l1-1h1l1-1h1l1-1h1l1-1h1l2-2h1l1-1h1l1-1h1l1-1h1l2-2h1l1-1h1l1-1h1l1-1h1l1-1h2l1-1h2l1-1h2l1-1h3l1-1h3l1-1h4l1-1h8Z"/>
    <path class="cls-6" d="M772.7,219.84l-1,1h-7l-1,1h-4l-1,1h-2l-1,1h-3l-1,1h-2l-1,1h-2l-1,1h-2l-2,2h-2l-1,1h-1l-2,2h-1l-1,1h-1l-1,1h-1l-1,1h-1l-2,2h-1l-1,1h-1l-1,1h-1l-1,1h-1l-1,1h-1l-2,2h-1l-1,1h-1l-1,1h-1l-1,1h-1l-2,2h-1l-1,1h-1l-1,1h-1l-1,1h-1l-1,1h-1l-2,2h-1l-1,1h-1l-1,1h-1l-1,1h-1l-2,2h-1l-1,1h-1l-1,1h-1l-1,1h-1l-1,1h-1l-2,2h-1l-1,1h-1l-1,1h-1l-1,1h-1l-1,1h-1l-2,2h-1l-1,1h-1l-1,1h-1l-1,1h-1l-2,2h-1l-1,1h-1l-1,1h-1l-1,1h-1l-1,1h-1l-2,2h-1l-1,1h-1l-1,1h-1l-1,1h-1l-2,2h-1l-1,1h-1l-1,1h-1l-1,1h-1l-1,1h-1l-2,2h-1l-1,1h-1l-1,1h-1l-1,1h-1l-1,1h-1l-2,2h-1l-1,1h-1l-1,1h-1l-1,1h-1l-2,2h-1l-1,1h-1l-1,1h-1l-1,1h-1l-1,1h-1l-2,2h-1l-1,1h-1l-1,1h-1l-1,1h-1l-2,2h-1l-1,1h-1l-1,1h-1l-1,1h-1l-1,1h-1l-2,2h-1l-1,1h-1l-1,1h-1l-1,1h-1l-2,2h-1l-1,1h-1l-1,1h-1l-1,1h-1l-1,1h-1l-2,2h-1l-1,1h-1l-1,1h-1l-1,1h-1l-2,2h-1l-1,1h-1l-1,1h-1l-1,1h-1l-1,1h-1l-2,2h-1l-1,1h-1l-1,1h-1l-1,1h-1l-2,2h-1l-1,1h-1l-1,1h-1l-1,1h-1l-1,1h-1l-2,2h-1l-1,1h-1l-1,1h-1l-1,1h-1l-1,1h-1l-2,2h-1l-1,1h-1l-1,1h-1l-1,1h-1l-2,2h-1l-1,1h-1l-1,1h-1l-1,1h-1l-2,2h-1l-1,1h-1l-1,1h-1l-1,1h-1l-1,1h-1l-2,2h-1l-1,1h-1l-1,1h-1l-1,1h-1l-1,1h-1l-2,2h-1l-1,1h-1l-1,1h-1l-1,1h-1l-1,1h-1l-2,2h-1l-1,1h-1l-1,1h-1l-1,1h-1l-2,2h-1l-1,1h-1l-1,1h-1l-1,1h-1l-2,2h-1l-1,1h-1l-1,1h-1l-1,1h-1l-1,1h-1l-1,1h-1l-2,2h-1l-1,1h-1l-1,1h-1l-1,1h-1l-2,2h-1l-1,1h-1l-1,1h-1l-1,1h-1l-2,2h-1l-1,1h-1l-1,1h-1l-1,1h-1l-1,1h-1l-2,2h-1l-1,1h-1l-1,1h-1l-1,1h-1l-1,1h-1l-2,2h-1l-1,1h-1l-1,1h-1l-1,1h-1l-2,2h-1l-1,1h-1l-1,1h-1l-1,1h-1l-1,1h-1l-2,2h-1l-1,1h-1l-1,1h-1l-1,1h-1l-2,2h-1l-1,1h-1l-1,1h-1l-1,1h-1l-1,1h-1l-2,2h-1l-1,1h-1l-1,1h-1l-1,1h-1l-2,2h-1l-1,1h-1l-1,1h-1l-1,1h-1l-1,1h-1l-2,2h-1l-1,1h-1l-1,1h-1l-1,1h-1l-2,2h-1l-1,1h-1l-1,1h-1l-1,1h-1l-1,1h-1l-2,2h-1l-1,1h-1l-1,1h-1l-1,1h-1l-1,1h-1l-2,2h-1l-1,1h-1l-1,1h-1l-1,1h-1l-2,2h-1l-1,1h-1l-2,2h-2l-1,1h-1l-2,2h-1l-1,1h-1l-1,1h-1l-1,1h-1l-2,2h-1l-1,1h-1l-1,1h-1l-1,1h-1l-2,2h-1l-1,1h-1l-1,1h-1l-1,1h-1l-1,1h-1l-2,2h-1l-1,1h-1l-1,1h-1l-1,1h-1l-1,1h-1l-2,2h-1l-1,1h-1l-1,1h-1l-1,1h-1l-1,1h-1l-2,2h-1l-1,1h-1l-1,1h-1l-1,1h-1l-2,2h-1l-1,1h-1l-1,1h-1l-1,1h-1l-1,1h-1l-2,2h-1l-1,1h-1l-1,1h-1l-1,1h-1l-2,2h-1l-1,1h-1l-1,1h-1l-1,1h-1l-1,1h-1l-2,2h-1l-1,1h-1l-1,1h-1l-1,1h-1l-2,2h-1l-1,1h-1l-1,1h-1l-1,1h-1l-1,1h-1l-2,2h-1l-1,1h-1l-1,1h-1l-1,1h-1l-1,1h-1l-2,2h-1l-1,1h-1l-1,1h-1l-1,1h-1l-2,2h-1l-1,1h-1l-1,1h-1l-1,1h-1l-1,1h-1l-2,2h-1l-1,1h-1l-1,1h-1l-1,1h-1l-2,2h-1l-1,1h-1l-1,1h-1l-1,1h-1l-1,1h-1l-2,2h-1l-1,1h-1l-1,1h-1l-1,1h-1l-2,2h-1l-1,1h-1l-1,1h-1l-1,1h-1l-1,1h-1l-2,2h-1l-1,1h-1l-1,1h-1l-1,1h-1l-1,1h-1l-2,2h-1l-1,1h-1l-1,1h-1l-1,1h-1l-2,2h-1l-1,1h-1l-1,1h-1l-2,2h-1l-9,9v1l-2,2v2l-1,1v2l-1,1v9l1,1v2l1,1v2l1,1v1l3,3v1l4,4h1l3,3h1l2,2h1l1,1h1l2,2h1l1,1h1l2,2h1l1,1h1l1,1h1l2,2h1l1,1h1l1,1h1l2,2h1l1,1h1l2,2h1l1,1h1l1,1h1l1,1h1l2,2h1l1,1h1l2,2h1l1,1h1l1,1h1l2,2h1l1,1h1l2,2h1l1,1h1l1,1h1l2,2h1l1,1h1l1,1h1l2,2h1l1,1h1l1,1h1l2,2h1l1,1h1l2,2h1l1,1h1l1,1h1l2,2h1l1,1h1l1,1h1l2,2h1l1,1h1l1,1h1l2,2h1l1,1h1l2,2h1l1,1h1l1,1h1l2,2h1l1,1h1l1,1h1l2,2h1l1,1h1l1,1h1l2,2h1l1,1h1l2,2h1l1,1h1l1,1h1l2,2h1l1,1h1l1,1h1l2,2h1l1,1h1l1,1h1l2,2h1l1,1h1l2,2h1l1,1h1l1,1h1l2,2h1l1,1h1l1,1h1l2,2h1l1,1h1l1,1h1l2,2h1l1,1h1l2,2h1l1,1h1l1,1h1l2,2h1l1,1h1l1,1h1l2,2h1l1,1h1l2,2h1l1,1h1l1,1h1l2,2h1l1,1h1l1,1h1l2,2h1l1,1h1l1,1h1l2,2h1l1,1h1l2,2h1l1,1h1l1,1h1l2,2h1l1,1h1l1,1h1l2,2h1l1,1h1l1,1h1l2,2h1l1,1h1l1,1h1l2,2h1l1,1h1l1,1h1l2,2h1l1,1h1l1,1h1l1,1h2l1,1h2l1,1h1l1,1h2l1,1h3l1,1h4l1,1h4l1,1h6l1,1h21l1-1h6l1-1h4l1-1h4l1-1h3l1-1h2l1-1h1l1-1h2l1-1h1l1-1h2l2-2h1l1-1h1l1-1h1l1-1h1l2-2h1l1-1h1l1-1h1l1-1h1l1-1h1l2-2h1l1-1h1l1-1h1l1-1h1l1-1h1l2-2h1l1-1h1l1-1h1l1-1h1l2-2h1l1-1h1l1-1h1l1-1h1l1-1h1l2-2h1l1-1h1l1-1h1l1-1h1l2-2h1l1-1h1l1-1h1l1-1h1l1-1h1l2-2h1l1-1h1l1-1h1l1-1h1l2-2h1l1-1h1l1-1h1l1-1h1l1-1h1l2-2h1l1-1h1l1-1h1l2-2h1l1-1h1l1-1h1l1-1h1l2-2h2l1-1h1l2-2h1l1-1h1l1-1h1l2-2h1l1-1h1l1-1h1l1-1h1l2-2h1l1-1h1l1-1h1l1-1h1l1-1h1l2-2h1l1-1h1l1-1h1l1-1h1l1-1h1l2-2h1l1-1h1l1-1h1l1-1h1l2-2h1l1-1h1l1-1h1l1-1h1l1-1h1l2-2h1l1-1h1l1-1h1l1-1h1l1-1h1l2-2h1l1-1h1l1-1h1l1-1h1l1-1h1l2-2h1l1-1h1l1-1h1l1-1h1l2-2h1l1-1h1l1-1h1l1-1h1l2-2h1l1-1h1l1-1h1l1-1h1l1-1h1l2-2h1l1-1h1l1-1h1l1-1h1l2-2h1l1-1h1l1-1h1l1-1h1l1-1h1l2-2h1l1-1h1l1-1h1l1-1h1l1-1h1l2-2h1l1-1h1l1-1h1l1-1h1l1-1h1l2-2h1l1-1h1l1-1h1l1-1h1l2-2h1l1-1h1l1-1h1l1-1h1l2-2h1l1-1h1l1-1h1l1-1h1l1-1h1l2-2h1l1-1h1l1-1h1l1-1h1l1-1h1l2-2h1l1-1h1l1-1h1l1-1h1l2-2h1l1-1h1l1-1h1l1-1h1l2-2h1l1-1h1l1-1h1l1-1h1l1-1h1l2-2h1l1-1h1l1-1h1l1-1h1l1-1h1l2-2h1l1-1h1l1-1h1l1-1h1l2-2h1l1-1h1l1-1h1l1-1h1l1-1h1l2-2h1l1-1h1l1-1h1l1-1h1l2-2h1l1-1h1l1-1h1l1-1h1l1-1h1l2-2h1l1-1h1l1-1h1l1-1h1l1-1h1l2-2h1l1-1h1l1-1h1l1-1h1l2-2h1l1-1h1l1-1h1l1-1h1l1-1h1l2-2h1l1-1h1l1-1h1l1-1h1l2-2h1l1-1h1l1-1h1l1-1h1l1-1h1l2-2h1l1-1h1l1-1h1l1-1h1l2-2h1l1-1h1l1-1h1l1-1h1l1-1h1l2-2h1l1-1h1l1-1h1l1-1h1l1-1h1l2-2h1l1-1h1l1-1h1l1-1h1l2-2h1l1-1h1l1-1h1l1-1h1l2-2h1l1-1h1l1-1h1l1-1h1l1-1h1l2-2h1l1-1h1l1-1h1l1-1h1l1-1h1l2-2h1l1-1h1l1-1h1l1-1h1l2-2h1l1-1h1l1-1h1l1-1h1l1-1h1l2-2h1l1-1h1l1-1h1l1-1h1l1-1h1l2-2h1l1-1h1l1-1h1l1-1h1l2-2h1l1-1h1l1-1h1l1-1h1l1-1h1l2-2h1l1-1h1l1-1h1l1-1h1l2-2h1l1-1h1l1-1h1l1-1h1l1-1h1l2-2h1l1-1h1l1-1h1l1-1h1l2-2h1l1-1h1l1-1h1l1-1h1l1-1h1l2-2h1l1-1h1l1-1h1l1-1h1l2-2h1l1-1h1l1-1h1l1-1h1l1-1h1l2-2h1l1-1h1l1-1h1l1-1h1l2-2h1l1-1h1l1-1h1l1-1h1l1-1h1l2-2h1l1-1h1l1-1h1l1-1h1l2-2h1l1-1h1l1-1h1l1-1h1l1-1h1l2-2h1l1-1h1l1-1h1l1-1h1l2-2h1l1-1h1l1-1h1l1-1h1l2-2h1l2-2h1l8-8v-1l2-2v-1l1-1v-2l1-1v-11l-1-1v-2l-1-1v-1l-1-1v-1l-2-2v-1l-7-7h-1l-2-2h-1l-2-2h-1l-1-1h-1l-2-2h-1l-1-1h-1l-1-1h-1l-2-2h-1l-1-1h-1l-1-1h-1l-2-2h-1l-1-1h-1l-1-1h-1l-2-2h-1l-1-1h-1l-2-2h-1l-1-1h-1l-1-1h-1l-2-2h-1l-1-1h-1l-1-1h-1l-1-1h-6l-1,1h-1l-1,1h-1l-1,1h-1l-1,1h-3l-1,1h-15l-1-1h-3l-1-1h-1l-1-1h-1l-2-2h-1l-1-1h-1l-1-1h-1l-2-2h-1l-1-1h-1l-1-1h-1l-2-2h-1l-1-1h-1l-1-1h-1l-2-2h-1l-1-1h-1l-2-2h-1l-1-1h-1l-1-1h-1l-2-2h-1l-1-1h-1l-1-1h-1l-2-2h-1l-1-1h-1l-2-2h-1l-1-1h-1l-1-1h-1l-2-2h-1l-1-1h-1l-1-1h-1l-2-2h-1l-1-1h-1l-1-1h-1l-2-2h-1l-1-1h-1l-2-2h-1l-1-1h-1l-1-1h-1l-2-2h-1l-1-1h-1l-1-1h-1l-2-2h-1l-1-1h-1l-2-2h-1l-1-1h-1l-1-1h-1l-2-2h-1l-1-1h-1l-1-1h-1l-2-2h-1l-1-1h-1l-1-1h-1l-2-2h-1l-1-1h-1l-1-1h-1l-2-2h-1l-1-1h-1l-2-2h-1l-1-1h-1l-1-1h-1l-2-2h-1l-1-1h-1l-1-1h-1l-2-2h-1l-6-6v-7l6-6h1l1-1h1l1-1v-1l-2-2h-1l-2-2h-1l-1-1h-1l-1-1h-1l-2-2h-1l-1-1h-1l-2-2h-1l-1-1h-1l-1-1h-1l-1-1h-1l-2-2h-1l-1-1h-1l-1-1h-1l-2-2h-1l-1-1h-1l-2-2h-1l-1-1h-1l-1-1h-1l-1-1h-1l-2-2h-2l-1-1h-1l-1-1h-1l-1-1h-2l-1-1h-3l-1-1h-2l-1-1h-3l-1-1h-4l-1-1h-7l-1-1h-23Z"/>
    <path class="cls-6" d="M771.7,220.84l1-1h23l1,1h7l1,1h4l1,1h3l1,1h2l1,1h3l1,1h2l1,1h1l2,2h2l2,2h1l1,1h1l1,1h1l1,1h1l2,2h1l1,1h1l1,1h1l2,2h1l1,1h1l2,2h1l1,1h1l1,1h1l1,1h1l2,2h1l1,1h1l2,2h1l1,1h1l1,1h1l2,2h1l1,1h1l1,1-2,2h-1l-1,1h-1l-5,5v9l5,5h1l2,2h1l1,1h1l1,1h1l2,2h1l1,1h1l1,1h1l2,2h1l1,1h1l1,1h1l2,2h1l1,1h1l2,2h1l1,1h1l1,1h1l2,2h1l1,1h1l1,1h1l2,2h1l1,1h1l1,1h1l2,2h1l1,1h1l1,1h1l2,2h1l1,1h1l2,2h1l1,1h1l1,1h1l2,2h1l1,1h1l2,2h1l1,1h1l1,1h1l2,2h1l1,1h1l1,1h1l2,2h1l1,1h1l1,1h1l2,2h1l1,1h1l1,1h1l2,2h1l1,1h1l1,1h1l2,2h1l1,1h1l2,2h1l1,1h1l2,2h1l1,1h1l1,1h1l2,2h1l1,1h1l1,1h1l2,2h1l1,1h1l1,1h1l2,2h1l1,1h2l1,1h3l1,1h15l1-1h3l1-1h2l1-1h1l1-1h1l1-1h5l2,2h1l1,1h1l2,2h1l1,1h1l1,1h1l2,2h1l1,1h1l2,2h1l1,1h1l1,1h1l2,2h1l1,1h1l1,1h1l2,2h1l1,1h1l1,1h1l2,2h1l1,1h1l2,2h1l2,2h1l9,9v1l1,1v1l2,2v2l1,1v11l-1,1v1l-1,1v1l-2,2v1l-3,3v1l-1,1h-1l-5,5h-1l-1,1h-1l-2,2h-1l-1,1h-1l-1,1h-1l-1,1h-1l-2,2h-1l-1,1h-1l-1,1h-1l-2,2h-1l-1,1h-1l-1,1h-1l-1,1h-1l-1,1h-1l-2,2h-1l-1,1h-1l-1,1h-1l-1,1h-1l-1,1h-1l-2,2h-1l-1,1h-1l-1,1h-1l-1,1h-1l-1,1h-1l-2,2h-1l-1,1h-1l-1,1h-1l-1,1h-1l-2,2h-1l-1,1h-1l-1,1h-1l-1,1h-1l-2,2h-1l-1,1h-1l-1,1h-1l-1,1h-1l-1,1h-1l-2,2h-1l-1,1h-1l-1,1h-1l-1,1h-1l-1,1h-1l-2,2h-1l-1,1h-1l-1,1h-1l-1,1h-1l-2,2h-1l-1,1h-1l-1,1h-1l-1,1h-1l-2,2h-1l-1,1h-1l-1,1h-1l-1,1h-1l-1,1h-1l-2,2h-1l-1,1h-1l-1,1h-1l-1,1h-1l-1,1h-1l-2,2h-1l-1,1h-1l-1,1h-1l-1,1h-1l-2,2h-1l-1,1h-1l-1,1h-1l-1,1h-1l-1,1h-1l-2,2h-1l-1,1h-1l-1,1h-1l-1,1h-1l-1,1h-1l-2,2h-1l-1,1h-1l-1,1h-1l-1,1h-1l-2,2h-1l-1,1h-1l-1,1h-1l-1,1h-1l-2,2h-1l-1,1h-1l-1,1h-1l-1,1h-1l-1,1h-1l-2,2h-1l-1,1h-1l-1,1h-1l-1,1h-1l-1,1h-1l-2,2h-1l-1,1h-1l-1,1h-1l-1,1h-1l-2,2h-1l-1,1h-1l-1,1h-1l-1,1h-1l-2,2h-1l-1,1h-1l-1,1h-1l-1,1h-1l-1,1h-1l-2,2h-1l-1,1h-1l-1,1h-1l-1,1h-1l-1,1h-1l-2,2h-1l-1,1h-1l-1,1h-1l-1,1h-1l-2,2h-1l-1,1h-1l-1,1h-1l-1,1h-1l-1,1h-1l-2,2h-1l-1,1h-1l-1,1h-1l-1,1h-1l-2,2h-1l-1,1h-1l-1,1h-1l-1,1h-1l-1,1h-1l-2,2h-1l-1,1h-1l-1,1h-1l-1,1h-1l-1,1h-1l-2,2h-1l-1,1h-1l-1,1h-1l-1,1h-1l-2,2h-1l-1,1h-1l-1,1h-1l-1,1h-1l-1,1h-1l-2,2h-1l-1,1h-1l-1,1h-1l-1,1h-1l-1,1h-1l-2,2h-1l-1,1h-1l-1,1h-1l-1,1h-1l-2,2h-1l-1,1h-1l-1,1h-1l-1,1h-1l-2,2h-1l-1,1h-1l-1,1h-1l-1,1h-1l-1,1h-1l-1,1h-1l-2,2h-1l-1,1h-1l-1,1h-1l-1,1h-1l-2,2h-1l-1,1h-1l-1,1h-1l-1,1h-1l-2,2h-1l-1,1h-1l-1,1h-1l-1,1h-1l-2,2h-1l-1,1h-1l-1,1h-1l-1,1h-1l-1,1h-1l-1,1h-1l-2,2h-1l-1,1h-1l-1,1h-1l-1,1h-1l-2,2h-1l-1,1h-1l-1,1h-1l-1,1h-1l-2,2h-1l-1,1h-1l-1,1h-1l-1,1h-1l-2,2h-1l-1,1h-1l-1,1h-1l-1,1h-1l-1,1h-1l-1,1h-1l-2,2h-1l-1,1h-1l-2,2h-2l-2,2h-1l-1,1h-1l-1,1h-1l-1,1h-1l-2,2h-1l-1,1h-1l-1,1h-1l-1,1h-1l-1,1h-1l-2,2h-1l-1,1h-1l-1,1h-1l-1,1h-1l-1,1h-1l-2,2h-1l-1,1h-1l-1,1h-1l-1,1h-1l-2,2h-1l-1,1h-1l-1,1h-1l-1,1h-1l-2,2h-1l-1,1h-1l-1,1h-1l-1,1h-1l-1,1h-1l-1,1h-1l-2,2h-1l-1,1h-1l-1,1h-1l-1,1h-1l-1,1h-1l-2,2h-1l-1,1h-1l-1,1h-1l-1,1h-1l-2,2h-1l-1,1h-1l-1,1h-1l-2,2h-1l-1,1h-1l-1,1h-1l-1,1h-1l-1,1h-1l-1,1h-1l-1,1h-1l-2,2h-1l-1,1h-1l-1,1h-1l-1,1h-1l-2,2h-1l-1,1h-1l-1,1h-1l-2,2h-1l-1,1h-1l-1,1h-1l-1,1h-1l-1,1h-1l-2,2h-1l-1,1h-1l-1,1h-1l-1,1h-1l-1,1h-1l-2,2h-1l-1,1h-1l-1,1h-1l-1,1h-1l-1,1h-1l-2,2h-1l-1,1h-1l-1,1h-1l-1,1h-1l-2,2h-1l-1,1h-1l-1,1h-1l-1,1h-1l-2,2h-1l-1,1h-1l-1,1h-1l-1,1h-1l-1,1h-1l-2,2h-1l-1,1h-1l-1,1h-1l-1,1h-1l-1,1h-1l-2,2h-1l-1,1h-1l-1,1h-1l-1,1h-1l-2,2h-1l-1,1h-1l-1,1h-1l-1,1h-1l-1,1h-1l-2,2h-1l-1,1h-1l-1,1h-1l-1,1h-1l-1,1h-1l-2,2h-1l-1,1h-1l-1,1h-1l-1,1h-1l-2,2h-1l-1,1h-1l-1,1h-2l-1,1h-1l-1,1h-2l-1,1h-3l-1,1h-4l-1,1h-4l-1,1h-6l-1,1h-21l-1-1h-6l-1-1h-4l-1-1h-4l-1-1h-3l-1-1h-2l-1-1h-1l-1-1h-2l-1-1h-2l-2-2h-1l-1-1h-1l-1-1h-1l-2-2h-1l-1-1h-1l-1-1h-1l-2-2h-1l-1-1h-1l-1-1h-1l-2-2h-1l-1-1h-1l-2-2h-1l-1-1h-1l-1-1h-1l-2-2h-1l-1-1h-1l-1-1h-1l-2-2h-1l-1-1h-1l-1-1h-1l-2-2h-1l-1-1h-1l-1-1h-1l-2-2h-1l-1-1h-1l-2-2h-1l-1-1h-1l-1-1h-1l-2-2h-1l-1-1h-1l-2-2h-1l-1-1h-1l-1-1h-1l-2-2h-1l-1-1h-1l-1-1h-1l-2-2h-1l-1-1h-1l-1-1h-1l-2-2h-1l-1-1h-1l-1-1h-1l-2-2h-1l-1-1h-1l-1-1h-1l-2-2h-1l-1-1h-1l-2-2h-1l-1-1h-1l-2-2h-1l-1-1h-1l-1-1h-1l-2-2h-1l-1-1h-1l-1-1h-1l-2-2h-1l-1-1h-1l-1-1h-1l-2-2h-1l-1-1h-1l-1-1h-1l-2-2h-1l-1-1h-1l-1-1h-1l-2-2h-1l-1-1h-1l-2-2h-1l-1-1h-1l-1-1h-1l-2-2h-1l-1-1h-1l-1-1h-1l-2-2h-1l-1-1h-1l-1-1h-1l-2-2h-1l-1-1h-1l-2-2h-1l-1-1h-1l-1-1h-1l-2-2h-1l-1-1h-1l-2-2h-1l-1-1h-1l-1-1h-1l-2-2h-1l-1-1h-1l-1-1h-1l-2-2h-1l-1-1h-1l-1-1h-1l-2-2h-1l-1-1h-1l-1-1h-1l-2-2h-1l-1-1h-1l-2-2h-1l-1-1h-1l-2-2h-1l-1-1h-1l-1-1h-1l-1-1h-1l-2-2h-1l-1-1h-1l-2-2h-1l-1-1h-1l-1-1h-1l-2-2h-1l-1-1h-1l-1-1h-1l-2-2h-1l-1-1h-1l-1-1h-1l-2-2h-1l-2-2h-1l-3-3h-1l-5-5v-1l-3-3v-1l-1-1v-1l-1-1v-2l-1-1v-9l1-1v-2l1-1v-1l1-1v-1l4-4v-1l1-1h1l5-5h1l2-2h1l1-1h1l1-1h1l2-2h1l2-2h2l1-1h1l2-2h1l1-1h1l1-1h1l1-1h1l2-2h1l1-1h1l1-1h1l1-1h1l1-1h1l1-1h1l2-2h1l1-1h1l1-1h1l1-1h1l2-2h1l1-1h1l1-1h1l1-1h1l2-2h1l1-1h1l1-1h1l1-1h1l1-1h1l2-2h1l1-1h1l1-1h1l1-1h1l1-1h1l2-2h1l2-2h2l1-1h1l2-2h1l1-1h1l1-1h1l1-1h1l2-2h1l1-1h1l1-1h1l1-1h1l1-1h1l1-1h1l2-2h1l1-1h1l1-1h1l1-1h1l2-2h1l1-1h1l1-1h1l1-1h1l2-2h1l1-1h1l1-1h1l1-1h1l2-2h1l1-1h1l1-1h1l1-1h1l1-1h1l1-1h1l2-2h1l1-1h1l1-1h1l1-1h1l2-2h1l1-1h1l1-1h1l1-1h1l1-1h1l2-2h1l1-1h1l1-1h1l1-1h1l2-2h1l1-1h1l1-1h1l1-1h1l1-1h1l1-1h1l2-2h1l1-1h1l1-1h1l1-1h1l2-2h1l1-1h1l1-1h1l1-1h1l2-2h1l1-1h1l1-1h1l1-1h1l2-2h1l1-1h1l1-1h1l1-1h1l1-1h1l2-2h1l1-1h1l1-1h1l1-1h1l1-1h1l2-2h1l1-1h1l1-1h1l1-1h1l2-2h1l1-1h1l1-1h1l1-1h1l2-2h1l1-1h1l1-1h1l1-1h1l1-1h1l1-1h1l2-2h1l1-1h1l1-1h1l1-1h1l2-2h1l1-1h1l1-1h1l1-1h1l2-2h1l1-1h1l1-1h1l1-1h1l1-1h1l2-2h1l1-1h1l1-1h1l1-1h1l1-1h1l2-2h1l1-1h1l1-1h1l1-1h1l2-2h1l1-1h1l1-1h1l1-1h1l2-2h1l1-1h1l1-1h1l1-1h1l2-2h1l1-1h1l1-1h1l2-2h2l1-1h1l2-2h1l1-1h1l1-1h1l1-1h1l2-2h1l1-1h1l1-1h1l1-1h1l1-1h1l2-2h1l1-1h1l1-1h1l1-1h1l1-1h1l2-2h1l1-1h1l1-1h1l1-1h1l2-2h1l1-1h1l1-1h1l1-1h1l1-1h1l2-2h1l1-1h1l1-1h1l2-2h1l1-1h1l1-1h1l1-1h1l1-1h1l1-1h1l1-1h1l2-2h1l1-1h1l1-1h1l1-1h1l2-2h1l1-1h1l1-1h1l1-1h1l2-2h1l1-1h1l1-1h1l1-1h1l2-2h1l1-1h1l1-1h1l1-1h1l1-1h1l1-1h1l2-2h1l1-1h1l1-1h1l1-1h1l2-2h1l1-1h1l1-1h1l1-1h1l2-2h1l1-1h1l1-1h1l1-1h1l2-2h1l1-1h1l1-1h1l1-1h1l1-1h1l1-1h1l2-2h1l1-1h1l1-1h1l1-1h1l2-2h1l1-1h1l1-1h1l1-1h1l2-2h1l1-1h1l1-1h1l1-1h1l1-1h1l2-2h1l1-1h1l1-1h1l1-1h1l1-1h1l2-2h1l1-1h1l1-1h1l1-1h1l2-2h1l1-1h1l1-1h1l1-1h1l2-2h1l1-1h1l1-1h1l1-1h1l1-1h1l1-1h1l2-2h1l1-1h1l1-1h1l1-1h1l2-2h1l1-1h1l1-1h1l1-1h1l2-2h1l1-1h1l1-1h1l1-1h1l2-2h1l1-1h1l1-1h1l1-1h1l1-1h1l1-1h1l2-2h1l1-1h1l1-1h1l1-1h1l1-1h1l2-2h1l1-1h1l1-1h1l2-2h1l1-1h1l1-1h1l1-1h1l1-1h1l2-2h1l1-1h1l1-1h1l1-1h1l1-1h1l2-2h1l1-1h1l1-1h1l1-1h1l2-2h1l1-1h1l1-1h1l1-1h1l2-2h1l1-1h1l1-1h1l1-1h1l1-1h1l1-1h2l1-1h2l1-1h3l1-1h2l1-1h4l1-1h7Z"/>
  </g>
</svg>